{
.appVersion = "1075";
copyright = "Copyright © 2018 by Cadson Demak Co.,Ltd.. All rights reserved.";
customParameters = (
{
name = vendorID;
value = CDK;
},
{
name = description;
value = "Copyright (c) 2018, Cadson Demak (info@cadsondemak.com)";
},
{
name = license;

glyphs = (
{
glyphname = A;
layers = (
{
anchors = (
{
name = bottom;
position = "{254, 0}";
},
{
name = ogonek;
position = "{480, 11}";
},
{
name = top;
position = "{375, 700}";
}
);
layerId = "DFC648BE-1420-4AB7-B0BF-55F282890848";
paths = (
{
closed = 1;
nodes = (
"54 -8 OFFCURVE",
"74 8 OFFCURVE",
"92 43 CURVE SMOOTH",
"169 195 LINE",
"422 195 LINE",
"461 -6 LINE",
"508 -6 OFFCURVE",
"539 21 OFFCURVE",
"526 85 CURVE SMOOTH",
"406 700 LINE",
"398 704 OFFCURVE",
"390 706 OFFCURVE",
"382 706 CURVE SMOOTH",
"357 706 OFFCURVE",
"335 686 OFFCURVE",
"313 644 CURVE SMOOTH",
"-14 0 LINE",
"-5 -5 OFFCURVE",
"11 -8 OFFCURVE",
"24 -8 CURVE SMOOTH"
);
},
{
closed = 1;
nodes = (
"356 581 LINE",
"409 269 LINE",
"205 269 LINE"
);
}
);
width = 587;
}
);
leftKerningGroup = A;
note = A;
rightKerningGroup = A;
unicode = 0041;
},
{
glyphname = AE;
layers = (
{
anchors = (
{
name = bottom;
position = "{380, 0}";
},
{
name = top;
position = "{565, 700}";
}
);
layerId = "DFC648BE-1420-4AB7-B0BF-55F282890848";
paths = (
{
closed = 1;
nodes = (
"54 -8 OFFCURVE",
"74 8 OFFCURVE",
"92 43 CURVE SMOOTH",
"169 195 LINE",
"397 195 LINE",
"394 177 LINE SMOOTH",
"382 98 OFFCURVE",
"368 62 OFFCURVE",
"327 21 CURVE",
"332 0 LINE",
"713 0 LINE SMOOTH",
"746 0 OFFCURVE",
"773 17 OFFCURVE",
"778 50 CURVE SMOOTH",
"779 57 OFFCURVE",
"780 67 OFFCURVE",
"778 76 CURVE",
"451 76 LINE",
"470 108 OFFCURVE",
"477 143 OFFCURVE",
"482 177 CURVE SMOOTH",
"505 320 LINE",
"716 320 LINE SMOOTH",
"749 320 OFFCURVE",
"775 337 OFFCURVE",
"781 370 CURVE SMOOTH",
"782 377 OFFCURVE",
"782 387 OFFCURVE",
"781 396 CURVE",
"517 396 LINE",
"553 624 LINE",
"796 624 LINE SMOOTH",
"829 624 OFFCURVE",
"856 641 OFFCURVE",
"861 674 CURVE SMOOTH",
"862 681 OFFCURVE",
"862 691 OFFCURVE",
"861 700 CURVE",
"401 700 LINE SMOOTH",
"363 700 OFFCURVE",
"330 677 OFFCURVE",
"309 635 CURVE SMOOTH",
"-14 0 LINE",
"-5 -5 OFFCURVE",
"11 -8 OFFCURVE",
"24 -8 CURVE SMOOTH"
);
},
{
closed = 1;
nodes = (
"374 619 LINE",
"464 619 LINE",
"409 269 LINE",
"205 269 LINE"
);
}
);
width = 840;
}
);
leftMetricsKey = A;
note = AE;
rightMetricsKey = E;
unicode = 00C6;
},
{
glyphname = B;
layers = (
{
anchors = (
{
name = bottom;
position = "{250, 0}";
},
{
name = top;
position = "{361, 700}";
}
);
layerId = "DFC648BE-1420-4AB7-B0BF-55F282890848";
paths = (
{
closed = 1;
nodes = (
"399 -12 OFFCURVE",
"531 70 OFFCURVE",
"531 228 CURVE SMOOTH",
"531 302 OFFCURVE",
"487 347 OFFCURVE",
"417 364 CURVE",
"500 397 OFFCURVE",
"549 456 OFFCURVE",
"549 550 CURVE SMOOTH",
"549 651 OFFCURVE",
"472 714 OFFCURVE",
"322 714 CURVE SMOOTH",
"262 714 OFFCURVE",
"194 704 OFFCURVE",
"124 704 CURVE",
"112 683 LINE",
"129 658 OFFCURVE",
"136 634 OFFCURVE",
"136 600 CURVE SMOOTH",
"136 577 OFFCURVE",
"133 549 OFFCURVE",
"127 514 CURVE SMOOTH",
"76 188 LINE SMOOTH",
"62 100 OFFCURVE",
"48 60 OFFCURVE",
"7 19 CURVE",
"12 -2 LINE",
"81 -2 OFFCURVE",
"158 -12 OFFCURVE",
"222 -12 CURVE SMOOTH"
);
},
{
closed = 1;
nodes = (
"142 67 OFFCURVE",
"154 129 OFFCURVE",
"164 188 CURVE SMOOTH",
"185 324 LINE",
"322 324 LINE SMOOTH",
"399 324 OFFCURVE",
"441 288 OFFCURVE",
"441 225 CURVE SMOOTH",
"441 118 OFFCURVE",
"365 62 OFFCURVE",
"244 62 CURVE SMOOTH",
"197 62 OFFCURVE",
"139 70 OFFCURVE",
"92 70 CURVE",
"96 25 LINE"
);
},
{
closed = 1;
nodes = (
"215 514 LINE SMOOTH",
"219 540 OFFCURVE",
"223 567 OFFCURVE",
"223 593 CURVE SMOOTH",
"223 624 OFFCURVE",
"217 654 OFFCURVE",
"199 677 CURVE",
"181 632 LINE",
"231 632 OFFCURVE",
"281 640 OFFCURVE",
"326 640 CURVE SMOOTH",
"419 640 OFFCURVE",
"458 605 OFFCURVE",
"458 544 CURVE SMOOTH",
"458 463 OFFCURVE",
"415 396 OFFCURVE",
"329 396 CURVE SMOOTH",
"197 396 LINE"
);
}
);
width = 580;
}
);
leftKerningGroup = E;
leftMetricsKey = E;
note = B;
rightKerningGroup = B;
unicode = 0042;
},
{
glyphname = C;
layers = (
{
anchors = (
{
name = bottom;
position = "{326, 0}";
},
{
name = top;
position = "{437, 700}";
}
);
layerId = "DFC648BE-1420-4AB7-B0BF-55F282890848";
paths = (
{
closed = 1;
nodes = (
"469 -12 OFFCURVE",
"581 54 OFFCURVE",
"581 129 CURVE SMOOTH",
"581 145 OFFCURVE",
"574 162 OFFCURVE",
"551 169 CURVE",
"502 109 OFFCURVE",
"428 62 OFFCURVE",
"334 62 CURVE SMOOTH",
"213 62 OFFCURVE",
"150 155 OFFCURVE",
"150 283 CURVE SMOOTH",
"150 463 OFFCURVE",
"260 640 OFFCURVE",
"425 640 CURVE SMOOTH",
"519 640 OFFCURVE",
"580 593 OFFCURVE",
"608 533 CURVE",
"650 545 OFFCURVE",
"654 581 OFFCURVE",
"654 595 CURVE SMOOTH",
"654 662 OFFCURVE",
"555 714 OFFCURVE",
"434 714 CURVE SMOOTH",
"201 714 OFFCURVE",
"56 517 OFFCURVE",
"56 277 CURVE SMOOTH",
"56 109 OFFCURVE",
"157 -12 OFFCURVE",
"335 -12 CURVE SMOOTH"
);
}
);
width = 647;
}
);
leftKerningGroup = O;
leftMetricsKey = O;
note = C;
rightKerningGroup = C;
unicode = 0043;
},
{
glyphname = D;
layers = (
{
anchors = (
{
name = bottom;
position = "{250, 0}";
},
{
name = center;
position = "{335, 350}";
},
{
name = top;
position = "{361, 700}";
}
);
layerId = "DFC648BE-1420-4AB7-B0BF-55F282890848";
paths = (
{
closed = 1;
nodes = (
"458 -12 OFFCURVE",
"617 175 OFFCURVE",
"617 425 CURVE SMOOTH",
"617 600 OFFCURVE",
"514 714 OFFCURVE",
"326 714 CURVE SMOOTH",
"269 714 OFFCURVE",
"190 704 OFFCURVE",
"124 704 CURVE",
"112 683 LINE",
"129 658 OFFCURVE",
"136 634 OFFCURVE",
"136 600 CURVE SMOOTH",
"136 577 OFFCURVE",
"133 549 OFFCURVE",
"127 514 CURVE SMOOTH",
"76 188 LINE SMOOTH",
"62 100 OFFCURVE",
"48 60 OFFCURVE",
"7 19 CURVE",
"12 -2 LINE",
"78 -2 OFFCURVE",
"154 -12 OFFCURVE",
"211 -12 CURVE SMOOTH"
);
},
{
closed = 1;
nodes = (
"142 67 OFFCURVE",
"154 129 OFFCURVE",
"164 188 CURVE SMOOTH",
"215 514 LINE SMOOTH",
"219 540 OFFCURVE",
"223 567 OFFCURVE",
"223 593 CURVE SMOOTH",
"223 624 OFFCURVE",
"217 654 OFFCURVE",
"199 677 CURVE",
"181 632 LINE",
"230 632 OFFCURVE",
"272 640 OFFCURVE",
"316 640 CURVE SMOOTH",
"453 640 OFFCURVE",
"524 565 OFFCURVE",
"524 427 CURVE SMOOTH",
"524 227 OFFCURVE",
"422 62 OFFCURVE",
"225 62 CURVE SMOOTH",
"181 62 OFFCURVE",
"141 70 OFFCURVE",
"92 70 CURVE",
"96 25 LINE"
);
}
);
width = 641;
}
);
leftKerningGroup = E;
leftMetricsKey = E;
note = D;
rightKerningGroup = O;
rightMetricsKey = O;
unicode = 0044;
},
{
glyphname = Eth;
layers = (
{
components = (
{
name = D;
transform = "{1, 0, 0, 1, 30, 0}";
}
);
layerId = "DFC648BE-1420-4AB7-B0BF-55F282890848";
paths = (
{
closed = 1;
nodes = (
"391 320 LINE",
"400 380 LINE",
"50 380 LINE",
"41 320 LINE"
);
}
);
width = 671;
}
);
note = Eth;
rightMetricsKey = D;
unicode = 00D0;
},
{
glyphname = E;
layers = (
{
anchors = (
{
name = bottom;
position = "{236, 0}";
},
{
name = ogonek;
position = "{396, 11}";
},
{
name = top;
position = "{347, 700}";
},
{
name = topleft;
position = "{91, 700}";
}
);
layerId = "DFC648BE-1420-4AB7-B0BF-55F282890848";
paths = (
{
closed = 1;
nodes = (
"393 0 LINE SMOOTH",
"426 0 OFFCURVE",
"453 17 OFFCURVE",
"458 50 CURVE SMOOTH",
"459 57 OFFCURVE",
"460 67 OFFCURVE",
"458 76 CURVE",
"93 76 LINE",
"97 34 LINE",
"143 76 OFFCURVE",
"154 127 OFFCURVE",
"162 177 CURVE SMOOTH",
"185 320 LINE",
"396 320 LINE SMOOTH",
"429 320 OFFCURVE",
"455 337 OFFCURVE",
"461 370 CURVE SMOOTH",
"462 377 OFFCURVE",
"462 387 OFFCURVE",
"461 396 CURVE",
"197 396 LINE",
"217 523 LINE SMOOTH",
"225 573 OFFCURVE",
"230 624 OFFCURVE",
"197 666 CURVE",
"180 624 LINE",
"476 624 LINE SMOOTH",
"509 624 OFFCURVE",
"536 641 OFFCURVE",
"541 674 CURVE SMOOTH",
"542 681 OFFCURVE",
"542 691 OFFCURVE",
"541 700 CURVE",
"123 700 LINE",
"112 679 LINE",
"139 638 OFFCURVE",
"141 602 OFFCURVE",
"129 523 CURVE SMOOTH",
"74 177 LINE SMOOTH",
"62 98 OFFCURVE",
"48 62 OFFCURVE",
"7 21 CURVE",
"12 0 LINE"
);
}
);
width = 520;
}
);
leftKerningGroup = E;
note = E;
rightKerningGroup = E;
unicode = 0045;
},
{
glyphname = F;
layers = (
{
anchors = (
{
name = bottom;
position = "{86, 0}";
},
{
name = top;
position = "{330, 700}";
}
);
layerId = "DFC648BE-1420-4AB7-B0BF-55F282890848";
paths = (
{
closed = 1;
nodes = (
"110 -6 OFFCURVE",
"135 20 OFFCURVE",
"141 59 CURVE SMOOTH",
"181 310 LINE",
"376 310 LINE SMOOTH",
"409 310 OFFCURVE",
"436 327 OFFCURVE",
"441 360 CURVE SMOOTH",
"442 367 OFFCURVE",
"443 377 OFFCURVE",
"441 386 CURVE",
"193 386 LINE",
"215 523 LINE SMOOTH",
"223 573 OFFCURVE",
"228 624 OFFCURVE",
"195 666 CURVE",
"178 624 LINE",
"474 624 LINE SMOOTH",
"507 624 OFFCURVE",
"534 641 OFFCURVE",
"539 674 CURVE SMOOTH",
"540 681 OFFCURVE",
"540 691 OFFCURVE",
"539 700 CURVE",
"121 700 LINE",
"110 679 LINE",
"137 638 OFFCURVE",
"139 602 OFFCURVE",
"127 523 CURVE SMOOTH",
"44 -2 LINE",
"54 -5 OFFCURVE",
"64 -6 OFFCURVE",
"72 -6 CURVE SMOOTH"
);
}
);
width = 498;
}
);
leftKerningGroup = F;
note = F;
rightKerningGroup = F;
unicode = 0046;
},
{
glyphname = G;
layers = (
{
anchors = (
{
name = bottom;
position = "{315, 0}";
},
{
name = top;
position = "{426, 700}";
}
);
layerId = "DFC648BE-1420-4AB7-B0BF-55F282890848";
paths = (
{
closed = 1;
nodes = (
"523 -12 OFFCURVE",
"650 135 OFFCURVE",
"650 325 CURVE SMOOTH",
"650 335 OFFCURVE",
"650 346 OFFCURVE",
"648 356 CURVE",
"442 356 LINE SMOOTH",
"405 356 OFFCURVE",
"376 335 OFFCURVE",
"376 294 CURVE SMOOTH",
"376 289 OFFCURVE",
"377 285 OFFCURVE",
"377 280 CURVE",
"562 280 LINE",
"541 147 OFFCURVE",
"446 62 OFFCURVE",
"327 62 CURVE SMOOTH",
"212 62 OFFCURVE",
"148 142 OFFCURVE",
"148 273 CURVE SMOOTH",
"148 458 OFFCURVE",
"247 640 OFFCURVE",
"424 640 CURVE SMOOTH",
"510 640 OFFCURVE",
"580 597 OFFCURVE",
"616 527 CURVE",
"658 538 OFFCURVE",
"662 574 OFFCURVE",
"662 589 CURVE SMOOTH",
"662 657 OFFCURVE",
"555 714 OFFCURVE",
"431 714 CURVE SMOOTH",
"197 714 OFFCURVE",
"55 515 OFFCURVE",
"55 273 CURVE SMOOTH",
"55 101 OFFCURVE",
"160 -12 OFFCURVE",
"327 -12 CURVE SMOOTH"
);
}
);
width = 688;
}
);
leftKerningGroup = O;
leftMetricsKey = O;
note = G;
rightKerningGroup = G;
unicode = 0047;
},
{
glyphname = H;
layers = (
{
anchors = (
{
name = bottom;
position = "{293, 0}";
},
{
name = center;
position = "{348, 350}";
},
{
name = top;
position = "{404, 700}";
},
{
name = topleft;
position = "{90, 700}";
}
);
layerId = "DFC648BE-1420-4AB7-B0BF-55F282890848";
paths = (
{
closed = 1;
nodes = (
"525 -6 OFFCURVE",
"550 20 OFFCURVE",
"556 59 CURVE SMOOTH",
"658 702 LINE",
"648 705 OFFCURVE",
"637 706 OFFCURVE",
"629 706 CURVE SMOOTH",
"591 706 OFFCURVE",
"567 679 OFFCURVE",
"561 641 CURVE SMOOTH",
"459 -2 LINE",
"469 -5 OFFCURVE",
"479 -6 OFFCURVE",
"487 -6 CURVE SMOOTH"
);
},
{
closed = 1;
nodes = (
"105 -6 OFFCURVE",
"130 20 OFFCURVE",
"136 59 CURVE SMOOTH",
"238 702 LINE",
"228 705 OFFCURVE",
"217 706 OFFCURVE",
"209 706 CURVE SMOOTH",
"171 706 OFFCURVE",
"147 679 OFFCURVE",
"141 641 CURVE SMOOTH",
"39 -2 LINE",
"49 -5 OFFCURVE",
"59 -6 OFFCURVE",
"67 -6 CURVE SMOOTH"
);
},
{
closed = 1;
nodes = (
"525 310 LINE",
"537 386 LINE",
"172 386 LINE",
"160 310 LINE"
);
}
);
width = 667;
}
);
leftKerningGroup = H;
leftMetricsKey = "=|";
note = H;
rightKerningGroup = H;
unicode = 0048;
},
{
glyphname = Hbar;
layers = (
{
components = (
{
name = H;
}
);
layerId = "DFC648BE-1420-4AB7-B0BF-55F282890848";
paths = (
{
closed = 1;
nodes = (
"691 500 LINE",
"703 576 LINE",
"67 576 LINE",
"55 500 LINE"
);
}
);
width = 668;
}
);
note = Hbar;
unicode = 0126;
},
{
glyphname = I;
layers = (
{
anchors = (
{
name = bottom;
position = "{85, 0}";
},
{
name = ogonek;
position = "{80, 10}";
},
{
name = top;
position = "{196, 700}";
},
{
name = topleft;
position = "{90, 700}";
}
);
layerId = "DFC648BE-1420-4AB7-B0BF-55F282890848";
paths = (
{
closed = 1;
nodes = (
"107 -6 OFFCURVE",
"132 20 OFFCURVE",
"138 59 CURVE SMOOTH",
"240 702 LINE",
"230 705 OFFCURVE",
"219 706 OFFCURVE",
"211 706 CURVE SMOOTH",
"173 706 OFFCURVE",
"149 679 OFFCURVE",
"143 641 CURVE SMOOTH",
"41 -2 LINE",
"51 -5 OFFCURVE",
"61 -6 OFFCURVE",
"69 -6 CURVE SMOOTH"
);
}
);
width = 251;
}
);
leftKerningGroup = I;
leftMetricsKey = "=|";
note = I;
rightKerningGroup = I;
unicode = 0049;
},
{
glyphname = J;
layers = (
{
anchors = (
{
name = bottom;
position = "{131, 0}";
},
{
name = top;
position = "{324, 700}";
}
);
layerId = "DFC648BE-1420-4AB7-B0BF-55F282890848";
paths = (
{
closed = 1;
nodes = (
"181 -12 OFFCURVE",
"254 36 OFFCURVE",
"273 157 CURVE SMOOTH",
"359 702 LINE",
"349 705 OFFCURVE",
"338 706 OFFCURVE",
"330 706 CURVE SMOOTH",
"292 706 OFFCURVE",
"268 679 OFFCURVE",
"262 641 CURVE SMOOTH",
"185 157 LINE SMOOTH",
"173 83 OFFCURVE",
"145 69 OFFCURVE",
"110 69 CURVE SMOOTH",
"74 69 OFFCURVE",
"46 84 OFFCURVE",
"27 100 CURVE",
"11 93 OFFCURVE",
"1 79 OFFCURVE",
"-2 63 CURVE SMOOTH",
"-8 28 OFFCURVE",
"24 -12 OFFCURVE",
"99 -12 CURVE SMOOTH"
);
}
);
width = 364;
}
);
leftKerningGroup = J;
note = J;
rightKerningGroup = J;
unicode = 004A;
},
{
glyphname = K;
layers = (
{
anchors = (
{
name = bottom;
position = "{245, 0}";
},
{
name = top;
position = "{356, 700}";
}
);
layerId = "DFC648BE-1420-4AB7-B0BF-55F282890848";
paths = (
{
closed = 1;
nodes = (
"605 700 LINE",
"589 706 OFFCURVE",
"568 708 OFFCURVE",
"556 708 CURVE SMOOTH",
"529 708 OFFCURVE",
"490 691 OFFCURVE",
"461 660 CURVE SMOOTH",
"144 337 LINE",
"126 220 LINE"
);
},
{
closed = 1;
nodes = (
"105 -6 OFFCURVE",
"130 21 OFFCURVE",
"136 59 CURVE SMOOTH",
"238 702 LINE",
"228 705 OFFCURVE",
"217 706 OFFCURVE",
"209 706 CURVE SMOOTH",
"171 706 OFFCURVE",
"147 679 OFFCURVE",
"141 641 CURVE SMOOTH",
"39 -2 LINE",
"49 -5 OFFCURVE",
"59 -6 OFFCURVE",
"68 -6 CURVE SMOOTH"
);
},
{
closed = 1;
nodes = (
"473 -8 OFFCURVE",
"490 -6 OFFCURVE",
"510 1 CURVE",
"512 12 LINE",
"498 18 OFFCURVE",
"482 44 OFFCURVE",
"458 92 CURVE SMOOTH",
"349 305 LINE SMOOTH",
"331 340 OFFCURVE",
"309 357 OFFCURVE",
"276 357 CURVE SMOOTH",
"262 357 OFFCURVE",
"244 355 OFFCURVE",
"229 352 CURVE",
"389 32 LINE SMOOTH",
"402 6 OFFCURVE",
"426 -8 OFFCURVE",
"457 -8 CURVE SMOOTH"
);
}
);
width = 558;
}
);
leftKerningGroup = H;
leftMetricsKey = H;
note = K;
rightKerningGroup = K;
unicode = 004B;
},
{
glyphname = L;
layers = (
{
anchors = (
{
name = bottom;
position = "{218, 0}";
},
{
name = center;
position = "{333, 350}";
},
{
name = top;
position = "{209, 700}";
},
{
name = topright;
position = "{546, 700}";
}
);
layerId = "DFC648BE-1420-4AB7-B0BF-55F282890848";
paths = (
{
closed = 1;
nodes = (
"376 0 LINE SMOOTH",
"409 0 OFFCURVE",
"436 17 OFFCURVE",
"441 50 CURVE SMOOTH",
"442 57 OFFCURVE",
"443 67 OFFCURVE",
"441 76 CURVE",
"92 76 LINE",
"96 34 LINE",
"142 76 OFFCURVE",
"153 127 OFFCURVE",
"161 177 CURVE SMOOTH",
"244 702 LINE",
"234 705 OFFCURVE",
"223 706 OFFCURVE",
"215 706 CURVE SMOOTH",
"177 706 OFFCURVE",
"153 679 OFFCURVE",
"147 641 CURVE SMOOTH",
"73 177 LINE SMOOTH",
"61 98 OFFCURVE",
"47 62 OFFCURVE",
"6 21 CURVE",
"11 0 LINE"
);
}
);
width = 495;
}
);
leftKerningGroup = F;
leftMetricsKey = F;
note = L;
rightKerningGroup = L;
unicode = 004C;
},
{
glyphname = Lslash;
layers = (
{
components = (
{
name = L;
}
);
layerId = "DFC648BE-1420-4AB7-B0BF-55F282890848";
paths = (
{
closed = 1;
nodes = (
"380 440 LINE",
"389 500 LINE",
"20 380 LINE",
"11 320 LINE"
);
}
);
width = 495;
}
);
note = Lslash;
rightMetricsKey = L;
unicode = 0141;
},
{
glyphname = M;
layers = (
{
anchors = (
{
name = bottom;
position = "{350, 0}";
},
{
name = top;
position = "{461, 700}";
}
);
layerId = "DFC648BE-1420-4AB7-B0BF-55F282890848";
paths = (
{
closed = 1;
nodes = (
"104 -8 OFFCURVE",
"128 19 OFFCURVE",
"134 57 CURVE SMOOTH",
"213 554 LINE",
"348 70 LINE",
"380 70 LINE",
"631 490 LINE SMOOTH",
"680 572 OFFCURVE",
"690 586 OFFCURVE",
"707 599 CURVE",
"708 634 LINE",
"677 592 OFFCURVE",
"668 550 OFFCURVE",
"660 500 CURVE SMOOTH",
"581 -3 LINE",
"590 -7 OFFCURVE",
"601 -8 OFFCURVE",
"609 -8 CURVE SMOOTH",
"647 -8 OFFCURVE",
"670 19 OFFCURVE",
"676 57 CURVE SMOOTH",
"752 534 LINE SMOOTH",
"764 614 OFFCURVE",
"777 648 OFFCURVE",
"808 686 CURVE",
"805 704 LINE",
"782 704 OFFCURVE",
"757 710 OFFCURVE",
"733 710 CURVE SMOOTH",
"690 710 OFFCURVE",
"662 691 OFFCURVE",
"626 629 CURVE SMOOTH",
"390 234 LINE",
"259 701 LINE",
"247 707 OFFCURVE",
"232 708 OFFCURVE",
"223 708 CURVE SMOOTH",
"176 708 OFFCURVE",
"146 678 OFFCURVE",
"138 622 CURVE SMOOTH",
"39 -3 LINE",
"48 -7 OFFCURVE",
"59 -8 OFFCURVE",
"67 -8 CURVE SMOOTH"
);
}
);
width = 781;
}
);
leftKerningGroup = H;
leftMetricsKey = H;
note = M;
rightKerningGroup = M;
unicode = 004D;
},
{
glyphname = N;
layers = (
{
anchors = (
{
name = bottom;
position = "{299, 0}";
},
{
name = top;
position = "{410, 700}";
}
);
layerId = "DFC648BE-1420-4AB7-B0BF-55F282890848";
paths = (
{
closed = 1;
nodes = (
"104 -8 OFFCURVE",
"128 19 OFFCURVE",
"134 57 CURVE SMOOTH",
"215 570 LINE",
"430 -1 LINE",
"442 -7 OFFCURVE",
"457 -8 OFFCURVE",
"466 -8 CURVE SMOOTH",
"513 -8 OFFCURVE",
"542 22 OFFCURVE",
"551 78 CURVE SMOOTH",
"650 703 LINE",
"641 707 OFFCURVE",
"630 708 OFFCURVE",
"622 708 CURVE SMOOTH",
"585 708 OFFCURVE",
"561 681 OFFCURVE",
"555 643 CURVE SMOOTH",
"474 130 LINE",
"259 701 LINE",
"247 707 OFFCURVE",
"232 708 OFFCURVE",
"223 708 CURVE SMOOTH",
"176 708 OFFCURVE",
"146 678 OFFCURVE",
"138 622 CURVE SMOOTH",
"39 -3 LINE",
"48 -7 OFFCURVE",
"59 -8 OFFCURVE",
"67 -8 CURVE SMOOTH"
);
}
);
width = 659;
}
);
leftKerningGroup = H;
leftMetricsKey = "=|";
note = N;
rightKerningGroup = H;
rightMetricsKey = H;
unicode = 004E;
},
{
glyphname = Eng;
lastChange = "2018-03-12 19:43:52 +0000";
layers = (
{
anchors = (
{
name = bottom;
position = "{299, 0}";
},
{
name = top;
position = "{410, 700}";
}
);
layerId = "DFC648BE-1420-4AB7-B0BF-55F282890848";
paths = (
{
closed = 1;
nodes = (
"447 -262 OFFCURVE",
"507 -201 OFFCURVE",
"522 -106 CURVE SMOOTH",
"650 703 LINE",
"641 707 OFFCURVE",
"630 708 OFFCURVE",
"622 708 CURVE SMOOTH",
"585 708 OFFCURVE",
"561 681 OFFCURVE",
"555 643 CURVE SMOOTH",
"474 130 LINE",
"259 701 LINE",
"247 707 OFFCURVE",
"232 708 OFFCURVE",
"223 708 CURVE SMOOTH",
"176 708 OFFCURVE",
"146 678 OFFCURVE",
"138 622 CURVE SMOOTH",
"39 -3 LINE",
"48 -7 OFFCURVE",
"59 -8 OFFCURVE",
"67 -8 CURVE SMOOTH",
"104 -8 OFFCURVE",
"128 19 OFFCURVE",
"134 57 CURVE SMOOTH",
"215 570 LINE",
"430 -1 LINE",
"437 -5 OFFCURVE",
"445 -6 OFFCURVE",
"453 -7 CURVE",
"437 -106 LINE SMOOTH",
"429 -158 OFFCURVE",
"404 -187 OFFCURVE",
"365 -187 CURVE SMOOTH",
"348 -187 OFFCURVE",
"330 -184 OFFCURVE",
"313 -177 CURVE",
"298 -182 OFFCURVE",
"287 -196 OFFCURVE",
"284 -213 CURVE SMOOTH",
"279 -243 OFFCURVE",
"311 -262 OFFCURVE",
"364 -262 CURVE SMOOTH"
);
}
);
width = 659;
}
);
leftMetricsKey = N;
note = Eng;
rightMetricsKey = N;
unicode = 014A;
},
{
glyphname = O;
layers = (
{
anchors = (
{
name = bottom;
position = "{331, 0}";
},
{
name = center;
position = "{386, 350}";
},
{
name = ogonek;
position = "{408, 10}";
},
{
name = top;
position = "{442, 700}";
},
{
name = topleft;
position = "{91, 700}";
},
{
name = topright;
position = "{638, 510}";
}
);
layerId = "DFC648BE-1420-4AB7-B0BF-55F282890848";
paths = (
{
closed = 1;
nodes = (
"576 -12 OFFCURVE",
"719 191 OFFCURVE",
"719 432 CURVE SMOOTH",
"719 607 OFFCURVE",
"604 714 OFFCURVE",
"431 714 CURVE SMOOTH",
"195 714 OFFCURVE",
"55 511 OFFCURVE",
"55 269 CURVE SMOOTH",
"55 95 OFFCURVE",
"167 -12 OFFCURVE",
"340 -12 CURVE SMOOTH"
);
},
{
closed = 1;
nodes = (
"218 62 OFFCURVE",
"148 145 OFFCURVE",
"148 279 CURVE SMOOTH",
"148 464 OFFCURVE",
"252 640 OFFCURVE",
"431 640 CURVE SMOOTH",
"553 640 OFFCURVE",
"626 558 OFFCURVE",
"626 421 CURVE SMOOTH",
"626 238 OFFCURVE",
"519 62 OFFCURVE",
"340 62 CURVE SMOOTH"
);
}
);
width = 742;
}
);
leftKerningGroup = O;
note = O;
rightKerningGroup = O;
unicode = 004F;
},
{
glyphname = Oslash;
layers = (
{
components = (
{
name = O;
}
);
layerId = "DFC648BE-1420-4AB7-B0BF-55F282890848";
paths = (
{
closed = 1;
nodes = (
"155 -60 LINE",
"701 760 LINE",
"641 760 LINE",
"95 -60 LINE"
);
}
);
width = 742;
}
);
leftMetricsKey = O;
note = Oslash;
rightMetricsKey = O;
unicode = 00D8;
},
{
glyphname = OE;
layers = (
{
anchors = (
{
name = bottom;
position = "{484, 0}";
},
{
name = top;
position = "{595, 700}";
}
);
layerId = "DFC648BE-1420-4AB7-B0BF-55F282890848";
paths = (
{
closed = 1;
nodes = (
"434 -12 OFFCURVE",
"521 28 OFFCURVE",
"584 100 CURVE",
"573 68 OFFCURVE",
"559 46 OFFCURVE",
"534 21 CURVE",
"539 0 LINE",
"920 0 LINE SMOOTH",
"958 0 OFFCURVE",
"986 22 OFFCURVE",
"986 64 CURVE SMOOTH",
"986 68 OFFCURVE",
"986 72 OFFCURVE",
"985 76 CURVE",
"658 76 LINE",
"678 111 OFFCURVE",
"683 139 OFFCURVE",
"689 177 CURVE SMOOTH",
"712 320 LINE",
"923 320 LINE SMOOTH",
"960 320 OFFCURVE",
"989 341 OFFCURVE",
"989 382 CURVE SMOOTH",
"989 387 OFFCURVE",
"989 392 OFFCURVE",
"988 396 CURVE",
"724 396 LINE",
"744 523 LINE SMOOTH",
"747 543 OFFCURVE",
"750 563 OFFCURVE",
"750 582 CURVE SMOOTH",
"750 597 OFFCURVE",
"748 611 OFFCURVE",
"745 624 CURVE",
"1003 624 LINE SMOOTH",
"1040 624 OFFCURVE",
"1069 645 OFFCURVE",
"1069 686 CURVE SMOOTH",
"1069 691 OFFCURVE",
"1069 696 OFFCURVE",
"1068 700 CURVE",
"650 700 LINE",
"639 679 LINE",
"655 655 OFFCURVE",
"662 633 OFFCURVE",
"663 603 CURVE",
"625 671 OFFCURVE",
"552 714 OFFCURVE",
"444 714 CURVE SMOOTH",
"207 714 OFFCURVE",
"55 507 OFFCURVE",
"55 277 CURVE SMOOTH",
"55 91 OFFCURVE",
"155 -12 OFFCURVE",
"327 -12 CURVE SMOOTH"
);
},
{
closed = 1;
nodes = (
"218 62 OFFCURVE",
"148 142 OFFCURVE",
"148 286 CURVE SMOOTH",
"148 461 OFFCURVE",
"252 640 OFFCURVE",
"432 640 CURVE SMOOTH",
"553 640 OFFCURVE",
"626 560 OFFCURVE",
"626 415 CURVE SMOOTH",
"626 240 OFFCURVE",
"519 62 OFFCURVE",
"339 62 CURVE SMOOTH"
);
}
);
width = 1047;
}
);
leftMetricsKey = O;
note = OE;
rightMetricsKey = E;
unicode = 0152;
},
{
glyphname = P;
layers = (
{
anchors = (
{
name = bottom;
position = "{88, 0}";
},
{
name = top;
position = "{342, 700}";
}
);
layerId = "DFC648BE-1420-4AB7-B0BF-55F282890848";
paths = (
{
closed = 1;
nodes = (
"111 -6 OFFCURVE",
"136 20 OFFCURVE",
"142 59 CURVE SMOOTH",
"214 514 LINE SMOOTH",
"218 540 OFFCURVE",
"222 567 OFFCURVE",
"222 593 CURVE SMOOTH",
"222 624 OFFCURVE",
"216 654 OFFCURVE",
"198 677 CURVE",
"180 632 LINE",
"230 632 OFFCURVE",
"272 640 OFFCURVE",
"317 640 CURVE SMOOTH",
"418 640 OFFCURVE",
"464 600 OFFCURVE",
"464 528 CURVE SMOOTH",
"464 419 OFFCURVE",
"393 356 OFFCURVE",
"275 356 CURVE SMOOTH",
"173 356 LINE",
"162 284 LINE",
"266 284 LINE SMOOTH",
"429 284 OFFCURVE",
"555 382 OFFCURVE",
"555 535 CURVE SMOOTH",
"555 646 OFFCURVE",
"469 714 OFFCURVE",
"318 714 CURVE SMOOTH",
"260 714 OFFCURVE",
"193 704 OFFCURVE",
"123 704 CURVE",
"111 683 LINE",
"128 658 OFFCURVE",
"135 634 OFFCURVE",
"135 600 CURVE SMOOTH",
"135 577 OFFCURVE",
"132 549 OFFCURVE",
"126 514 CURVE SMOOTH",
"45 -2 LINE",
"55 -5 OFFCURVE",
"65 -6 OFFCURVE",
"73 -6 CURVE SMOOTH"
);
}
);
width = 541;
}
);
leftKerningGroup = F;
leftMetricsKey = F;
note = P;
rightKerningGroup = P;
unicode = 0050;
},
{
glyphname = Thorn;
layers = (
{
layerId = "DFC648BE-1420-4AB7-B0BF-55F282890848";
paths = (
{
closed = 1;
nodes = (
"282 160 LINE SMOOTH",
"429 160 OFFCURVE",
"531 245 OFFCURVE",
"531 387 CURVE SMOOTH",
"531 487 OFFCURVE",
"461 560 OFFCURVE",
"322 560 CURVE SMOOTH",
"200 560 LINE",
"188 486 LINE",
"322 486 LINE SMOOTH",
"399 486 OFFCURVE",
"440 451 OFFCURVE",
"440 387 CURVE SMOOTH",
"440 295 OFFCURVE",
"381 234 OFFCURVE",
"282 234 CURVE SMOOTH",
"148 234 LINE",
"136 160 LINE"
);
},
{
closed = 1;
nodes = (
"105 -6 OFFCURVE",
"130 20 OFFCURVE",
"136 59 CURVE SMOOTH",
"240 716 LINE",
"230 719 OFFCURVE",
"219 720 OFFCURVE",
"211 720 CURVE SMOOTH",
"173 720 OFFCURVE",
"149 693 OFFCURVE",
"143 655 CURVE SMOOTH",
"39 -2 LINE",
"49 -5 OFFCURVE",
"59 -6 OFFCURVE",
"67 -6 CURVE SMOOTH"
);
}
);
width = 541;
}
);
leftMetricsKey = H;
note = Thorn;
rightMetricsKey = P;
unicode = 00DE;
},
{
glyphname = Q;
layers = (
{
anchors = (
{
name = bottom;
position = "{306, -161}";
},
{
name = top;
position = "{442, 700}";
}
);
layerId = "DFC648BE-1420-4AB7-B0BF-55F282890848";
paths = (
{
closed = 1;
nodes = (
"572 -12 OFFCURVE",
"719 188 OFFCURVE",
"719 429 CURVE SMOOTH",
"719 604 OFFCURVE",
"608 714 OFFCURVE",
"435 714 CURVE SMOOTH",
"199 714 OFFCURVE",
"55 514 OFFCURVE",
"55 272 CURVE SMOOTH",
"55 98 OFFCURVE",
"163 -12 OFFCURVE",
"336 -12 CURVE SMOOTH"
);
},
{
closed = 1;
nodes = (
"218 62 OFFCURVE",
"148 145 OFFCURVE",
"148 279 CURVE SMOOTH",
"148 464 OFFCURVE",
"252 640 OFFCURVE",
"431 640 CURVE SMOOTH",
"553 640 OFFCURVE",
"626 558 OFFCURVE",
"626 421 CURVE SMOOTH",
"626 238 OFFCURVE",
"519 62 OFFCURVE",
"340 62 CURVE SMOOTH"
);
},
{
closed = 1;
nodes = (
"552 -168 OFFCURVE",
"574 -151 OFFCURVE",
"580 -114 CURVE",
"509 -104 OFFCURVE",
"415 -73 OFFCURVE",
"298 12 CURVE",
"140 56 LINE",
"292 -94 OFFCURVE",
"425 -168 OFFCURVE",
"511 -168 CURVE SMOOTH"
);
}
);
width = 743;
}
);
leftKerningGroup = O;
leftMetricsKey = O;
note = Q;
rightKerningGroup = O;
rightMetricsKey = O;
unicode = 0051;
},
{
glyphname = R;
layers = (
{
anchors = (
{
name = bottom;
position = "{249, 0}";
},
{
name = top;
position = "{330, 700}";
}
);
layerId = "DFC648BE-1420-4AB7-B0BF-55F282890848";
paths = (
{
closed = 1;
nodes = (
"111 -6 OFFCURVE",
"136 20 OFFCURVE",
"142 59 CURVE SMOOTH",
"214 514 LINE SMOOTH",
"218 540 OFFCURVE",
"222 567 OFFCURVE",
"222 593 CURVE SMOOTH",
"222 624 OFFCURVE",
"216 654 OFFCURVE",
"198 677 CURVE",
"180 632 LINE",
"228 632 OFFCURVE",
"276 640 OFFCURVE",
"320 640 CURVE SMOOTH",
"419 640 OFFCURVE",
"465 597 OFFCURVE",
"465 531 CURVE SMOOTH",
"465 431 OFFCURVE",
"395 372 OFFCURVE",
"285 372 CURVE SMOOTH",
"176 372 LINE",
"165 300 LINE",
"287 300 LINE SMOOTH",
"442 300 OFFCURVE",
"556 391 OFFCURVE",
"556 535 CURVE SMOOTH",
"556 640 OFFCURVE",
"471 714 OFFCURVE",
"321 714 CURVE SMOOTH",
"264 714 OFFCURVE",
"191 704 OFFCURVE",
"123 704 CURVE",
"111 683 LINE",
"128 658 OFFCURVE",
"135 634 OFFCURVE",
"135 600 CURVE SMOOTH",
"135 577 OFFCURVE",
"132 549 OFFCURVE",
"126 514 CURVE SMOOTH",
"45 -2 LINE",
"55 -5 OFFCURVE",
"65 -6 OFFCURVE",
"73 -6 CURVE SMOOTH"
);
},
{
closed = 1;
nodes = (
"480 -6 OFFCURVE",
"499 -3 OFFCURVE",
"515 3 CURVE",
"517 12 LINE",
"497 29 OFFCURVE",
"490 57 OFFCURVE",
"463 172 CURVE SMOOTH",
"438 282 OFFCURVE",
"418 318 OFFCURVE",
"346 332 CURVE",
"246 321 LINE",
"336 297 OFFCURVE",
"348 261 OFFCURVE",
"375 145 CURVE SMOOTH",
"401 30 OFFCURVE",
"410 -6 OFFCURVE",
"464 -6 CURVE SMOOTH"
);
}
);
width = 577;
}
);
leftKerningGroup = F;
leftMetricsKey = F;
note = R;
rightKerningGroup = R;
unicode = 0052;
},
{
glyphname = S;
layers = (
{
anchors = (
{
name = bottom;
position = "{238, 0}";
},
{
name = top;
position = "{349, 700}";
}
);
layerId = "DFC648BE-1420-4AB7-B0BF-55F282890848";
paths = (
{
closed = 1;
nodes = (
"406 -12 OFFCURVE",
"508 59 OFFCURVE",
"508 215 CURVE SMOOTH",
"508 316 OFFCURVE",
"428 358 OFFCURVE",
"316 402 CURVE SMOOTH",
"245 430 OFFCURVE",
"187 454 OFFCURVE",
"187 519 CURVE SMOOTH",
"187 595 OFFCURVE",
"245 640 OFFCURVE",
"334 640 CURVE SMOOTH",
"430 640 OFFCURVE",
"478 594 OFFCURVE",
"507 533 CURVE",
"550 545 OFFCURVE",
"553 581 OFFCURVE",
"553 598 CURVE SMOOTH",
"553 662 OFFCURVE",
"464 714 OFFCURVE",
"341 714 CURVE SMOOTH",
"195 714 OFFCURVE",
"103 644 OFFCURVE",
"103 503 CURVE SMOOTH",
"103 407 OFFCURVE",
"177 359 OFFCURVE",
"277 322 CURVE SMOOTH",
"368 288 OFFCURVE",
"423 266 OFFCURVE",
"423 201 CURVE SMOOTH",
"423 113 OFFCURVE",
"352 62 OFFCURVE",
"250 62 CURVE SMOOTH",
"147 62 OFFCURVE",
"91 109 OFFCURVE",
"62 169 CURVE",
"20 157 OFFCURVE",
"16 121 OFFCURVE",
"16 106 CURVE SMOOTH",
"16 40 OFFCURVE",
"115 -12 OFFCURVE",
"245 -12 CURVE SMOOTH"
);
}
);
width = 556;
}
);
leftKerningGroup = S;
note = S;
rightKerningGroup = S;
unicode = 0053;
},
{
glyphname = Germandbls;
layers = (
{
layerId = "DFC648BE-1420-4AB7-B0BF-55F282890848";
paths = (
{
closed = 1;
nodes = (
"504 -10 OFFCURVE",
"614 85 OFFCURVE",
"614 232 CURVE SMOOTH",
"614 324 OFFCURVE",
"554 391 OFFCURVE",
"422 403 CURVE",
"612 541 LINE",
"588 650 OFFCURVE",
"532 714 OFFCURVE",
"393 714 CURVE SMOOTH",
"225 714 OFFCURVE",
"135 621 OFFCURVE",
"112 474 CURVE SMOOTH",
"37 -2 LINE",
"47 -5 OFFCURVE",
"57 -6 OFFCURVE",
"65 -6 CURVE SMOOTH",
"103 -6 OFFCURVE",
"128 20 OFFCURVE",
"134 59 CURVE SMOOTH",
"202 489 LINE SMOOTH",
"220 599 OFFCURVE",
"282 640 OFFCURVE",
"380 640 CURVE SMOOTH",
"466 640 OFFCURVE",
"509 608 OFFCURVE",
"518 549 CURVE",
"312 399 LINE",
"302 332 LINE",
"364 332 LINE SMOOTH",
"466 332 OFFCURVE",
"521 294 OFFCURVE",
"521 226 CURVE SMOOTH",
"521 144 OFFCURVE",
"452 56 OFFCURVE",
"346 56 CURVE SMOOTH",
"288 56 OFFCURVE",
"239 85 OFFCURVE",
"226 131 CURVE",
"201 118 OFFCURVE",
"194 89 OFFCURVE",
"194 71 CURVE SMOOTH",
"194 11 OFFCURVE",
"269 -10 OFFCURVE",
"344 -10 CURVE SMOOTH"
);
}
);
width = 662;
}
);
note = uni1E9E;
rightMetricsKey = B;
unicode = 1E9E;
},
{
glyphname = Schwa;
layers = (
{
layerId = "DFC648BE-1420-4AB7-B0BF-55F282890848";
paths = (
{
closed = 1;
nodes = (
"506 -12 OFFCURVE",
"632 209 OFFCURVE",
"632 423 CURVE SMOOTH",
"632 617 OFFCURVE",
"529 711 OFFCURVE",
"370 711 CURVE SMOOTH",
"230 711 OFFCURVE",
"109 639 OFFCURVE",
"108 564 CURVE SMOOTH",
"108 546 OFFCURVE",
"115 530 OFFCURVE",
"139 520 CURVE",
"187 583 OFFCURVE",
"272 632 OFFCURVE",
"362 632 CURVE SMOOTH",
"476 632 OFFCURVE",
"538 552 OFFCURVE",
"538 436 CURVE SMOOTH",
"538 415 OFFCURVE",
"536 396 OFFCURVE",
"533 376 CURVE",
"62 376 LINE",
"44 338 OFFCURVE",
"37 287 OFFCURVE",
"37 242 CURVE SMOOTH",
"37 81 OFFCURVE",
"126 -12 OFFCURVE",
"276 -12 CURVE SMOOTH"
);
},
{
closed = 1;
nodes = (
"173 62 OFFCURVE",
"128 132 OFFCURVE",
"128 241 CURVE SMOOTH",
"128 257 OFFCURVE",
"129 278 OFFCURVE",
"132 299 CURVE",
"519 300 LINE",
"478 160 OFFCURVE",
"397 62 OFFCURVE",
"276 62 CURVE SMOOTH"
);
}
);
width = 645;
}
);
note = uni018F;
unicode = 018F;
},
{
glyphname = T;
layers = (
{
anchors = (
{
name = bottom;
position = "{218, 10}";
},
{
name = center;
position = "{271, 350}";
},
{
name = top;
position = "{327, 700}";
}
);
layerId = "DFC648BE-1420-4AB7-B0BF-55F282890848";
paths = (
{
closed = 1;
nodes = (
"238 -6 OFFCURVE",
"263 20 OFFCURVE",
"269 59 CURVE SMOOTH",
"361 640 LINE",
"273 640 LINE",
"172 -2 LINE",
"182 -5 OFFCURVE",
"192 -6 OFFCURVE",
"200 -6 CURVE SMOOTH"
);
},
{
closed = 1;
nodes = (
"492 624 LINE SMOOTH",
"525 624 OFFCURVE",
"552 641 OFFCURVE",
"557 674 CURVE SMOOTH",
"558 681 OFFCURVE",
"558 691 OFFCURVE",
"557 700 CURVE",
"150 700 LINE SMOOTH",
"117 700 OFFCURVE",
"90 683 OFFCURVE",
"85 650 CURVE SMOOTH",
"84 643 OFFCURVE",
"83 633 OFFCURVE",
"85 624 CURVE"
);
}
);
width = 512;
}
);
leftKerningGroup = T;
note = T;
rightKerningGroup = T;
unicode = 0054;
},
{
glyphname = Tbar;
layers = (
{
components = (
{
name = T;
}
);
layerId = "DFC648BE-1420-4AB7-B0BF-55F282890848";
paths = (
{
closed = 1;
nodes = (
"456 319 LINE",
"462 369 LINE",
"86 369 LINE",
"80 319 LINE"
);
}
);
width = 566;
}
);
leftKerningGroup = T;
note = Tbar;
rightKerningGroup = T;
unicode = 0166;
},
{
glyphname = U;
layers = (
{
anchors = (
{
name = bottom;
position = "{277, 0}";
},
{
name = ogonek;
position = "{309, 10}";
},
{
name = top;
position = "{388, 700}";
},
{
name = topright;
position = "{602, 510}";
}
);
layerId = "DFC648BE-1420-4AB7-B0BF-55F282890848";
paths = (
{
closed = 1;
nodes = (
"424 -12 OFFCURVE",
"536 95 OFFCURVE",
"563 264 CURVE SMOOTH",
"633 706 LINE",
"622 709 OFFCURVE",
"611 710 OFFCURVE",
"603 710 CURVE SMOOTH",
"565 710 OFFCURVE",
"541 683 OFFCURVE",
"535 645 CURVE SMOOTH",
"477 280 LINE SMOOTH",
"455 141 OFFCURVE",
"387 64 OFFCURVE",
"287 64 CURVE SMOOTH",
"204 64 OFFCURVE",
"159 117 OFFCURVE",
"159 215 CURVE SMOOTH",
"159 235 OFFCURVE",
"161 257 OFFCURVE",
"165 280 CURVE SMOOTH",
"233 706 LINE",
"222 709 OFFCURVE",
"211 710 OFFCURVE",
"203 710 CURVE SMOOTH",
"165 710 OFFCURVE",
"141 683 OFFCURVE",
"135 645 CURVE SMOOTH",
"75 264 LINE SMOOTH",
"71 242 OFFCURVE",
"70 221 OFFCURVE",
"70 201 CURVE SMOOTH",
"70 69 OFFCURVE",
"146 -12 OFFCURVE",
"275 -12 CURVE SMOOTH"
);
}
);
width = 635;
}
);
leftKerningGroup = U;
leftMetricsKey = "=|";
note = U;
rightKerningGroup = U;
unicode = 0055;
},
{
glyphname = V;
layers = (
{
anchors = (
{
name = bottom;
position = "{246, 0}";
},
{
name = top;
position = "{357, 700}";
}
);
layerId = "DFC648BE-1420-4AB7-B0BF-55F282890848";
paths = (
{
closed = 1;
nodes = (
"263 0 LINE",
"620 698 LINE",
"607 704 OFFCURVE",
"591 706 OFFCURVE",
"581 706 CURVE SMOOTH",
"552 706 OFFCURVE",
"532 691 OFFCURVE",
"515 658 CURVE SMOOTH",
"260 159 LINE",
"153 708 LINE",
"108 708 OFFCURVE",
"78 675 OFFCURVE",
"86 630 CURVE SMOOTH",
"207 0 LINE"
);
}
);
width = 571;
}
);
leftKerningGroup = V;
note = V;
rightKerningGroup = V;
unicode = 0056;
},
{
glyphname = W;
layers = (
{
anchors = (
{
name = bottom;
position = "{378, 0}";
},
{
name = top;
position = "{489, 700}";
}
);
layerId = "DFC648BE-1420-4AB7-B0BF-55F282890848";
paths = (
{
closed = 1;
nodes = (
"211 0 LINE",
"461 574 LINE",
"526 0 LINE",
"582 0 LINE",
"883 698 LINE",
"870 704 OFFCURVE",
"854 706 OFFCURVE",
"844 706 CURVE SMOOTH",
"815 706 OFFCURVE",
"797 690 OFFCURVE",
"783 656 CURVE SMOOTH",
"579 184 LINE",
"528 700 LINE",
"518 704 OFFCURVE",
"507 706 OFFCURVE",
"497 706 CURVE SMOOTH",
"464 706 OFFCURVE",
"429 689 OFFCURVE",
"410 644 CURVE SMOOTH",
"216 184 LINE",
"157 708 LINE",
"102 708 OFFCURVE",
"79 676 OFFCURVE",
"88 603 CURVE SMOOTH",
"155 0 LINE"
);
}
);
width = 836;
}
);
leftKerningGroup = V;
note = W;
rightKerningGroup = V;
unicode = 0057;
},
{
glyphname = X;
layers = (
{
anchors = (
{
name = bottom;
position = "{254, 0}";
},
{
name = top;
position = "{365, 700}";
}
);
layerId = "DFC648BE-1420-4AB7-B0BF-55F282890848";
paths = (
{
closed = 1;
nodes = (
"74 -6 OFFCURVE",
"94 13 OFFCURVE",
"122 51 CURVE SMOOTH",
"606 699 LINE",
"590 706 OFFCURVE",
"571 708 OFFCURVE",
"561 708 CURVE SMOOTH",
"532 708 OFFCURVE",
"511 691 OFFCURVE",
"482 652 CURVE SMOOTH",
"-4 3 LINE",
"7 -2 OFFCURVE",
"25 -6 OFFCURVE",
"40 -6 CURVE SMOOTH"
);
},
{
closed = 1;
nodes = (
"491 -6 OFFCURVE",
"517 14 OFFCURVE",
"517 46 CURVE SMOOTH",
"517 57 OFFCURVE",
"514 69 OFFCURVE",
"507 83 CURVE SMOOTH",
"193 708 LINE",
"153 708 OFFCURVE",
"128 689 OFFCURVE",
"128 660 CURVE SMOOTH",
"128 650 OFFCURVE",
"130 640 OFFCURVE",
"136 629 CURVE SMOOTH",
"453 -6 LINE"
);
}
);
width = 587;
}
);
leftKerningGroup = X;
note = X;
rightKerningGroup = X;
unicode = 0058;
},
{
glyphname = Y;
layers = (
{
anchors = (
{
name = bottom;
position = "{211, 0}";
},
{
name = top;
position = "{327, 700}";
},
{
name = topleft;
position = "{71, 700}";
}
);
layerId = "DFC648BE-1420-4AB7-B0BF-55F282890848";
paths = (
{
closed = 1;
nodes = (
"233 -6 OFFCURVE",
"258 20 OFFCURVE",
"264 59 CURVE SMOOTH",
"301 288 LINE",
"575 695 LINE",
"561 705 OFFCURVE",
"546 708 OFFCURVE",
"532 708 CURVE SMOOTH",
"504 708 OFFCURVE",
"481 694 OFFCURVE",
"452 650 CURVE SMOOTH",
"270 371 LINE",
"149 706 LINE",
"103 706 OFFCURVE",
"78 690 OFFCURVE",
"78 656 CURVE SMOOTH",
"78 644 OFFCURVE",
"81 631 OFFCURVE",
"87 615 CURVE SMOOTH",
"213 288 LINE",
"167 -2 LINE",
"177 -5 OFFCURVE",
"187 -6 OFFCURVE",
"195 -6 CURVE SMOOTH"
);
}
);
width = 519;
}
);
leftKerningGroup = Y;
note = Y;
rightKerningGroup = Y;
unicode = 0059;
},
{
glyphname = Z;
layers = (
{
anchors = (
{
name = bottom;
position = "{222, 0}";
},
{
name = top;
position = "{333, 700}";
}
);
layerId = "DFC648BE-1420-4AB7-B0BF-55F282890848";
paths = (
{
closed = 1;
nodes = (
"395 0 LINE SMOOTH",
"428 0 OFFCURVE",
"455 17 OFFCURVE",
"460 50 CURVE SMOOTH",
"461 57 OFFCURVE",
"462 67 OFFCURVE",
"460 76 CURVE",
"108 76 LINE",
"550 668 LINE",
"555 700 LINE",
"162 700 LINE SMOOTH",
"129 700 OFFCURVE",
"102 683 OFFCURVE",
"97 650 CURVE SMOOTH",
"96 643 OFFCURVE",
"95 633 OFFCURVE",
"97 624 CURVE",
"425 624 LINE",
"-17 32 LINE",
"-22 0 LINE"
);
}
);
width = 514;
}
);
leftKerningGroup = Z;
note = Z;
rightKerningGroup = Z;
unicode = 005A;
},
{
glyphname = a;
layers = (
{
anchors = (
{
name = bottom;
position = "{193, 0}";
},
{
name = ogonek;
position = "{345, 13}";
},
{
name = top;
position = "{274, 510}";
}
);
layerId = "DFC648BE-1420-4AB7-B0BF-55F282890848";
paths = (
{
closed = 1;
nodes = (
"233 -12 OFFCURVE",
"276 8 OFFCURVE",
"312 50 CURVE",
"304 -2 LINE",
"314 -5 OFFCURVE",
"323 -6 OFFCURVE",
"330 -6 CURVE SMOOTH",
"366 -6 OFFCURVE",
"389 19 OFFCURVE",
"395 55 CURVE SMOOTH",
"438 330 LINE SMOOTH",
"440 345 OFFCURVE",
"442 359 OFFCURVE",
"442 373 CURVE SMOOTH",
"442 465 OFFCURVE",
"380 521 OFFCURVE",
"267 521 CURVE SMOOTH",
"179 521 OFFCURVE",
"81 487 OFFCURVE",
"81 417 CURVE SMOOTH",
"81 404 OFFCURVE",
"87 389 OFFCURVE",
"107 381 CURVE",
"150 428 OFFCURVE",
"197 455 OFFCURVE",
"257 455 CURVE SMOOTH",
"325 455 OFFCURVE",
"361 421 OFFCURVE",
"361 360 CURVE SMOOTH",
"361 351 OFFCURVE",
"360 341 OFFCURVE",
"358 330 CURVE SMOOTH",
"351 282 LINE",
"326 299 OFFCURVE",
"297 313 OFFCURVE",
"245 313 CURVE SMOOTH",
"122 313 OFFCURVE",
"27 244 OFFCURVE",
"27 125 CURVE SMOOTH",
"27 46 OFFCURVE",
"80 -12 OFFCURVE",
"173 -12 CURVE SMOOTH"
);
},
{
closed = 1;
nodes = (
"140 52 OFFCURVE",
"109 77 OFFCURVE",
"109 125 CURVE SMOOTH",
"109 199 OFFCURVE",
"161 251 OFFCURVE",
"246 251 CURVE SMOOTH",
"304 251 OFFCURVE",
"342 225 OFFCURVE",
"334 177 CURVE SMOOTH",
"330 152 LINE SMOOTH",
"320 90 OFFCURVE",
"265 52 OFFCURVE",
"196 52 CURVE SMOOTH"
);
}
);
width = 486;
}
);
leftKerningGroup = a;
note = a;
rightKerningGroup = n;
rightMetricsKey = n;
unicode = 0061;
},
{
glyphname = "alpha-latin";
layers = (
{
layerId = "DFC648BE-1420-4AB7-B0BF-55F282890848";
paths = (
{
closed = 1;
nodes = (
"291 -11 OFFCURVE",
"349 18 OFFCURVE",
"388 77 CURVE",
"376 -6 LINE",
"387 -9 OFFCURVE",
"396 -10 OFFCURVE",
"404 -10 CURVE",
"442 -10 OFFCURVE",
"457 16 OFFCURVE",
"463 55 CURVE SMOOTH",
"501 306 LINE SMOOTH",
"520 435 OFFCURVE",
"446 522 OFFCURVE",
"313 522 CURVE SMOOTH",
"133 522 OFFCURVE",
"30 361 OFFCURVE",
"30 196 CURVE SMOOTH",
"30 53 OFFCURVE",
"108 -11 OFFCURVE",
"217 -11 CURVE SMOOTH"
);
},
{
closed = 1;
nodes = (
"154 59 OFFCURVE",
"113 97 OFFCURVE",
"113 194 CURVE SMOOTH",
"113 317 OFFCURVE",
"179 451 OFFCURVE",
"308 451 CURVE SMOOTH",
"392 451 OFFCURVE",
"438 394 OFFCURVE",
"423 307 CURVE SMOOTH",
"414 255 LINE SMOOTH",
"392 126 OFFCURVE",
"325 59 OFFCURVE",
"227 59 CURVE SMOOTH"
);
}
);
width = 572;
}
);
leftKerningGroup = a;
note = ascript;
rightKerningGroup = a;
unicode = 0251;
},
{
glyphname = ae;
layers = (
{
anchors = (
{
name = bottom;
position = "{349, 0}";
},
{
name = top;
position = "{432, 510}";
}
);
layerId = "DFC648BE-1420-4AB7-B0BF-55F282890848";
paths = (
{
closed = 1;
nodes = (
"265 -12 OFFCURVE",
"337 25 OFFCURVE",
"372 89 CURVE",
"396 24 OFFCURVE",
"454 -12 OFFCURVE",
"538 -12 CURVE SMOOTH",
"619 -12 OFFCURVE",
"729 32 OFFCURVE",
"729 99 CURVE SMOOTH",
"729 112 OFFCURVE",
"724 127 OFFCURVE",
"705 134 CURVE",
"667 87 OFFCURVE",
"606 54 OFFCURVE",
"538 54 CURVE SMOOTH",
"459 54 OFFCURVE",
"413 104 OFFCURVE",
"413 187 CURVE SMOOTH",
"413 199 OFFCURVE",
"414 213 OFFCURVE",
"416 227 CURVE",
"761 227 LINE",
"775 259 OFFCURVE",
"781 295 OFFCURVE",
"781 339 CURVE SMOOTH",
"781 453 OFFCURVE",
"720 522 OFFCURVE",
"608 522 CURVE SMOOTH",
"526 522 OFFCURVE",
"457 485 OFFCURVE",
"418 420 CURVE",
"400 484 OFFCURVE",
"346 521 OFFCURVE",
"267 521 CURVE SMOOTH",
"179 521 OFFCURVE",
"81 487 OFFCURVE",
"81 417 CURVE SMOOTH",
"81 404 OFFCURVE",
"87 389 OFFCURVE",
"107 381 CURVE",
"150 428 OFFCURVE",
"197 455 OFFCURVE",
"257 455 CURVE SMOOTH",
"336 455 OFFCURVE",
"369 409 OFFCURVE",
"358 330 CURVE SMOOTH",
"351 282 LINE",
"326 299 OFFCURVE",
"297 313 OFFCURVE",
"245 313 CURVE SMOOTH",
"122 313 OFFCURVE",
"27 243 OFFCURVE",
"27 124 CURVE SMOOTH",
"27 45 OFFCURVE",
"87 -12 OFFCURVE",
"180 -12 CURVE SMOOTH"
);
},
{
closed = 1;
nodes = (
"140 52 OFFCURVE",
"109 77 OFFCURVE",
"109 125 CURVE SMOOTH",
"109 199 OFFCURVE",
"161 251 OFFCURVE",
"246 251 CURVE SMOOTH",
"304 251 OFFCURVE",
"342 225 OFFCURVE",
"334 177 CURVE SMOOTH",
"330 152 LINE SMOOTH",
"320 90 OFFCURVE",
"265 52 OFFCURVE",
"196 52 CURVE SMOOTH"
);
},
{
closed = 1;
nodes = (
"460 397 OFFCURVE",
"522 458 OFFCURVE",
"608 458 CURVE SMOOTH",
"679 458 OFFCURVE",
"708 416 OFFCURVE",
"708 341 CURVE SMOOTH",
"708 327 OFFCURVE",
"707 311 OFFCURVE",
"705 294 CURVE",
"429 294 LINE"
);
}
);
width = 806;
}
);
leftMetricsKey = a;
note = ae;
rightMetricsKey = e;
unicode = 00E6;
},
{
glyphname = b;
layers = (
{
anchors = (
{
name = bottom;
position = "{237, 0}";
},
{
name = top;
position = "{200, 720}";
}
);
layerId = "DFC648BE-1420-4AB7-B0BF-55F282890848";
paths = (
{
closed = 1;
nodes = (
"414 -12 OFFCURVE",
"525 141 OFFCURVE",
"525 326 CURVE SMOOTH",
"525 444 OFFCURVE",
"460 522 OFFCURVE",
"356 522 CURVE SMOOTH",
"281 522 OFFCURVE",
"233 484 OFFCURVE",
"191 435 CURVE",
"236 722 LINE",
"227 725 OFFCURVE",
"217 726 OFFCURVE",
"210 726 CURVE SMOOTH",
"174 726 OFFCURVE",
"151 701 OFFCURVE",
"145 665 CURVE SMOOTH",
"76 226 LINE SMOOTH",
"63 147 OFFCURVE",
"45 97 OFFCURVE",
"8 50 CURVE",
"11 28 LINE",
"96 28 OFFCURVE",
"149 -12 OFFCURVE",
"238 -12 CURVE SMOOTH"
);
},
{
closed = 1;
nodes = (
"177 54 OFFCURVE",
"152 84 OFFCURVE",
"86 84 CURVE",
"91 41 LINE",
"139 105 OFFCURVE",
"148 153 OFFCURVE",
"162 237 CURVE SMOOTH",
"167 273 LINE SMOOTH",
"186 393 OFFCURVE",
"252 456 OFFCURVE",
"334 456 CURVE SMOOTH",
"404 456 OFFCURVE",
"442 411 OFFCURVE",
"442 327 CURVE SMOOTH",
"442 191 OFFCURVE",
"372 54 OFFCURVE",
"240 54 CURVE SMOOTH"
);
}
);
width = 554;
}
);
leftKerningGroup = b;
note = b;
rightKerningGroup = o;
rightMetricsKey = o;
unicode = 0062;
},
{
glyphname = c;
layers = (
{
anchors = (
{
name = bottom;
position = "{229, 0}";
},
{
name = top;
position = "{310, 510}";
}
);
layerId = "DFC648BE-1420-4AB7-B0BF-55F282890848";
paths = (
{
closed = 1;
nodes = (
"341 -12 OFFCURVE",
"431 42 OFFCURVE",
"431 107 CURVE SMOOTH",
"431 120 OFFCURVE",
"426 134 OFFCURVE",
"406 140 CURVE",
"365 89 OFFCURVE",
"304 60 OFFCURVE",
"239 60 CURVE SMOOTH",
"152 60 OFFCURVE",
"115 112 OFFCURVE",
"115 197 CURVE SMOOTH",
"115 330 OFFCURVE",
"174 450 OFFCURVE",
"300 450 CURVE SMOOTH",
"365 450 OFFCURVE",
"418 421 OFFCURVE",
"443 370 CURVE",
"477 380 OFFCURVE",
"481 409 OFFCURVE",
"481 423 CURVE SMOOTH",
"481 479 OFFCURVE",
"394 522 OFFCURVE",
"302 522 CURVE SMOOTH",
"129 522 OFFCURVE",
"31 371 OFFCURVE",
"31 194 CURVE SMOOTH",
"31 67 OFFCURVE",
"112 -12 OFFCURVE",
"237 -12 CURVE SMOOTH"
);
}
);
width = 491;
}
);
leftKerningGroup = o;
leftMetricsKey = o;
note = c;
rightKerningGroup = c;
unicode = 0063;
},
{
glyphname = d;
lastChange = "2018-03-12 19:43:52 +0000";
layers = (
{
anchors = (
{
name = bottom;
position = "{234, 0}";
},
{
name = center;
position = "{274, 255}";
},
{
name = top;
position = "{511, 720}";
},
{
name = topright;
position = "{509, 510}";
}
);
layerId = "DFC648BE-1420-4AB7-B0BF-55F282890848";
paths = (
{
closed = 1;
nodes = (
"271 -13 OFFCURVE",
"324 20 OFFCURVE",
"365 76 CURVE",
"353 -2 LINE",
"363 -5 OFFCURVE",
"372 -6 OFFCURVE",
"379 -6 CURVE SMOOTH",
"415 -6 OFFCURVE",
"438 19 OFFCURVE",
"444 55 CURVE SMOOTH",
"549 722 LINE",
"540 725 OFFCURVE",
"530 726 OFFCURVE",
"523 726 CURVE SMOOTH",
"487 726 OFFCURVE",
"464 701 OFFCURVE",
"458 665 CURVE SMOOTH",
"427 470 LINE",
"400 499 OFFCURVE",
"360 521 OFFCURVE",
"298 521 CURVE SMOOTH",
"130 521 OFFCURVE",
"29 363 OFFCURVE",
"29 183 CURVE SMOOTH",
"29 64 OFFCURVE",
"94 -13 OFFCURVE",
"200 -13 CURVE SMOOTH"
);
},
{
closed = 1;
nodes = (
"148 53 OFFCURVE",
"112 98 OFFCURVE",
"112 183 CURVE SMOOTH",
"112 315 OFFCURVE",
"175 455 OFFCURVE",
"301 455 CURVE SMOOTH",
"386 455 OFFCURVE",
"416 396 OFFCURVE",
"403 306 CURVE SMOOTH",
"395 254 LINE SMOOTH",
"375 128 OFFCURVE",
"301 53 OFFCURVE",
"215 53 CURVE SMOOTH"
);
}
);
width = 549;
}
);
leftKerningGroup = o;
leftMetricsKey = o;
note = d;
rightKerningGroup = u;
rightMetricsKey = u;
unicode = 0064;
},
{
glyphname = eth;
layers = (
{
layerId = "DFC648BE-1420-4AB7-B0BF-55F282890848";
paths = (
{
closed = 1;
nodes = (
"357 -13 OFFCURVE",
"453 97 OFFCURVE",
"485 295 CURVE SMOOTH",
"499 384 LINE SMOOTH",
"505 423 OFFCURVE",
"508 459 OFFCURVE",
"508 492 CURVE SMOOTH",
"508 626 OFFCURVE",
"454 711 OFFCURVE",
"321 711 CURVE SMOOTH",
"247 711 OFFCURVE",
"216 686 OFFCURVE",
"216 658 CURVE SMOOTH",
"216 647 OFFCURVE",
"221 639 OFFCURVE",
"230 636 CURVE",
"248 642 OFFCURVE",
"265 645 OFFCURVE",
"288 645 CURVE SMOOTH",
"389 645 OFFCURVE",
"430 588 OFFCURVE",
"430 503 CURVE SMOOTH",
"430 487 OFFCURVE",
"428 469 OFFCURVE",
"425 450 CURVE",
"398 479 OFFCURVE",
"358 501 OFFCURVE",
"296 501 CURVE SMOOTH",
"134 501 OFFCURVE",
"28 349 OFFCURVE",
"28 181 CURVE SMOOTH",
"28 64 OFFCURVE",
"97 -13 OFFCURVE",
"210 -13 CURVE SMOOTH"
);
},
{
closed = 1;
nodes = (
"148 53 OFFCURVE",
"112 99 OFFCURVE",
"112 179 CURVE SMOOTH",
"112 305 OFFCURVE",
"177 435 OFFCURVE",
"299 435 CURVE SMOOTH",
"393 435 OFFCURVE",
"415 389 OFFCURVE",
"403 296 CURVE SMOOTH",
"395 244 LINE SMOOTH",
"376 128 OFFCURVE",
"302 53 OFFCURVE",
"216 53 CURVE SMOOTH"
);
},
{
closed = 1;
nodes = (
"571 615 LINE",
"579 665 LINE",
"335 585 LINE",
"327 535 LINE"
);
}
);
width = 552;
}
);
leftMetricsKey = d;
note = eth;
unicode = 00F0;
},
{
glyphname = dcroat;
layers = (
{
components = (
{
name = d;
}
);
layerId = "DFC648BE-1420-4AB7-B0BF-55F282890848";
paths = (
{
closed = 1;
nodes = (
"607 600 LINE",
"615 650 LINE",
"323 650 LINE",
"315 600 LINE"
);
}
);
width = 592;
}
);
note = dslash;
unicode = 0111;
},
{
glyphname = e;
layers = (
{
anchors = (
{
name = bottom;
position = "{226, 0}";
},
{
name = ogonek;
position = "{377, 53}";
},
{
name = top;
position = "{309, 510}";
}
);
layerId = "DFC648BE-1420-4AB7-B0BF-55F282890848";
paths = (
{
closed = 1;
nodes = (
"317 -12 OFFCURVE",
"426 33 OFFCURVE",
"426 99 CURVE SMOOTH",
"426 112 OFFCURVE",
"421 127 OFFCURVE",
"402 134 CURVE",
"364 87 OFFCURVE",
"303 54 OFFCURVE",
"235 54 CURVE SMOOTH",
"156 54 OFFCURVE",
"110 104 OFFCURVE",
"110 187 CURVE SMOOTH",
"110 199 OFFCURVE",
"111 213 OFFCURVE",
"113 227 CURVE",
"466 227 LINE",
"480 259 OFFCURVE",
"486 297 OFFCURVE",
"486 334 CURVE SMOOTH",
"486 451 OFFCURVE",
"416 522 OFFCURVE",
"302 522 CURVE SMOOTH",
"133 522 OFFCURVE",
"30 365 OFFCURVE",
"30 192 CURVE SMOOTH",
"30 65 OFFCURVE",
"115 -12 OFFCURVE",
"236 -12 CURVE SMOOTH"
);
},
{
closed = 1;
nodes = (
"157 397 OFFCURVE",
"219 458 OFFCURVE",
"305 458 CURVE SMOOTH",
"376 458 OFFCURVE",
"405 416 OFFCURVE",
"405 341 CURVE SMOOTH",
"405 327 OFFCURVE",
"404 311 OFFCURVE",
"402 294 CURVE",
"124 286 LINE"
);
}
);
width = 511;
}
);
leftKerningGroup = o;
leftMetricsKey = o;
note = e;
rightKerningGroup = e;
unicode = 0065;
},
{
glyphname = f;
layers = (
{
anchors = (
{
name = bottom;
position = "{100, 0}";
},
{
name = top;
position = "{310, 730}";
}
);
layerId = "DFC648BE-1420-4AB7-B0BF-55F282890848";
paths = (
{
closed = 1;
nodes = (
"120 -6 OFFCURVE",
"143 19 OFFCURVE",
"149 55 CURVE SMOOTH",
"231 574 LINE SMOOTH",
"239 626 OFFCURVE",
"262 655 OFFCURVE",
"308 655 CURVE SMOOTH",
"323 655 OFFCURVE",
"338 652 OFFCURVE",
"355 645 CURVE",
"370 651 OFFCURVE",
"381 664 OFFCURVE",
"384 680 CURVE SMOOTH",
"389 712 OFFCURVE",
"357 730 OFFCURVE",
"310 730 CURVE SMOOTH",
"223 730 OFFCURVE",
"164 669 OFFCURVE",
"149 574 CURVE SMOOTH",
"58 -2 LINE",
"67 -5 OFFCURVE",
"77 -6 OFFCURVE",
"85 -6 CURVE SMOOTH"
);
},
{
closed = 1;
nodes = (
"292 446 LINE SMOOTH",
"320 446 OFFCURVE",
"341 461 OFFCURVE",
"345 488 CURVE SMOOTH",
"346 495 OFFCURVE",
"347 502 OFFCURVE",
"344 510 CURVE",
"98 510 LINE SMOOTH",
"70 510 OFFCURVE",
"48 495 OFFCURVE",
"44 468 CURVE SMOOTH",
"43 461 OFFCURVE",
"43 454 OFFCURVE",
"46 446 CURVE"
);
}
);
width = 324;
}
);
leftKerningGroup = f;
note = f;
rightKerningGroup = f;
unicode = 0066;
},
{
glyphname = g;
layers = (
{
anchors = (
{
name = bottom;
position = "{187, -160}";
},
{
name = top;
position = "{317, 510}";
}
);
layerId = "DFC648BE-1420-4AB7-B0BF-55F282890848";
paths = (
{
closed = 1;
nodes = (
"320 -168 OFFCURVE",
"420 -79 OFFCURVE",
"443 62 CURVE SMOOTH",
"478 284 LINE SMOOTH",
"490 363 OFFCURVE",
"508 413 OFFCURVE",
"546 460 CURVE",
"542 482 LINE",
"457 482 OFFCURVE",
"402 522 OFFCURVE",
"313 522 CURVE SMOOTH",
"148 522 OFFCURVE",
"33 381 OFFCURVE",
"33 212 CURVE SMOOTH",
"33 103 OFFCURVE",
"102 28 OFFCURVE",
"207 28 CURVE SMOOTH",
"282 28 OFFCURVE",
"331 63 OFFCURVE",
"369 115 CURVE",
"361 64 LINE SMOOTH",
"345 -41 OFFCURVE",
"269 -100 OFFCURVE",
"184 -100 CURVE SMOOTH",
"118 -100 OFFCURVE",
"67 -64 OFFCURVE",
"41 -20 CURVE",
"12 -28 OFFCURVE",
"0 -52 OFFCURVE",
"0 -75 CURVE SMOOTH",
"0 -135 OFFCURVE",
"100 -168 OFFCURVE",
"183 -168 CURVE SMOOTH"
);
},
{
closed = 1;
nodes = (
"155 94 OFFCURVE",
"116 136 OFFCURVE",
"116 215 CURVE SMOOTH",
"116 342 OFFCURVE",
"187 456 OFFCURVE",
"314 456 CURVE SMOOTH",
"377 456 OFFCURVE",
"401 426 OFFCURVE",
"467 426 CURVE",
"462 469 LINE",
"416 411 OFFCURVE",
"407 368 OFFCURVE",
"395 292 CURVE SMOOTH",
"392 272 LINE SMOOTH",
"374 155 OFFCURVE",
"311 94 OFFCURVE",
"226 94 CURVE SMOOTH"
);
}
);
width = 553;
}
);
leftKerningGroup = o;
leftMetricsKey = o;
note = g;
rightKerningGroup = g;
rightMetricsKey = q;
unicode = 0067;
},
{
glyphname = h;
layers = (
{
anchors = (
{
name = bottom;
position = "{225, 0}";
},
{
name = center;
position = "{271, 255}";
},
{
name = top;
position = "{302, 720}";
}
);
layerId = "DFC648BE-1420-4AB7-B0BF-55F282890848";
paths = (
{
closed = 1;
nodes = (
"96 -6 OFFCURVE",
"119 19 OFFCURVE",
"125 55 CURVE SMOOTH",
"153 236 LINE SMOOTH",
"179 396 OFFCURVE",
"234 454 OFFCURVE",
"312 454 CURVE SMOOTH",
"380 454 OFFCURVE",
"413 410 OFFCURVE",
"402 339 CURVE SMOOTH",
"348 -2 LINE",
"357 -5 OFFCURVE",
"367 -6 OFFCURVE",
"374 -6 CURVE SMOOTH",
"410 -6 OFFCURVE",
"433 19 OFFCURVE",
"439 55 CURVE SMOOTH",
"483 333 LINE SMOOTH",
"503 458 OFFCURVE",
"442 522 OFFCURVE",
"344 522 CURVE SMOOTH",
"270 522 OFFCURVE",
"220 485 OFFCURVE",
"185 437 CURVE",
"230 722 LINE",
"221 725 OFFCURVE",
"211 726 OFFCURVE",
"204 726 CURVE SMOOTH",
"168 726 OFFCURVE",
"145 701 OFFCURVE",
"139 665 CURVE SMOOTH",
"34 -2 LINE",
"43 -5 OFFCURVE",
"53 -6 OFFCURVE",
"60 -6 CURVE SMOOTH"
);
}
);
width = 530;
}
);
leftKerningGroup = n;
leftMetricsKey = n;
note = h;
rightKerningGroup = n;
rightMetricsKey = n;
unicode = 0068;
},
{
glyphname = hbar;
layers = (
{
components = (
{
name = h;
}
);
layerId = "DFC648BE-1420-4AB7-B0BF-55F282890848";
paths = (
{
closed = 1;
nodes = (
"353 589 LINE",
"363 649 LINE",
"83 649 LINE",
"73 589 LINE"
);
}
);
width = 530;
}
);
note = hbar;
rightKerningGroup = h;
rightMetricsKey = h;
unicode = 0127;
},
{
glyphname = i;
layers = (
{
anchors = (
{
name = bottom;
position = "{76, 0}";
}
);
layerId = "DFC648BE-1420-4AB7-B0BF-55F282890848";
paths = (
{
closed = 1;
nodes = (
"97 -6 OFFCURVE",
"120 19 OFFCURVE",
"126 55 CURVE SMOOTH",
"198 512 LINE",
"189 515 OFFCURVE",
"179 516 OFFCURVE",
"171 516 CURVE SMOOTH",
"136 516 OFFCURVE",
"113 491 OFFCURVE",
"107 455 CURVE SMOOTH",
"35 -2 LINE",
"44 -5 OFFCURVE",
"54 -6 OFFCURVE",
"62 -6 CURVE SMOOTH"
);
},
{
closed = 1;
nodes = (
"212 588 OFFCURVE",
"241 616 OFFCURVE",
"241 659 CURVE SMOOTH",
"241 690 OFFCURVE",
"220 710 OFFCURVE",
"188 710 CURVE SMOOTH",
"145 710 OFFCURVE",
"117 681 OFFCURVE",
"117 638 CURVE SMOOTH",
"117 608 OFFCURVE",
"138 588 OFFCURVE",
"169 588 CURVE SMOOTH"
);
}
);
width = 233;
}
);
leftKerningGroup = i;
leftMetricsKey = "=|";
note = i;
rightKerningGroup = i;
unicode = 0069;
},
{
glyphname = idotless;
layers = (
{
anchors = (
{
name = bottom;
position = "{77, 0}";
},
{
name = ogonek;
position = "{72, 10}";
},
{
name = top;
position = "{158, 510}";
}
);
layerId = "DFC648BE-1420-4AB7-B0BF-55F282890848";
paths = (
{
closed = 1;
nodes = (
"98 -6 OFFCURVE",
"121 19 OFFCURVE",
"127 55 CURVE SMOOTH",
"199 512 LINE",
"190 515 OFFCURVE",
"180 516 OFFCURVE",
"172 516 CURVE SMOOTH",
"137 516 OFFCURVE",
"114 491 OFFCURVE",
"108 455 CURVE SMOOTH",
"36 -2 LINE",
"45 -5 OFFCURVE",
"55 -6 OFFCURVE",
"63 -6 CURVE SMOOTH"
);
}
);
width = 234;
}
);
note = dotlessi;
unicode = 0131;
},
{
glyphname = j;
layers = (
{
layerId = "DFC648BE-1420-4AB7-B0BF-55F282890848";
paths = (
{
closed = 1;
nodes = (
"43 -166 OFFCURVE",
"101 -105 OFFCURVE",
"116 -10 CURVE SMOOTH",
"199 512 LINE",
"189 515 OFFCURVE",
"180 516 OFFCURVE",
"172 516 CURVE SMOOTH",
"137 516 OFFCURVE",
"114 491 OFFCURVE",
"108 455 CURVE SMOOTH",
"34 -10 LINE SMOOTH",
"26 -62 OFFCURVE",
"3 -91 OFFCURVE",
"-39 -91 CURVE SMOOTH",
"-53 -91 OFFCURVE",
"-73 -88 OFFCURVE",
"-90 -81 CURVE",
"-107 -87 OFFCURVE",
"-119 -104 OFFCURVE",
"-119 -122 CURVE SMOOTH",
"-119 -150 OFFCURVE",
"-88 -166 OFFCURVE",
"-43 -166 CURVE SMOOTH"
);
},
{
closed = 1;
nodes = (
"213 588 OFFCURVE",
"242 616 OFFCURVE",
"242 659 CURVE SMOOTH",
"242 690 OFFCURVE",
"221 710 OFFCURVE",
"189 710 CURVE SMOOTH",
"146 710 OFFCURVE",
"118 681 OFFCURVE",
"118 638 CURVE SMOOTH",
"118 608 OFFCURVE",
"139 588 OFFCURVE",
"170 588 CURVE SMOOTH"
);
}
);
width = 234;
}
);
leftKerningGroup = j;
note = j;
rightKerningGroup = j;
rightMetricsKey = i;
unicode = 006A;
},
{
glyphname = jdotless;
layers = (
{
anchors = (
{
name = bottom;
position = "{-37, -166}";
},
{
name = top;
position = "{166, 515}";
}
);
layerId = "DFC648BE-1420-4AB7-B0BF-55F282890848";
paths = (
{
closed = 1;
nodes = (
"43 -166 OFFCURVE",
"103 -105 OFFCURVE",
"118 -10 CURVE SMOOTH",
"201 512 LINE",
"191 515 OFFCURVE",
"182 516 OFFCURVE",
"174 516 CURVE SMOOTH",
"139 516 OFFCURVE",
"116 491 OFFCURVE",
"110 455 CURVE SMOOTH",
"36 -10 LINE SMOOTH",
"28 -62 OFFCURVE",
"4 -91 OFFCURVE",
"-35 -91 CURVE SMOOTH",
"-52 -91 OFFCURVE",
"-71 -88 OFFCURVE",
"-88 -81 CURVE",
"-103 -86 OFFCURVE",
"-114 -100 OFFCURVE",
"-117 -117 CURVE SMOOTH",
"-121 -147 OFFCURVE",
"-90 -166 OFFCURVE",
"-37 -166 CURVE SMOOTH"
);
}
);
width = 238;
}
);
leftKerningGroup = j;
note = dotlessj;
unicode = 0237;
},
{
glyphname = k;
lastChange = "2018-03-12 19:43:52 +0000";
layers = (
{
anchors = (
{
name = bottom;
position = "{189, 0}";
},
{
name = top;
position = "{192, 720}";
}
);
layerId = "DFC648BE-1420-4AB7-B0BF-55F282890848";
paths = (
{
closed = 1;
nodes = (
"472 507 LINE",
"456 513 OFFCURVE",
"436 515 OFFCURVE",
"424 515 CURVE SMOOTH",
"397 515 OFFCURVE",
"362 498 OFFCURVE",
"332 467 CURVE SMOOTH",
"112 243 LINE",
"95 134 LINE"
);
},
{
closed = 1;
nodes = (
"376 -6 OFFCURVE",
"391 -4 OFFCURVE",
"410 1 CURVE",
"412 11 LINE",
"399 16 OFFCURVE",
"384 34 OFFCURVE",
"361 78 CURVE SMOOTH",
"295 208 LINE SMOOTH",
"279 239 OFFCURVE",
"257 254 OFFCURVE",
"226 254 CURVE SMOOTH",
"215 254 OFFCURVE",
"198 252 OFFCURVE",
"184 249 CURVE",
"297 27 LINE SMOOTH",
"308 6 OFFCURVE",
"333 -6 OFFCURVE",
"361 -6 CURVE SMOOTH"
);
},
{
closed = 1;
nodes = (
"96 -6 OFFCURVE",
"119 19 OFFCURVE",
"125 55 CURVE SMOOTH",
"230 722 LINE",
"221 725 OFFCURVE",
"211 726 OFFCURVE",
"203 726 CURVE SMOOTH",
"168 726 OFFCURVE",
"145 701 OFFCURVE",
"139 665 CURVE SMOOTH",
"34 -2 LINE",
"43 -5 OFFCURVE",
"53 -6 OFFCURVE",
"61 -6 CURVE SMOOTH"
);
}
);
width = 458;
}
);
leftKerningGroup = n;
leftMetricsKey = n;
note = k;
rightKerningGroup = k;
unicode = 006B;
},
{
glyphname = kgreenlandic;
layers = (
{
anchors = (
{
name = bottom;
position = "{201, 0}";
},
{
name = top;
position = "{282, 510}";
}
);
layerId = "DFC648BE-1420-4AB7-B0BF-55F282890848";
paths = (
{
closed = 1;
nodes = (
"472 507 LINE",
"456 513 OFFCURVE",
"435 515 OFFCURVE",
"425 515 CURVE SMOOTH",
"398 515 OFFCURVE",
"370 500 OFFCURVE",
"338 467 CURVE SMOOTH",
"112 237 LINE",
"95 134 LINE"
);
},
{
closed = 1;
nodes = (
"96 -6 OFFCURVE",
"119 19 OFFCURVE",
"125 55 CURVE SMOOTH",
"197 512 LINE",
"188 515 OFFCURVE",
"178 516 OFFCURVE",
"171 516 CURVE SMOOTH",
"135 516 OFFCURVE",
"112 491 OFFCURVE",
"106 455 CURVE SMOOTH",
"34 -2 LINE",
"43 -5 OFFCURVE",
"53 -6 OFFCURVE",
"60 -6 CURVE SMOOTH"
);
},
{
closed = 1;
nodes = (
"375 -6 OFFCURVE",
"391 -4 OFFCURVE",
"410 1 CURVE",
"412 11 LINE",
"399 16 OFFCURVE",
"382 37 OFFCURVE",
"361 78 CURVE SMOOTH",
"295 208 LINE SMOOTH",
"279 239 OFFCURVE",
"257 254 OFFCURVE",
"226 254 CURVE SMOOTH",
"215 254 OFFCURVE",
"194 252 OFFCURVE",
"180 249 CURVE",
"293 27 LINE SMOOTH",
"304 6 OFFCURVE",
"332 -6 OFFCURVE",
"363 -6 CURVE SMOOTH"
);
}
);
width = 458;
}
);
note = kgreenlandic;
rightKerningGroup = k;
unicode = 0138;
},
{
glyphname = l;
layers = (
{
anchors = (
{
name = bottom;
position = "{76, 0}";
},
{
name = center;
position = "{263, 296}";
},
{
name = top;
position = "{196, 725}";
}
);
layerId = "DFC648BE-1420-4AB7-B0BF-55F282890848";
paths = (
{
closed = 1;
nodes = (
"97 -6 OFFCURVE",
"120 19 OFFCURVE",
"126 55 CURVE SMOOTH",
"231 722 LINE",
"222 725 OFFCURVE",
"212 726 OFFCURVE",
"204 726 CURVE SMOOTH",
"169 726 OFFCURVE",
"146 701 OFFCURVE",
"140 665 CURVE SMOOTH",
"35 -2 LINE",
"44 -5 OFFCURVE",
"54 -6 OFFCURVE",
"62 -6 CURVE SMOOTH"
);
}
);
width = 233;
}
);
leftKerningGroup = l;
leftMetricsKey = "=|";
note = l;
rightKerningGroup = l;
unicode = 006C;
},
{
glyphname = lslash;
layers = (
{
components = (
{
name = l;
}
);
layerId = "DFC648BE-1420-4AB7-B0BF-55F282890848";
paths = (
{
closed = 1;
nodes = (
"253 398 LINE",
"261 448 LINE",
"22 368 LINE",
"14 318 LINE"
);
}
);
width = 234;
}
);
note = lslash;
unicode = 0142;
},
{
glyphname = m;
layers = (
{
anchors = (
{
name = bottom;
position = "{366, 0}";
},
{
name = top;
position = "{447, 510}";
}
);
layerId = "DFC648BE-1420-4AB7-B0BF-55F282890848";
paths = (
{
closed = 1;
nodes = (
"96 -6 OFFCURVE",
"119 19 OFFCURVE",
"125 55 CURVE SMOOTH",
"153 236 LINE SMOOTH",
"179 396 OFFCURVE",
"231 454 OFFCURVE",
"304 454 CURVE SMOOTH",
"359 454 OFFCURVE",
"388 421 OFFCURVE",
"388 367 CURVE SMOOTH",
"388 358 OFFCURVE",
"388 349 OFFCURVE",
"386 339 CURVE SMOOTH",
"332 -2 LINE",
"341 -5 OFFCURVE",
"351 -6 OFFCURVE",
"359 -6 CURVE SMOOTH",
"394 -6 OFFCURVE",
"417 19 OFFCURVE",
"423 55 CURVE SMOOTH",
"467 333 LINE SMOOTH",
"470 350 OFFCURVE",
"471 366 OFFCURVE",
"471 381 CURVE SMOOTH",
"471 474 OFFCURVE",
"414 522 OFFCURVE",
"334 522 CURVE SMOOTH",
"263 522 OFFCURVE",
"215 485 OFFCURVE",
"185 437 CURVE",
"197 512 LINE",
"188 515 OFFCURVE",
"178 516 OFFCURVE",
"170 516 CURVE SMOOTH",
"135 516 OFFCURVE",
"112 491 OFFCURVE",
"106 455 CURVE SMOOTH",
"34 -2 LINE",
"43 -5 OFFCURVE",
"53 -6 OFFCURVE",
"61 -6 CURVE SMOOTH"
);
},
{
closed = 1;
nodes = (
"692 -6 OFFCURVE",
"715 19 OFFCURVE",
"721 55 CURVE SMOOTH",
"765 333 LINE SMOOTH",
"768 350 OFFCURVE",
"769 366 OFFCURVE",
"769 381 CURVE SMOOTH",
"769 474 OFFCURVE",
"712 522 OFFCURVE",
"627 522 CURVE SMOOTH",
"541 522 OFFCURVE",
"480 473 OFFCURVE",
"454 417 CURVE",
"425 236 LINE",
"451 236 LINE",
"477 396 OFFCURVE",
"529 454 OFFCURVE",
"602 454 CURVE SMOOTH",
"657 454 OFFCURVE",
"686 421 OFFCURVE",
"686 367 CURVE SMOOTH",
"686 358 OFFCURVE",
"686 349 OFFCURVE",
"684 339 CURVE SMOOTH",
"630 -2 LINE",
"639 -5 OFFCURVE",
"649 -6 OFFCURVE",
"657 -6 CURVE SMOOTH"
);
}
);
width = 812;
}
);
leftKerningGroup = n;
leftMetricsKey = n;
note = m;
rightKerningGroup = n;
rightMetricsKey = n;
unicode = 006D;
},
{
glyphname = n;
layers = (
{
anchors = (
{
name = bottom;
position = "{229, 0}";
},
{
name = top;
position = "{306, 510}";
}
);
layerId = "DFC648BE-1420-4AB7-B0BF-55F282890848";
paths = (
{
closed = 1;
nodes = (
"96 -6 OFFCURVE",
"119 19 OFFCURVE",
"125 55 CURVE SMOOTH",
"153 236 LINE SMOOTH",
"179 396 OFFCURVE",
"234 454 OFFCURVE",
"312 454 CURVE SMOOTH",
"371 454 OFFCURVE",
"404 420 OFFCURVE",
"404 365 CURVE SMOOTH",
"404 357 OFFCURVE",
"403 348 OFFCURVE",
"402 339 CURVE SMOOTH",
"348 -2 LINE",
"357 -5 OFFCURVE",
"367 -6 OFFCURVE",
"375 -6 CURVE SMOOTH",
"410 -6 OFFCURVE",
"433 19 OFFCURVE",
"439 55 CURVE SMOOTH",
"483 333 LINE SMOOTH",
"486 349 OFFCURVE",
"487 364 OFFCURVE",
"487 378 CURVE SMOOTH",
"487 473 OFFCURVE",
"426 522 OFFCURVE",
"339 522 CURVE SMOOTH",
"267 522 OFFCURVE",
"216 485 OFFCURVE",
"185 437 CURVE",
"197 512 LINE",
"188 515 OFFCURVE",
"178 516 OFFCURVE",
"170 516 CURVE SMOOTH",
"135 516 OFFCURVE",
"112 491 OFFCURVE",
"106 455 CURVE SMOOTH",
"34 -2 LINE",
"43 -5 OFFCURVE",
"53 -6 OFFCURVE",
"61 -6 CURVE SMOOTH"
);
}
);
width = 530;
}
);
leftKerningGroup = n;
note = n;
rightKerningGroup = n;
unicode = 006E;
},
{
glyphname = eng;
layers = (
{
layerId = "DFC648BE-1420-4AB7-B0BF-55F282890848";
paths = (
{
closed = 1;
nodes = (
"353 -166 OFFCURVE",
"413 -105 OFFCURVE",
"428 -10 CURVE SMOOTH",
"483 333 LINE SMOOTH",
"503 458 OFFCURVE",
"443 522 OFFCURVE",
"343 522 CURVE SMOOTH",
"271 522 OFFCURVE",
"220 485 OFFCURVE",
"185 437 CURVE",
"197 512 LINE",
"188 515 OFFCURVE",
"178 516 OFFCURVE",
"170 516 CURVE SMOOTH",
"135 516 OFFCURVE",
"112 491 OFFCURVE",
"106 455 CURVE SMOOTH",
"34 -2 LINE",
"43 -5 OFFCURVE",
"53 -6 OFFCURVE",
"61 -6 CURVE SMOOTH",
"96 -6 OFFCURVE",
"119 19 OFFCURVE",
"125 55 CURVE SMOOTH",
"153 236 LINE SMOOTH",
"179 396 OFFCURVE",
"234 454 OFFCURVE",
"312 454 CURVE SMOOTH",
"380 454 OFFCURVE",
"413 410 OFFCURVE",
"402 339 CURVE SMOOTH",
"346 -10 LINE SMOOTH",
"338 -62 OFFCURVE",
"314 -91 OFFCURVE",
"275 -91 CURVE SMOOTH",
"258 -91 OFFCURVE",
"239 -88 OFFCURVE",
"222 -81 CURVE",
"207 -86 OFFCURVE",
"196 -100 OFFCURVE",
"193 -117 CURVE SMOOTH",
"189 -147 OFFCURVE",
"220 -166 OFFCURVE",
"273 -166 CURVE SMOOTH"
);
}
);
width = 530;
}
);
leftKerningGroup = m;
note = eng;
rightKerningGroup = m;
rightMetricsKey = n;
unicode = 014B;
},
{
glyphname = o;
layers = (
{
anchors = (
{
name = bottom;
position = "{224, 0}";
},
{
name = center;
position = "{264, 255}";
},
{
name = ogonek;
position = "{284, 10}";
},
{
name = top;
position = "{305, 510}";
},
{
name = topright;
position = "{449, 297}";
}
);
hints = (
{
place = "{390, -80}";
}
);
layerId = "DFC648BE-1420-4AB7-B0BF-55F282890848";
paths = (
{
closed = 1;
nodes = (
"403 -12 OFFCURVE",
"497 140 OFFCURVE",
"497 318 CURVE SMOOTH",
"497 444 OFFCURVE",
"415 522 OFFCURVE",
"295 522 CURVE SMOOTH",
"126 522 OFFCURVE",
"31 368 OFFCURVE",
"31 194 CURVE SMOOTH",
"31 66 OFFCURVE",
"113 -12 OFFCURVE",
"234 -12 CURVE SMOOTH"
);
},
{
closed = 1;
nodes = (
"159 60 OFFCURVE",
"116 115 OFFCURVE",
"116 205 CURVE SMOOTH",
"116 324 OFFCURVE",
"181 450 OFFCURVE",
"295 450 CURVE SMOOTH",
"369 450 OFFCURVE",
"412 396 OFFCURVE",
"412 307 CURVE SMOOTH",
"412 185 OFFCURVE",
"349 60 OFFCURVE",
"234 60 CURVE SMOOTH"
);
}
);
width = 528;
}
);
leftKerningGroup = o;
leftMetricsKey = "=|";
note = o;
rightKerningGroup = o;
unicode = 006F;
},
{
glyphname = oslash;
layers = (
{
components = (
{
name = o;
}
);
layerId = "DFC648BE-1420-4AB7-B0BF-55F282890848";
paths = (
{
closed = 1;
nodes = (
"89 -60 LINE",
"499 570 LINE",
"453 570 LINE",
"43 -60 LINE"
);
}
);
width = 528;
}
);
leftMetricsKey = o;
note = oslash;
rightMetricsKey = o;
unicode = 00F8;
},
{
glyphname = oe;
layers = (
{
layerId = "DFC648BE-1420-4AB7-B0BF-55F282890848";
paths = (
{
closed = 1;
nodes = (
"306 -12 OFFCURVE",
"378 27 OFFCURVE",
"427 93 CURVE",
"454 26 OFFCURVE",
"514 -12 OFFCURVE",
"599 -12 CURVE SMOOTH",
"687 -12 OFFCURVE",
"789 34 OFFCURVE",
"798 89 CURVE SMOOTH",
"800 104 OFFCURVE",
"799 125 OFFCURVE",
"775 134 CURVE",
"737 87 OFFCURVE",
"676 54 OFFCURVE",
"608 54 CURVE SMOOTH",
"517 54 OFFCURVE",
"470 121 OFFCURVE",
"486 227 CURVE",
"831 227 LINE",
"838 243 OFFCURVE",
"843 259 OFFCURVE",
"846 275 CURVE SMOOTH",
"869 426 OFFCURVE",
"816 522 OFFCURVE",
"684 522 CURVE SMOOTH",
"600 522 OFFCURVE",
"528 483 OFFCURVE",
"479 415 CURVE",
"451 483 OFFCURVE",
"391 522 OFFCURVE",
"306 522 CURVE SMOOTH",
"167 522 OFFCURVE",
"61 418 OFFCURVE",
"35 255 CURVE SMOOTH",
"10 92 OFFCURVE",
"82 -12 OFFCURVE",
"221 -12 CURVE SMOOTH"
);
},
{
closed = 1;
nodes = (
"145 60 OFFCURVE",
"101 136 OFFCURVE",
"119 255 CURVE SMOOTH",
"138 374 OFFCURVE",
"206 450 OFFCURVE",
"294 450 CURVE SMOOTH",
"382 450 OFFCURVE",
"426 374 OFFCURVE",
"407 255 CURVE SMOOTH",
"389 136 OFFCURVE",
"321 60 OFFCURVE",
"233 60 CURVE SMOOTH"
);
},
{
closed = 1;
nodes = (
"530 397 OFFCURVE",
"592 458 OFFCURVE",
"678 458 CURVE SMOOTH",
"762 458 OFFCURVE",
"788 399 OFFCURVE",
"775 294 CURVE",
"497 286 LINE"
);
}
);
width = 876;
}
);
leftMetricsKey = o;
note = oe;
rightMetricsKey = e;
unicode = 0153;
},
{
glyphname = p;
layers = (
{
anchors = (
{
name = bottom;
position = "{42, -166}";
},
{
name = top;
position = "{316, 510}";
}
);
layerId = "DFC648BE-1420-4AB7-B0BF-55F282890848";
paths = (
{
closed = 1;
nodes = (
"71 -166 OFFCURVE",
"94 -141 OFFCURVE",
"99 -105 CURVE SMOOTH",
"122 39 LINE",
"150 10 OFFCURVE",
"193 -12 OFFCURVE",
"255 -12 CURVE SMOOTH",
"423 -12 OFFCURVE",
"521 150 OFFCURVE",
"521 330 CURVE SMOOTH",
"521 449 OFFCURVE",
"453 522 OFFCURVE",
"347 522 CURVE SMOOTH",
"276 522 OFFCURVE",
"224 489 OFFCURVE",
"185 433 CURVE",
"197 511 LINE",
"186 514 OFFCURVE",
"178 515 OFFCURVE",
"171 515 CURVE SMOOTH",
"135 515 OFFCURVE",
"112 490 OFFCURVE",
"106 454 CURVE SMOOTH",
"8 -162 LINE",
"18 -165 OFFCURVE",
"28 -166 OFFCURVE",
"35 -166 CURVE SMOOTH"
);
},
{
closed = 1;
nodes = (
"179 54 OFFCURVE",
"143 95 OFFCURVE",
"143 164 CURVE SMOOTH",
"143 176 OFFCURVE",
"144 189 OFFCURVE",
"146 203 CURVE SMOOTH",
"154 255 LINE SMOOTH",
"174 381 OFFCURVE",
"248 456 OFFCURVE",
"334 456 CURVE SMOOTH",
"401 456 OFFCURVE",
"437 411 OFFCURVE",
"437 327 CURVE SMOOTH",
"437 194 OFFCURVE",
"375 54 OFFCURVE",
"249 54 CURVE SMOOTH"
);
}
);
width = 550;
}
);
leftKerningGroup = n;
leftMetricsKey = n;
note = p;
rightKerningGroup = o;
rightMetricsKey = o;
unicode = 0070;
},
{
glyphname = thorn;
layers = (
{
layerId = "DFC648BE-1420-4AB7-B0BF-55F282890848";
paths = (
{
closed = 1;
nodes = (
"71 -166 OFFCURVE",
"94 -141 OFFCURVE",
"99 -105 CURVE SMOOTH",
"122 39 LINE",
"150 10 OFFCURVE",
"185 -12 OFFCURVE",
"247 -12 CURVE SMOOTH",
"385 -12 OFFCURVE",
"489 97 OFFCURVE",
"516 264 CURVE SMOOTH",
"541 422 OFFCURVE",
"479 522 OFFCURVE",
"355 522 CURVE SMOOTH",
"284 522 OFFCURVE",
"230 489 OFFCURVE",
"185 433 CURVE",
"229 716 LINE",
"219 719 OFFCURVE",
"210 720 OFFCURVE",
"203 720 CURVE SMOOTH",
"167 720 OFFCURVE",
"144 695 OFFCURVE",
"138 659 CURVE SMOOTH",
"8 -162 LINE",
"18 -165 OFFCURVE",
"28 -166 OFFCURVE",
"35 -166 CURVE SMOOTH"
);
},
{
closed = 1;
nodes = (
"167 54 OFFCURVE",
"131 110 OFFCURVE",
"146 203 CURVE SMOOTH",
"154 255 LINE SMOOTH",
"174 381 OFFCURVE",
"248 456 OFFCURVE",
"334 456 CURVE SMOOTH",
"416 456 OFFCURVE",
"452 389 OFFCURVE",
"432 266 CURVE SMOOTH",
"411 131 OFFCURVE",
"344 54 OFFCURVE",
"249 54 CURVE SMOOTH"
);
}
);
width = 550;
}
);
leftMetricsKey = p;
note = thorn;
rightMetricsKey = p;
unicode = 00FE;
},
{
glyphname = q;
layers = (
{
anchors = (
{
name = bottom;
position = "{371, -167}";
},
{
name = top;
position = "{318, 510}";
}
);
layerId = "DFC648BE-1420-4AB7-B0BF-55F282890848";
paths = (
{
closed = 1;
nodes = (
"389 -166 OFFCURVE",
"412 -141 OFFCURVE",
"417 -105 CURVE SMOOTH",
"479 284 LINE SMOOTH",
"491 363 OFFCURVE",
"509 413 OFFCURVE",
"547 460 CURVE",
"543 482 LINE",
"458 482 OFFCURVE",
"400 522 OFFCURVE",
"311 522 CURVE SMOOTH",
"134 522 OFFCURVE",
"29 362 OFFCURVE",
"29 181 CURVE SMOOTH",
"29 61 OFFCURVE",
"96 -12 OFFCURVE",
"200 -12 CURVE SMOOTH",
"275 -12 OFFCURVE",
"328 26 OFFCURVE",
"364 75 CURVE",
"326 -162 LINE",
"336 -165 OFFCURVE",
"346 -166 OFFCURVE",
"353 -166 CURVE SMOOTH"
);
},
{
closed = 1;
nodes = (
"151 54 OFFCURVE",
"113 99 OFFCURVE",
"113 183 CURVE SMOOTH",
"113 319 OFFCURVE",
"183 456 OFFCURVE",
"315 456 CURVE SMOOTH",
"378 456 OFFCURVE",
"402 426 OFFCURVE",
"468 426 CURVE",
"463 469 LINE",
"416 405 OFFCURVE",
"407 357 OFFCURVE",
"393 273 CURVE SMOOTH",
"387 235 LINE SMOOTH",
"368 116 OFFCURVE",
"302 54 OFFCURVE",
"221 54 CURVE SMOOTH"
);
}
);
width = 554;
}
);
leftKerningGroup = o;
leftMetricsKey = o;
note = q;
rightKerningGroup = q;
unicode = 0071;
},
{
glyphname = r;
layers = (
{
anchors = (
{
name = bottom;
position = "{78, 0}";
},
{
name = top;
position = "{225, 510}";
}
);
layerId = "DFC648BE-1420-4AB7-B0BF-55F282890848";
paths = (
{
closed = 1;
nodes = (
"96 -6 OFFCURVE",
"119 19 OFFCURVE",
"125 55 CURVE SMOOTH",
"139 148 LINE SMOOTH",
"172 354 OFFCURVE",
"244 430 OFFCURVE",
"324 430 CURVE SMOOTH",
"339 430 OFFCURVE",
"348 428 OFFCURVE",
"353 425 CURVE",
"367 434 OFFCURVE",
"377 447 OFFCURVE",
"380 469 CURVE SMOOTH",
"385 500 OFFCURVE",
"372 519 OFFCURVE",
"332 519 CURVE SMOOTH",
"281 519 OFFCURVE",
"220 473 OFFCURVE",
"180 405 CURVE",
"197 512 LINE",
"188 515 OFFCURVE",
"178 516 OFFCURVE",
"170 516 CURVE SMOOTH",
"135 516 OFFCURVE",
"112 491 OFFCURVE",
"106 455 CURVE SMOOTH",
"34 -2 LINE",
"43 -5 OFFCURVE",
"53 -6 OFFCURVE",
"61 -6 CURVE SMOOTH"
);
}
);
width = 368;
}
);
leftKerningGroup = r;
leftMetricsKey = h;
note = r;
rightKerningGroup = r;
unicode = 0072;
},
{
glyphname = s;
layers = (
{
anchors = (
{
name = bottom;
position = "{168, 0}";
},
{
name = top;
position = "{249, 510}";
}
);
layerId = "DFC648BE-1420-4AB7-B0BF-55F282890848";
paths = (
{
closed = 1;
nodes = (
"294 -12 OFFCURVE",
"368 42 OFFCURVE",
"368 154 CURVE SMOOTH",
"368 212 OFFCURVE",
"330 258 OFFCURVE",
"236 291 CURVE SMOOTH",
"163 317 OFFCURVE",
"135 341 OFFCURVE",
"135 378 CURVE SMOOTH",
"135 429 OFFCURVE",
"183 458 OFFCURVE",
"238 458 CURVE SMOOTH",
"300 458 OFFCURVE",
"346 424 OFFCURVE",
"361 385 CURVE",
"383 390 OFFCURVE",
"396 409 OFFCURVE",
"396 433 CURVE SMOOTH",
"396 483 OFFCURVE",
"333 522 OFFCURVE",
"238 522 CURVE SMOOTH",
"130 522 OFFCURVE",
"57 474 OFFCURVE",
"57 366 CURVE SMOOTH",
"57 304 OFFCURVE",
"96 262 OFFCURVE",
"192 229 CURVE SMOOTH",
"260 206 OFFCURVE",
"286 183 OFFCURVE",
"286 147 CURVE SMOOTH",
"286 91 OFFCURVE",
"244 54 OFFCURVE",
"179 54 CURVE SMOOTH",
"114 54 OFFCURVE",
"62 82 OFFCURVE",
"38 125 CURVE",
"6 117 OFFCURVE",
"3 88 OFFCURVE",
"3 80 CURVE SMOOTH",
"3 30 OFFCURVE",
"84 -12 OFFCURVE",
"179 -12 CURVE SMOOTH"
);
}
);
width = 416;
}
);
leftKerningGroup = s;
note = s;
rightKerningGroup = s;
unicode = 0073;
},
{
glyphname = germandbls;
layers = (
{
layerId = "DFC648BE-1420-4AB7-B0BF-55F282890848";
paths = (
{
closed = 1;
nodes = (
"509 -11 OFFCURVE",
"593 87 OFFCURVE",
"610 194 CURVE SMOOTH",
"626 294 OFFCURVE",
"574 348 OFFCURVE",
"466 365 CURVE",
"545 383 OFFCURVE",
"595 437 OFFCURVE",
"608 517 CURVE SMOOTH",
"627 637 OFFCURVE",
"543 714 OFFCURVE",
"392 714 CURVE SMOOTH",
"225 714 OFFCURVE",
"135 620 OFFCURVE",
"111 470 CURVE SMOOTH",
"37 -2 LINE",
"47 -5 OFFCURVE",
"57 -6 OFFCURVE",
"65 -6 CURVE",
"103 -6 OFFCURVE",
"128 20 OFFCURVE",
"134 59 CURVE SMOOTH",
"202 485 LINE SMOOTH",
"219 596 OFFCURVE",
"282 646 OFFCURVE",
"377 646 CURVE SMOOTH",
"474 646 OFFCURVE",
"532 593 OFFCURVE",
"519 512 CURVE SMOOTH",
"508 442 OFFCURVE",
"452 397 OFFCURVE",
"376 397 CURVE SMOOTH",
"312 397 LINE",
"301 329 LINE",
"363 329 LINE SMOOTH",
"477 329 OFFCURVE",
"533 291 OFFCURVE",
"520 210 CURVE SMOOTH",
"509 138 OFFCURVE",
"448 55 OFFCURVE",
"342 55 CURVE SMOOTH",
"288 55 OFFCURVE",
"243 76 OFFCURVE",
"224 121 CURVE",
"207 113 OFFCURVE",
"197 92 OFFCURVE",
"194 75 CURVE SMOOTH",
"185 18 OFFCURVE",
"259 -11 OFFCURVE",
"347 -11 CURVE SMOOTH"
);
}
);
width = 661;
}
);
note = uni00DF;
unicode = 00DF;
},
{
glyphname = t;
layers = (
{
anchors = (
{
name = bottom;
position = "{172, 0}";
},
{
name = center;
position = "{169, 255}";
},
{
name = top;
position = "{224, 644}";
},
{
name = topright;
position = "{333, 473}";
}
);
layerId = "DFC648BE-1420-4AB7-B0BF-55F282890848";
paths = (
{
closed = 1;
nodes = (
"241 -8 OFFCURVE",
"280 10 OFFCURVE",
"285 42 CURVE SMOOTH",
"287 58 OFFCURVE",
"280 71 OFFCURVE",
"267 77 CURVE",
"250 70 OFFCURVE",
"235 67 OFFCURVE",
"221 67 CURVE SMOOTH",
"178 67 OFFCURVE",
"165 96 OFFCURVE",
"173 148 CURVE SMOOTH",
"251 640 LINE",
"242 643 OFFCURVE",
"232 644 OFFCURVE",
"224 644 CURVE SMOOTH",
"189 644 OFFCURVE",
"166 619 OFFCURVE",
"160 583 CURVE SMOOTH",
"91 148 LINE SMOOTH",
"76 53 OFFCURVE",
"116 -8 OFFCURVE",
"197 -8 CURVE SMOOTH"
);
},
{
closed = 1;
nodes = (
"294 446 LINE SMOOTH",
"322 446 OFFCURVE",
"343 461 OFFCURVE",
"347 488 CURVE SMOOTH",
"348 495 OFFCURVE",
"349 502 OFFCURVE",
"346 510 CURVE",
"116 510 LINE SMOOTH",
"88 510 OFFCURVE",
"66 495 OFFCURVE",
"62 468 CURVE SMOOTH",
"61 461 OFFCURVE",
"61 454 OFFCURVE",
"64 446 CURVE"
);
}
);
width = 338;
}
);
leftKerningGroup = t;
note = t;
rightKerningGroup = t;
unicode = 0074;
},
{
glyphname = tbar;
layers = (
{
components = (
{
name = t;
}
);
layerId = "DFC648BE-1420-4AB7-B0BF-55F282890848";
paths = (
{
closed = 1;
nodes = (
"305 260 LINE",
"313 310 LINE",
"29 310 LINE",
"21 260 LINE"
);
}
);
width = 338;
}
);
leftKerningGroup = t;
note = tbar;
rightKerningGroup = t;
rightMetricsKey = t;
unicode = 0167;
},
{
glyphname = u;
layers = (
{
anchors = (
{
name = bottom;
position = "{223, 0}";
},
{
name = ogonek;
position = "{367, 10}";
},
{
name = top;
position = "{304, 510}";
},
{
name = topright;
position = "{459, 297}";
}
);
layerId = "DFC648BE-1420-4AB7-B0BF-55F282890848";
paths = (
{
closed = 1;
nodes = (
"260 -12 OFFCURVE",
"311 25 OFFCURVE",
"342 73 CURVE",
"330 -2 LINE",
"339 -5 OFFCURVE",
"349 -6 OFFCURVE",
"357 -6 CURVE SMOOTH",
"392 -6 OFFCURVE",
"415 19 OFFCURVE",
"421 55 CURVE SMOOTH",
"493 512 LINE",
"484 515 OFFCURVE",
"474 516 OFFCURVE",
"466 516 CURVE SMOOTH",
"431 516 OFFCURVE",
"408 491 OFFCURVE",
"402 455 CURVE SMOOTH",
"373 274 LINE SMOOTH",
"348 114 OFFCURVE",
"293 56 OFFCURVE",
"217 56 CURVE SMOOTH",
"159 56 OFFCURVE",
"127 90 OFFCURVE",
"127 145 CURVE SMOOTH",
"127 153 OFFCURVE",
"128 162 OFFCURVE",
"129 171 CURVE SMOOTH",
"183 512 LINE",
"174 515 OFFCURVE",
"164 516 OFFCURVE",
"156 516 CURVE SMOOTH",
"121 516 OFFCURVE",
"98 491 OFFCURVE",
"92 455 CURVE SMOOTH",
"48 177 LINE SMOOTH",
"45 161 OFFCURVE",
"44 146 OFFCURVE",
"44 132 CURVE SMOOTH",
"44 37 OFFCURVE",
"105 -12 OFFCURVE",
"190 -12 CURVE SMOOTH"
);
}
);
width = 526;
}
);
leftKerningGroup = u;
note = u;
rightKerningGroup = u;
unicode = 0075;
},
{
glyphname = v;
layers = (
{
anchors = (
{
name = bottom;
position = "{181, 0}";
},
{
name = top;
position = "{273, 510}";
}
);
layerId = "DFC648BE-1420-4AB7-B0BF-55F282890848";
paths = (
{
closed = 1;
nodes = (
"206 0 LINE",
"491 510 LINE",
"479 516 OFFCURVE",
"464 518 OFFCURVE",
"455 518 CURVE SMOOTH",
"428 518 OFFCURVE",
"405 503 OFFCURVE",
"386 470 CURVE SMOOTH",
"204 146 LINE",
"114 515 LINE",
"68 515 OFFCURVE",
"39 477 OFFCURVE",
"49 437 CURVE SMOOTH",
"156 0 LINE"
);
}
);
width = 464;
}
);
leftKerningGroup = v;
note = v;
rightKerningGroup = v;
unicode = 0076;
},
{
glyphname = w;
layers = (
{
anchors = (
{
name = bottom;
position = "{318, 0}";
},
{
name = top;
position = "{403, 510}";
}
);
layerId = "DFC648BE-1420-4AB7-B0BF-55F282890848";
paths = (
{
closed = 1;
nodes = (
"185 0 LINE",
"376 400 LINE",
"441 0 LINE",
"490 0 LINE",
"746 510 LINE",
"734 514 OFFCURVE",
"721 516 OFFCURVE",
"712 516 CURVE SMOOTH",
"686 516 OFFCURVE",
"661 504 OFFCURVE",
"648 479 CURVE SMOOTH",
"488 159 LINE",
"434 510 LINE",
"425 514 OFFCURVE",
"409 516 OFFCURVE",
"400 516 CURVE SMOOTH",
"372 516 OFFCURVE",
"350 498 OFFCURVE",
"329 454 CURVE SMOOTH",
"188 156 LINE",
"121 516 LINE",
"75 516 OFFCURVE",
"43 494 OFFCURVE",
"54 440 CURVE SMOOTH",
"135 0 LINE"
);
}
);
width = 723;
}
);
leftKerningGroup = w;
note = w;
rightKerningGroup = w;
unicode = 0077;
},
{
glyphname = x;
layers = (
{
anchors = (
{
name = bottom;
position = "{186, 0}";
},
{
name = top;
position = "{267, 510}";
}
);
layerId = "DFC648BE-1420-4AB7-B0BF-55F282890848";
paths = (
{
closed = 1;
nodes = (
"45 -6 OFFCURVE",
"73 8 OFFCURVE",
"95 35 CURVE SMOOTH",
"467 509 LINE",
"455 515 OFFCURVE",
"437 516 OFFCURVE",
"428 516 CURVE SMOOTH",
"406 516 OFFCURVE",
"376 503 OFFCURVE",
"353 475 CURVE SMOOTH",
"-22 1 LINE",
"-12 -3 OFFCURVE",
"5 -6 OFFCURVE",
"17 -6 CURVE SMOOTH"
);
},
{
closed = 1;
nodes = (
"377 -6 OFFCURVE",
"417 21 OFFCURVE",
"392 66 CURVE SMOOTH",
"148 516 LINE",
"105 516 OFFCURVE",
"66 492 OFFCURVE",
"88 451 CURVE SMOOTH",
"334 -6 LINE"
);
}
);
width = 452;
}
);
leftKerningGroup = x;
note = x;
rightKerningGroup = x;
unicode = 0078;
},
{
glyphname = y;
layers = (
{
anchors = (
{
name = bottom;
position = "{289, 0}";
},
{
name = top;
position = "{274, 510}";
}
);
layerId = "DFC648BE-1420-4AB7-B0BF-55F282890848";
paths = (
{
closed = 1;
nodes = (
"84 -170 OFFCURVE",
"143 -123 OFFCURVE",
"181 -50 CURVE SMOOTH",
"492 510 LINE",
"480 516 OFFCURVE",
"465 518 OFFCURVE",
"456 518 CURVE SMOOTH",
"429 518 OFFCURVE",
"406 503 OFFCURVE",
"387 470 CURVE SMOOTH",
"205 146 LINE",
"115 515 LINE",
"70 515 OFFCURVE",
"39 482 OFFCURVE",
"50 437 CURVE SMOOTH",
"149 46 LINE",
"108 -26 LINE SMOOTH",
"77 -80 OFFCURVE",
"56 -97 OFFCURVE",
"28 -97 CURVE SMOOTH",
"13 -97 OFFCURVE",
"-4 -92 OFFCURVE",
"-20 -85 CURVE",
"-35 -90 OFFCURVE",
"-46 -104 OFFCURVE",
"-49 -120 CURVE SMOOTH",
"-54 -150 OFFCURVE",
"-25 -170 OFFCURVE",
"18 -170 CURVE SMOOTH"
);
}
);
width = 465;
}
);
leftKerningGroup = y;
note = y;
rightKerningGroup = v;
rightMetricsKey = v;
unicode = 0079;
},
{
glyphname = z;
layers = (
{
anchors = (
{
name = bottom;
position = "{171, 0}";
},
{
name = top;
position = "{252, 510}";
}
);
layerId = "DFC648BE-1420-4AB7-B0BF-55F282890848";
paths = (
{
closed = 1;
nodes = (
"318 0 LINE SMOOTH",
"346 0 OFFCURVE",
"369 15 OFFCURVE",
"374 43 CURVE SMOOTH",
"375 49 OFFCURVE",
"375 58 OFFCURVE",
"374 66 CURVE",
"95 66 LINE",
"427 478 LINE",
"432 510 LINE",
"126 510 LINE SMOOTH",
"98 510 OFFCURVE",
"74 495 OFFCURVE",
"70 467 CURVE SMOOTH",
"69 461 OFFCURVE",
"69 452 OFFCURVE",
"69 444 CURVE",
"309 444 LINE",
"-23 32 LINE",
"-28 0 LINE"
);
}
);
width = 421;
}
);
leftKerningGroup = z;
note = z;
rightKerningGroup = z;
unicode = 007A;
},
{
glyphname = ordfeminine;
layers = (
{
layerId = "DFC648BE-1420-4AB7-B0BF-55F282890848";
paths = (
{
closed = 1;
nodes = (
"210 393 OFFCURVE",
"233 404 OFFCURVE",
"254 429 CURVE",
"249 399 LINE",
"256 398 OFFCURVE",
"262 397 OFFCURVE",
"267 397 CURVE SMOOTH",
"291 397 OFFCURVE",
"306 414 OFFCURVE",
"310 437 CURVE SMOOTH",
"335 599 LINE SMOOTH",
"336 608 OFFCURVE",
"338 617 OFFCURVE",
"338 625 CURVE SMOOTH",
"338 680 OFFCURVE",
"300 714 OFFCURVE",
"230 714 CURVE SMOOTH",
"177 714 OFFCURVE",
"115 696 OFFCURVE",
"116 648 CURVE SMOOTH",
"116 640 OFFCURVE",
"120 630 OFFCURVE",
"133 623 CURVE",
"157 652 OFFCURVE",
"185 669 OFFCURVE",
"223 669 CURVE SMOOTH",
"263 669 OFFCURVE",
"283 650 OFFCURVE",
"283 616 CURVE SMOOTH",
"283 611 OFFCURVE",
"283 606 OFFCURVE",
"282 599 CURVE SMOOTH",
"278 574 LINE",
"263 583 OFFCURVE",
"248 590 OFFCURVE",
"218 590 CURVE SMOOTH",
"144 590 OFFCURVE",
"85 549 OFFCURVE",
"85 477 CURVE SMOOTH",
"85 429 OFFCURVE",
"118 393 OFFCURVE",
"175 393 CURVE SMOOTH"
);
},
{
closed = 1;
nodes = (
"158 437 OFFCURVE",
"140 450 OFFCURVE",
"140 477 CURVE SMOOTH",
"140 519 OFFCURVE",
"170 549 OFFCURVE",
"220 549 CURVE SMOOTH",
"253 549 OFFCURVE",
"271 533 OFFCURVE",
"267 506 CURVE SMOOTH",
"265 493 LINE SMOOTH",
"259 458 OFFCURVE",
"232 437 OFFCURVE",
"191 437 CURVE SMOOTH"
);
}
);
width = 332;
}
);
note = ordfeminine;
unicode = 00AA;
},
{
glyphname = ordmasculine;
lastChange = "2018-03-12 19:43:52 +0000";
layers = (
{
hints = (
{
place = "{304, -48}";
}
);
layerId = "DFC648BE-1420-4AB7-B0BF-55F282890848";
paths = (
{
closed = 1;
nodes = (
"315 393 OFFCURVE",
"372 484 OFFCURVE",
"372 591 CURVE SMOOTH",
"372 668 OFFCURVE",
"321 715 OFFCURVE",
"248 715 CURVE SMOOTH",
"146 715 OFFCURVE",
"89 622 OFFCURVE",
"89 518 CURVE SMOOTH",
"89 441 OFFCURVE",
"140 393 OFFCURVE",
"213 393 CURVE SMOOTH"
);
},
{
closed = 1;
nodes = (
"170 442 OFFCURVE",
"146 474 OFFCURVE",
"146 525 CURVE SMOOTH",
"146 594 OFFCURVE",
"183 666 OFFCURVE",
"248 666 CURVE SMOOTH",
"290 666 OFFCURVE",
"314 635 OFFCURVE",
"314 584 CURVE SMOOTH",
"314 514 OFFCURVE",
"279 442 OFFCURVE",
"213 442 CURVE SMOOTH"
);
}
);
width = 365;
}
);
note = ordmasculine;
unicode = 00BA;
},
{
glyphname = nmod;
layers = (
{
layerId = "DFC648BE-1420-4AB7-B0BF-55F282890848";
paths = (
{
closed = 1;
nodes = (
"123 397 OFFCURVE",
"140 415 OFFCURVE",
"143 439 CURVE SMOOTH",
"158 537 LINE SMOOTH",
"174 638 OFFCURVE",
"204 666 OFFCURVE",
"246 666 CURVE SMOOTH",
"280 666 OFFCURVE",
"298 648 OFFCURVE",
"298 619 CURVE SMOOTH",
"298 615 OFFCURVE",
"297 610 OFFCURVE",
"296 605 CURVE SMOOTH",
"264 399 LINE",
"271 398 OFFCURVE",
"278 397 OFFCURVE",
"284 397 CURVE SMOOTH",
"308 397 OFFCURVE",
"325 415 OFFCURVE",
"328 439 CURVE SMOOTH",
"354 600 LINE SMOOTH",
"356 610 OFFCURVE",
"357 620 OFFCURVE",
"357 628 CURVE SMOOTH",
"357 686 OFFCURVE",
"319 715 OFFCURVE",
"268 715 CURVE SMOOTH",
"226 715 OFFCURVE",
"198 695 OFFCURVE",
"180 669 CURVE",
"186 709 LINE",
"180 710 OFFCURVE",
"173 711 OFFCURVE",
"167 711 CURVE SMOOTH",
"143 711 OFFCURVE",
"125 693 OFFCURVE",
"121 669 CURVE SMOOTH",
"78 400 LINE",
"86 398 OFFCURVE",
"93 397 OFFCURVE",
"99 397 CURVE SMOOTH"
);
}
);
width = 355;
}
);
note = uni207F;
unicode = 207F;
},
{
glyphname = Delta;
layers = (
{
layerId = "DFC648BE-1420-4AB7-B0BF-55F282890848";
paths = (
{
closed = 1;
nodes = (
"504 0 LINE",
"509 32 LINE",
"371 700 LINE",
"339 700 LINE",
"-11 32 LINE",
"-16 0 LINE"
);
},
{
closed = 1;
nodes = (
"333 562 LINE",
"438 55 LINE",
"68 55 LINE"
);
}
);
width = 568;
}
);
note = Delta;
unicode = 0394;
},
{
glyphname = Omega;
lastChange = "2018-03-12 19:43:52 +0000";
layers = (
{
layerId = "DFC648BE-1420-4AB7-B0BF-55F282890848";
paths = (
{
closed = 1;
nodes = (
"275 0 LINE",
"306 198 LINE",
"215 214 OFFCURVE",
"166 274 OFFCURVE",
"166 374 CURVE SMOOTH",
"166 516 OFFCURVE",
"259 640 OFFCURVE",
"414 640 CURVE SMOOTH",
"527 640 OFFCURVE",
"600 574 OFFCURVE",
"600 460 CURVE SMOOTH",
"600 337 OFFCURVE",
"521 216 OFFCURVE",
"388 198 CURVE",
"357 0 LINE",
"581 0 LINE SMOOTH",
"619 0 OFFCURVE",
"647 22 OFFCURVE",
"647 64 CURVE SMOOTH",
"647 68 OFFCURVE",
"647 72 OFFCURVE",
"646 76 CURVE",
"451 76 LINE",
"462 140 LINE",
"605 186 OFFCURVE",
"693 316 OFFCURVE",
"693 459 CURVE SMOOTH",
"693 618 OFFCURVE",
"583 714 OFFCURVE",
"414 714 CURVE SMOOTH",
"208 714 OFFCURVE",
"73 570 OFFCURVE",
"73 377 CURVE SMOOTH",
"73 252 OFFCURVE",
"129 174 OFFCURVE",
"216 141 CURVE",
"205 76 LINE",
"65 76 LINE SMOOTH",
"27 76 OFFCURVE",
"-1 54 OFFCURVE",
"-1 12 CURVE SMOOTH",
"-1 8 OFFCURVE",
"-1 4 OFFCURVE",
"0 0 CURVE"
);
}
);
width = 714;
}
);
note = Omega;
unicode = 03A9;
},
{
glyphname = mu;
lastChange = "2018-03-12 19:43:52 +0000";
layers = (
{
layerId = "DFC648BE-1420-4AB7-B0BF-55F282890848";
paths = (
{
closed = 1;
nodes = (
"70 -166 OFFCURVE",
"93 -141 OFFCURVE",
"98 -105 CURVE SMOOTH",
"118 19 LINE",
"142 -1 OFFCURVE",
"170 -12 OFFCURVE",
"199 -12 CURVE SMOOTH",
"269 -12 OFFCURVE",
"320 25 OFFCURVE",
"355 73 CURVE",
"343 -2 LINE",
"352 -5 OFFCURVE",
"362 -6 OFFCURVE",
"370 -6 CURVE SMOOTH",
"405 -6 OFFCURVE",
"428 19 OFFCURVE",
"434 55 CURVE SMOOTH",
"506 512 LINE",
"497 515 OFFCURVE",
"487 516 OFFCURVE",
"479 516 CURVE SMOOTH",
"444 516 OFFCURVE",
"421 491 OFFCURVE",
"415 455 CURVE SMOOTH",
"386 274 LINE SMOOTH",
"361 114 OFFCURVE",
"306 56 OFFCURVE",
"230 56 CURVE SMOOTH",
"166 56 OFFCURVE",
"131 97 OFFCURVE",
"141 163 CURVE SMOOTH",
"196 512 LINE",
"187 515 OFFCURVE",
"177 516 OFFCURVE",
"169 516 CURVE SMOOTH",
"134 516 OFFCURVE",
"111 491 OFFCURVE",
"105 455 CURVE SMOOTH",
"7 -162 LINE",
"17 -165 OFFCURVE",
"27 -166 OFFCURVE",
"35 -166 CURVE SMOOTH"
);
}
);
width = 539;
}
);
leftMetricsKey = "=|";
note = mu;
rightMetricsKey = u;
unicode = 03BC;
},
{
glyphname = pi;
lastChange = "2018-03-12 19:43:52 +0000";
layers = (
{
layerId = "DFC648BE-1420-4AB7-B0BF-55F282890848";
paths = (
{
closed = 1;
nodes = (
"463 -8 OFFCURVE",
"502 10 OFFCURVE",
"507 42 CURVE SMOOTH",
"509 58 OFFCURVE",
"502 71 OFFCURVE",
"489 77 CURVE",
"472 70 OFFCURVE",
"457 67 OFFCURVE",
"443 67 CURVE SMOOTH",
"400 67 OFFCURVE",
"387 96 OFFCURVE",
"395 148 CURVE SMOOTH",
"442 446 LINE",
"516 446 LINE SMOOTH",
"544 446 OFFCURVE",
"565 461 OFFCURVE",
"569 488 CURVE SMOOTH",
"570 495 OFFCURVE",
"571 502 OFFCURVE",
"568 510 CURVE",
"128 510 LINE SMOOTH",
"100 510 OFFCURVE",
"78 495 OFFCURVE",
"74 468 CURVE SMOOTH",
"73 461 OFFCURVE",
"73 454 OFFCURVE",
"76 446 CURVE",
"158 446 LINE",
"88 -2 LINE",
"97 -5 OFFCURVE",
"107 -6 OFFCURVE",
"115 -6 CURVE SMOOTH",
"150 -6 OFFCURVE",
"173 19 OFFCURVE",
"179 55 CURVE SMOOTH",
"240 446 LINE",
"360 446 LINE",
"313 148 LINE SMOOTH",
"298 53 OFFCURVE",
"338 -8 OFFCURVE",
"419 -8 CURVE SMOOTH"
);
}
);
width = 580;
}
);
note = pi;
unicode = 03C0;
},
{
glyphname = "koKai-thai";
layers = (
{
anchors = (
{
name = bottom;
position = "{456, 0}";
},
{
name = top;
position = "{527, 510}";
}
);
layerId = "DFC648BE-1420-4AB7-B0BF-55F282890848";
paths = (
{
closed = 1;
nodes = (
"436 -6 OFFCURVE",
"459 19 OFFCURVE",
"465 55 CURVE SMOOTH",
"511 349 LINE SMOOTH",
"518 389 OFFCURVE",
"523 406 OFFCURVE",
"541 420 CURVE",
"537 436 LINE",
"520 440 OFFCURVE",
"508 445 OFFCURVE",
"483 462 CURVE SMOOTH",
"368 540 LINE SMOOTH",
"345 555 OFFCURVE",
"316 562 OFFCURVE",
"286 562 CURVE SMOOTH",
"194 562 OFFCURVE",
"109 495 OFFCURVE",
"48 404 CURVE",
"47 399 LINE",
"89 386 OFFCURVE",
"127 358 OFFCURVE",
"142 321 CURVE",
"195 352 LINE",
"183 390 OFFCURVE",
"149 418 OFFCURVE",
"102 427 CURVE",
"122 395 LINE",
"156 456 OFFCURVE",
"211 494 OFFCURVE",
"270 494 CURVE SMOOTH",
"297 494 OFFCURVE",
"320 486 OFFCURVE",
"342 470 CURVE SMOOTH",
"405 425 LINE SMOOTH",
"435 404 OFFCURVE",
"451 398 OFFCURVE",
"475 396 CURVE",
"464 417 LINE",
"441 398 OFFCURVE",
"434 377 OFFCURVE",
"429 345 CURVE SMOOTH",
"374 -2 LINE",
"383 -5 OFFCURVE",
"393 -6 OFFCURVE",
"400 -6 CURVE SMOOTH"
);
},
{
closed = 1;
nodes = (
"122 -6 OFFCURVE",
"145 19 OFFCURVE",
"151 55 CURVE SMOOTH",
"179 235 LINE SMOOTH",
"193 321 OFFCURVE",
"222 357 OFFCURVE",
"289 375 CURVE",
"290 381 LINE",
"276 390 OFFCURVE",
"259 396 OFFCURVE",
"234 396 CURVE SMOOTH",
"167 396 OFFCURVE",
"116 352 OFFCURVE",
"97 235 CURVE SMOOTH",
"60 -2 LINE",
"69 -5 OFFCURVE",
"79 -6 OFFCURVE",
"86 -6 CURVE SMOOTH"
);
}
);
width = 580;
}
);
note = uni0E01;
unicode = 0E01;
},
{
glyphname = "thoThung-thai";
layers = (
{
anchors = (
{
name = bottom;
position = "{462, 0}";
},
{
name = top;
position = "{533, 510}";
}
);
layerId = "DFC648BE-1420-4AB7-B0BF-55F282890848";
paths = (
{
closed = 1;
nodes = (
"442 -6 OFFCURVE",
"465 19 OFFCURVE",
"471 55 CURVE SMOOTH",
"517 349 LINE SMOOTH",
"524 389 OFFCURVE",
"529 406 OFFCURVE",
"547 420 CURVE",
"543 436 LINE",
"526 440 OFFCURVE",
"514 445 OFFCURVE",
"489 462 CURVE SMOOTH",
"374 540 LINE SMOOTH",
"351 555 OFFCURVE",
"325 562 OFFCURVE",
"294 562 CURVE SMOOTH",
"196 562 OFFCURVE",
"106 492 OFFCURVE",
"46 404 CURVE",
"45 399 LINE",
"87 386 OFFCURVE",
"125 358 OFFCURVE",
"140 321 CURVE",
"193 352 LINE",
"181 390 OFFCURVE",
"147 418 OFFCURVE",
"100 427 CURVE",
"120 395 LINE",
"151 451 OFFCURVE",
"212 494 OFFCURVE",
"276 494 CURVE SMOOTH",
"303 494 OFFCURVE",
"326 486 OFFCURVE",
"348 470 CURVE SMOOTH",
"411 425 LINE SMOOTH",
"441 404 OFFCURVE",
"457 398 OFFCURVE",
"481 396 CURVE",
"470 417 LINE",
"447 398 OFFCURVE",
"440 377 OFFCURVE",
"435 345 CURVE SMOOTH",
"380 -2 LINE",
"389 -5 OFFCURVE",
"399 -6 OFFCURVE",
"406 -6 CURVE SMOOTH"
);
},
{
closed = 1;
nodes = (
"142 40 OFFCURVE",
"128 54 OFFCURVE",
"128 75 CURVE SMOOTH",
"128 106 OFFCURVE",
"151 128 OFFCURVE",
"176 128 CURVE SMOOTH",
"196 128 OFFCURVE",
"210 114 OFFCURVE",
"210 93 CURVE SMOOTH",
"210 62 OFFCURVE",
"187 40 OFFCURVE",
"162 40 CURVE SMOOTH"
);
},
{
closed = 1;
nodes = (
"213 -8 OFFCURVE",
"265 39 OFFCURVE",
"265 102 CURVE SMOOTH",
"265 144 OFFCURVE",
"237 172 OFFCURVE",
"193 172 CURVE SMOOTH",
"161 172 OFFCURVE",
"139 157 OFFCURVE",
"127 137 CURVE",
"152 137 LINE",
"163 161 OFFCURVE",
"168 176 OFFCURVE",
"171 197 CURVE SMOOTH",
"177 235 LINE SMOOTH",
"191 321 OFFCURVE",
"220 357 OFFCURVE",
"287 375 CURVE",
"288 381 LINE",
"274 390 OFFCURVE",
"257 396 OFFCURVE",
"232 396 CURVE SMOOTH",
"165 396 OFFCURVE",
"114 352 OFFCURVE",
"95 235 CURVE SMOOTH",
"73 92 LINE SMOOTH",
"72 84 OFFCURVE",
"71 77 OFFCURVE",
"71 70 CURVE SMOOTH",
"71 22 OFFCURVE",
"101 -8 OFFCURVE",
"151 -8 CURVE SMOOTH"
);
}
);
width = 586;
}
);
note = uni0E16;
rightMetricsKey = "koKai-thai";
unicode = 0E16;
},
{
glyphname = "phoSamphao-thai";
layers = (
{
anchors = (
{
name = bottom;
position = "{486, 0}";
},
{
name = top;
position = "{557, 510}";
}
);
layerId = "DFC648BE-1420-4AB7-B0BF-55F282890848";
paths = (
{
closed = 1;
nodes = (
"466 -6 OFFCURVE",
"489 19 OFFCURVE",
"495 55 CURVE SMOOTH",
"541 349 LINE SMOOTH",
"548 389 OFFCURVE",
"553 406 OFFCURVE",
"571 420 CURVE",
"567 436 LINE",
"550 440 OFFCURVE",
"538 445 OFFCURVE",
"513 462 CURVE SMOOTH",
"398 540 LINE SMOOTH",
"375 555 OFFCURVE",
"346 562 OFFCURVE",
"316 562 CURVE SMOOTH",
"224 562 OFFCURVE",
"131 495 OFFCURVE",
"70 404 CURVE",
"69 399 LINE",
"111 386 OFFCURVE",
"153 358 OFFCURVE",
"172 321 CURVE",
"225 352 LINE",
"209 390 OFFCURVE",
"171 418 OFFCURVE",
"124 427 CURVE",
"144 395 LINE",
"178 456 OFFCURVE",
"241 494 OFFCURVE",
"300 494 CURVE SMOOTH",
"327 494 OFFCURVE",
"350 486 OFFCURVE",
"372 470 CURVE SMOOTH",
"435 425 LINE SMOOTH",
"465 404 OFFCURVE",
"481 398 OFFCURVE",
"505 396 CURVE",
"494 417 LINE",
"471 398 OFFCURVE",
"464 377 OFFCURVE",
"459 345 CURVE SMOOTH",
"404 -2 LINE",
"413 -5 OFFCURVE",
"423 -6 OFFCURVE",
"430 -6 CURVE SMOOTH"
);
},
{
closed = 1;
nodes = (
"68 40 OFFCURVE",
"54 54 OFFCURVE",
"54 75 CURVE SMOOTH",
"54 106 OFFCURVE",
"77 128 OFFCURVE",
"102 128 CURVE SMOOTH",
"122 128 OFFCURVE",
"136 114 OFFCURVE",
"136 93 CURVE SMOOTH",
"136 62 OFFCURVE",
"113 40 OFFCURVE",
"88 40 CURVE SMOOTH"
);
},
{
closed = 1;
nodes = (
"142 -8 OFFCURVE",
"185 31 OFFCURVE",
"195 92 CURVE SMOOTH",
"217 235 LINE SMOOTH",
"231 321 OFFCURVE",
"260 357 OFFCURVE",
"327 375 CURVE",
"328 381 LINE",
"314 390 OFFCURVE",
"297 396 OFFCURVE",
"272 396 CURVE SMOOTH",
"205 396 OFFCURVE",
"154 352 OFFCURVE",
"135 235 CURVE SMOOTH",
"129 197 LINE SMOOTH",
"128 187 OFFCURVE",
"127 178 OFFCURVE",
"127 168 CURVE SMOOTH",
"127 159 OFFCURVE",
"128 149 OFFCURVE",
"130 137 CURVE",
"155 137 LINE",
"149 157 OFFCURVE",
"131 172 OFFCURVE",
"99 172 CURVE SMOOTH",
"44 172 OFFCURVE",
"1 128 OFFCURVE",
"1 69 CURVE SMOOTH",
"1 23 OFFCURVE",
"34 -8 OFFCURVE",
"85 -8 CURVE SMOOTH"
);
}
);
width = 610;
}
);
note = uni0E20;
rightMetricsKey = "koKai-thai";
unicode = 0E20;
},
{
glyphname = "ru-thai";
layers = (
{
anchors = (
{
name = bottom;
position = "{421, -256}";
},
{
name = top;
position = "{533, 510}";
}
);
layerId = "DFC648BE-1420-4AB7-B0BF-55F282890848";
paths = (
{
closed = 1;
nodes = (
"402 -256 OFFCURVE",
"425 -231 OFFCURVE",
"431 -195 CURVE SMOOTH",
"517 349 LINE SMOOTH",
"524 390 OFFCURVE",
"530 407 OFFCURVE",
"547 420 CURVE",
"543 436 LINE",
"526 440 OFFCURVE",
"514 445 OFFCURVE",
"489 462 CURVE SMOOTH",
"374 540 LINE SMOOTH",
"351 555 OFFCURVE",
"325 562 OFFCURVE",
"294 562 CURVE SMOOTH",
"196 562 OFFCURVE",
"106 492 OFFCURVE",
"46 404 CURVE",
"45 399 LINE",
"87 386 OFFCURVE",
"125 358 OFFCURVE",
"140 321 CURVE",
"193 352 LINE",
"181 390 OFFCURVE",
"147 418 OFFCURVE",
"100 427 CURVE",
"120 395 LINE",
"151 451 OFFCURVE",
"212 494 OFFCURVE",
"276 494 CURVE SMOOTH",
"303 494 OFFCURVE",
"326 486 OFFCURVE",
"348 470 CURVE SMOOTH",
"411 425 LINE SMOOTH",
"441 404 OFFCURVE",
"457 398 OFFCURVE",
"481 396 CURVE",
"470 417 LINE",
"447 398 OFFCURVE",
"440 377 OFFCURVE",
"435 345 CURVE SMOOTH",
"340 -252 LINE",
"350 -255 OFFCURVE",
"359 -256 OFFCURVE",
"366 -256 CURVE SMOOTH"
);
},
{
closed = 1;
nodes = (
"142 40 OFFCURVE",
"128 54 OFFCURVE",
"128 76 CURVE SMOOTH",
"128 105 OFFCURVE",
"151 128 OFFCURVE",
"176 128 CURVE SMOOTH",
"196 128 OFFCURVE",
"210 114 OFFCURVE",
"210 92 CURVE SMOOTH",
"210 63 OFFCURVE",
"187 40 OFFCURVE",
"162 40 CURVE SMOOTH"
);
},
{
closed = 1;
nodes = (
"213 -8 OFFCURVE",
"265 40 OFFCURVE",
"265 101 CURVE SMOOTH",
"265 145 OFFCURVE",
"237 172 OFFCURVE",
"193 172 CURVE SMOOTH",
"161 172 OFFCURVE",
"139 157 OFFCURVE",
"127 137 CURVE",
"152 137 LINE",
"164 163 OFFCURVE",
"168 177 OFFCURVE",
"171 197 CURVE SMOOTH",
"177 235 LINE SMOOTH",
"191 321 OFFCURVE",
"220 357 OFFCURVE",
"287 375 CURVE",
"288 381 LINE",
"274 390 OFFCURVE",
"257 396 OFFCURVE",
"232 396 CURVE SMOOTH",
"161 396 OFFCURVE",
"112 345 OFFCURVE",
"95 235 CURVE SMOOTH",
"73 92 LINE SMOOTH",
"72 84 OFFCURVE",
"71 78 OFFCURVE",
"71 70 CURVE SMOOTH",
"71 23 OFFCURVE",
"101 -8 OFFCURVE",
"151 -8 CURVE SMOOTH"
);
}
);
width = 586;
}
);
leftMetricsKey = "thoThung-thai";
note = uni0E24;
rightMetricsKey = "koKai-thai";
unicode = 0E24;
},
{
glyphname = "ru-thai.short";
layers = (
{
anchors = (
{
name = bottom;
position = "{431, -196}";
},
{
name = top;
position = "{533, 510}";
}
);
layerId = "DFC648BE-1420-4AB7-B0BF-55F282890848";
paths = (
{
closed = 1;
nodes = (
"412 -196 OFFCURVE",
"435 -171 OFFCURVE",
"441 -135 CURVE SMOOTH",
"517 349 LINE SMOOTH",
"524 390 OFFCURVE",
"530 407 OFFCURVE",
"547 420 CURVE",
"543 436 LINE",
"526 440 OFFCURVE",
"514 445 OFFCURVE",
"489 462 CURVE SMOOTH",
"374 540 LINE SMOOTH",
"351 555 OFFCURVE",
"325 562 OFFCURVE",
"294 562 CURVE SMOOTH",
"196 562 OFFCURVE",
"106 492 OFFCURVE",
"46 404 CURVE",
"45 399 LINE",
"87 386 OFFCURVE",
"125 358 OFFCURVE",
"140 321 CURVE",
"193 352 LINE",
"181 390 OFFCURVE",
"147 418 OFFCURVE",
"100 427 CURVE",
"120 395 LINE",
"151 451 OFFCURVE",
"212 494 OFFCURVE",
"276 494 CURVE SMOOTH",
"303 494 OFFCURVE",
"326 486 OFFCURVE",
"348 470 CURVE SMOOTH",
"411 425 LINE SMOOTH",
"441 404 OFFCURVE",
"457 398 OFFCURVE",
"481 396 CURVE",
"470 417 LINE",
"447 398 OFFCURVE",
"440 377 OFFCURVE",
"435 345 CURVE SMOOTH",
"350 -192 LINE",
"359 -195 OFFCURVE",
"369 -196 OFFCURVE",
"376 -196 CURVE SMOOTH"
);
},
{
closed = 1;
nodes = (
"142 40 OFFCURVE",
"128 54 OFFCURVE",
"128 76 CURVE SMOOTH",
"128 105 OFFCURVE",
"151 128 OFFCURVE",
"176 128 CURVE SMOOTH",
"196 128 OFFCURVE",
"210 114 OFFCURVE",
"210 92 CURVE SMOOTH",
"210 63 OFFCURVE",
"187 40 OFFCURVE",
"162 40 CURVE SMOOTH"
);
},
{
closed = 1;
nodes = (
"213 -8 OFFCURVE",
"265 40 OFFCURVE",
"265 101 CURVE SMOOTH",
"265 145 OFFCURVE",
"237 172 OFFCURVE",
"193 172 CURVE SMOOTH",
"161 172 OFFCURVE",
"139 157 OFFCURVE",
"127 137 CURVE",
"152 137 LINE",
"164 163 OFFCURVE",
"168 177 OFFCURVE",
"171 197 CURVE SMOOTH",
"177 235 LINE SMOOTH",
"191 321 OFFCURVE",
"220 357 OFFCURVE",
"287 375 CURVE",
"288 381 LINE",
"274 390 OFFCURVE",
"257 396 OFFCURVE",
"232 396 CURVE SMOOTH",
"161 396 OFFCURVE",
"112 345 OFFCURVE",
"95 235 CURVE SMOOTH",
"73 92 LINE SMOOTH",
"72 84 OFFCURVE",
"71 78 OFFCURVE",
"71 70 CURVE SMOOTH",
"71 23 OFFCURVE",
"101 -8 OFFCURVE",
"151 -8 CURVE SMOOTH"
);
}
);
width = 586;
}
);
leftMetricsKey = "ru-thai";
note = "ru-thai.short";
rightMetricsKey = "koKai-thai";
},
{
glyphname = "lu-thai";
layers = (
{
anchors = (
{
name = bottom;
position = "{445, -256}";
},
{
name = top;
position = "{557, 510}";
}
);
layerId = "DFC648BE-1420-4AB7-B0BF-55F282890848";
paths = (
{
closed = 1;
nodes = (
"426 -256 OFFCURVE",
"449 -231 OFFCURVE",
"455 -195 CURVE SMOOTH",
"541 349 LINE SMOOTH",
"548 390 OFFCURVE",
"554 407 OFFCURVE",
"571 420 CURVE",
"567 436 LINE",
"550 440 OFFCURVE",
"538 445 OFFCURVE",
"513 462 CURVE SMOOTH",
"398 540 LINE SMOOTH",
"375 555 OFFCURVE",
"346 562 OFFCURVE",
"316 562 CURVE SMOOTH",
"224 562 OFFCURVE",
"131 495 OFFCURVE",
"70 404 CURVE",
"69 399 LINE",
"111 386 OFFCURVE",
"153 358 OFFCURVE",
"172 321 CURVE",
"225 352 LINE",
"209 390 OFFCURVE",
"171 418 OFFCURVE",
"124 427 CURVE",
"144 395 LINE",
"178 456 OFFCURVE",
"241 494 OFFCURVE",
"300 494 CURVE SMOOTH",
"327 494 OFFCURVE",
"350 486 OFFCURVE",
"372 470 CURVE SMOOTH",
"435 425 LINE SMOOTH",
"465 404 OFFCURVE",
"481 398 OFFCURVE",
"505 396 CURVE",
"494 417 LINE",
"471 398 OFFCURVE",
"464 377 OFFCURVE",
"459 345 CURVE SMOOTH",
"364 -252 LINE",
"374 -255 OFFCURVE",
"383 -256 OFFCURVE",
"390 -256 CURVE SMOOTH"
);
},
{
closed = 1;
nodes = (
"68 40 OFFCURVE",
"54 54 OFFCURVE",
"54 76 CURVE SMOOTH",
"54 105 OFFCURVE",
"77 128 OFFCURVE",
"102 128 CURVE SMOOTH",
"122 128 OFFCURVE",
"136 114 OFFCURVE",
"136 92 CURVE SMOOTH",
"136 63 OFFCURVE",
"113 40 OFFCURVE",
"88 40 CURVE SMOOTH"
);
},
{
closed = 1;
nodes = (
"140 -8 OFFCURVE",
"185 29 OFFCURVE",
"195 92 CURVE SMOOTH",
"217 235 LINE SMOOTH",
"230 318 OFFCURVE",
"259 357 OFFCURVE",
"327 375 CURVE",
"328 381 LINE",
"314 390 OFFCURVE",
"297 396 OFFCURVE",
"272 396 CURVE SMOOTH",
"208 396 OFFCURVE",
"154 355 OFFCURVE",
"135 235 CURVE SMOOTH",
"129 197 LINE SMOOTH",
"128 187 OFFCURVE",
"127 178 OFFCURVE",
"127 168 CURVE SMOOTH",
"127 159 OFFCURVE",
"128 149 OFFCURVE",
"130 137 CURVE",
"155 137 LINE",
"149 157 OFFCURVE",
"131 172 OFFCURVE",
"99 172 CURVE SMOOTH",
"44 172 OFFCURVE",
"1 127 OFFCURVE",
"1 71 CURVE SMOOTH",
"1 22 OFFCURVE",
"34 -8 OFFCURVE",
"84 -8 CURVE SMOOTH"
);
}
);
width = 610;
}
);
leftMetricsKey = "phoSamphao-thai";
note = uni0E26;
rightMetricsKey = "koKai-thai";
unicode = 0E26;
},
{
glyphname = "lu-thai.short";
layers = (
{
anchors = (
{
name = bottom;
position = "{455, -196}";
},
{
name = top;
position = "{557, 510}";
}
);
layerId = "DFC648BE-1420-4AB7-B0BF-55F282890848";
paths = (
{
closed = 1;
nodes = (
"436 -196 OFFCURVE",
"459 -171 OFFCURVE",
"465 -135 CURVE SMOOTH",
"541 349 LINE SMOOTH",
"548 390 OFFCURVE",
"554 407 OFFCURVE",
"571 420 CURVE",
"567 436 LINE",
"550 440 OFFCURVE",
"538 445 OFFCURVE",
"513 462 CURVE SMOOTH",
"398 540 LINE SMOOTH",
"375 555 OFFCURVE",
"346 562 OFFCURVE",
"316 562 CURVE SMOOTH",
"224 562 OFFCURVE",
"131 495 OFFCURVE",
"70 404 CURVE",
"69 399 LINE",
"111 386 OFFCURVE",
"153 358 OFFCURVE",
"172 321 CURVE",
"225 352 LINE",
"209 390 OFFCURVE",
"171 418 OFFCURVE",
"124 427 CURVE",
"144 395 LINE",
"178 456 OFFCURVE",
"241 494 OFFCURVE",
"300 494 CURVE SMOOTH",
"327 494 OFFCURVE",
"350 486 OFFCURVE",
"372 470 CURVE SMOOTH",
"435 425 LINE SMOOTH",
"465 404 OFFCURVE",
"481 398 OFFCURVE",
"505 396 CURVE",
"494 417 LINE",
"471 398 OFFCURVE",
"464 377 OFFCURVE",
"459 345 CURVE SMOOTH",
"374 -192 LINE",
"383 -195 OFFCURVE",
"393 -196 OFFCURVE",
"400 -196 CURVE SMOOTH"
);
},
{
closed = 1;
nodes = (
"68 40 OFFCURVE",
"54 54 OFFCURVE",
"54 76 CURVE SMOOTH",
"54 105 OFFCURVE",
"77 128 OFFCURVE",
"102 128 CURVE SMOOTH",
"122 128 OFFCURVE",
"136 114 OFFCURVE",
"136 92 CURVE SMOOTH",
"136 63 OFFCURVE",
"113 40 OFFCURVE",
"88 40 CURVE SMOOTH"
);
},
{
closed = 1;
nodes = (
"140 -8 OFFCURVE",
"185 29 OFFCURVE",
"195 92 CURVE SMOOTH",
"217 235 LINE SMOOTH",
"230 318 OFFCURVE",
"259 357 OFFCURVE",
"327 375 CURVE",
"328 381 LINE",
"314 390 OFFCURVE",
"297 396 OFFCURVE",
"272 396 CURVE SMOOTH",
"208 396 OFFCURVE",
"154 355 OFFCURVE",
"135 235 CURVE SMOOTH",
"129 197 LINE SMOOTH",
"128 187 OFFCURVE",
"127 178 OFFCURVE",
"127 168 CURVE SMOOTH",
"127 159 OFFCURVE",
"128 149 OFFCURVE",
"130 137 CURVE",
"155 137 LINE",
"149 157 OFFCURVE",
"131 172 OFFCURVE",
"99 172 CURVE SMOOTH",
"44 172 OFFCURVE",
"1 127 OFFCURVE",
"1 71 CURVE SMOOTH",
"1 22 OFFCURVE",
"34 -8 OFFCURVE",
"84 -8 CURVE SMOOTH"
);
}
);
width = 610;
}
);
leftMetricsKey = "phoSamphao-thai";
note = "lu-thai.short";
rightMetricsKey = "koKai-thai";
},
{
glyphname = "doChada-thai";
layers = (
{
anchors = (
{
name = bottom;
position = "{445, -256}";
},
{
name = top;
position = "{557, 510}";
}
);
layerId = "DFC648BE-1420-4AB7-B0BF-55F282890848";
paths = (
{
closed = 1;
nodes = (
"209 -260 OFFCURVE",
"292 -179 OFFCURVE",
"321 -81 CURVE SMOOTH",
"324 -71 OFFCURVE",
"327 -58 OFFCURVE",
"327 -49 CURVE SMOOTH",
"327 -31 OFFCURVE",
"315 -19 OFFCURVE",
"292 -12 CURVE",
"241 -148 OFFCURVE",
"194 -208 OFFCURVE",
"133 -208 CURVE SMOOTH",
"106 -208 OFFCURVE",
"89 -196 OFFCURVE",
"89 -171 CURVE SMOOTH",
"89 -138 OFFCURVE",
"120 -114 OFFCURVE",
"172 -114 CURVE SMOOTH",
"241 -114 OFFCURVE",
"326 -155 OFFCURVE",
"379 -256 CURVE",
"421 -256 OFFCURVE",
"450 -229 OFFCURVE",
"457 -184 CURVE SMOOTH",
"541 349 LINE SMOOTH",
"548 390 OFFCURVE",
"554 407 OFFCURVE",
"571 420 CURVE",
"567 436 LINE",
"550 440 OFFCURVE",
"538 445 OFFCURVE",
"513 462 CURVE SMOOTH",
"398 540 LINE SMOOTH",
"375 555 OFFCURVE",
"346 562 OFFCURVE",
"316 562 CURVE SMOOTH",
"224 562 OFFCURVE",
"131 495 OFFCURVE",
"70 404 CURVE",
"69 399 LINE",
"111 386 OFFCURVE",
"153 358 OFFCURVE",
"172 321 CURVE",
"225 352 LINE",
"209 390 OFFCURVE",
"171 418 OFFCURVE",
"124 427 CURVE",
"144 395 LINE",
"178 456 OFFCURVE",
"241 494 OFFCURVE",
"300 494 CURVE SMOOTH",
"327 494 OFFCURVE",
"350 486 OFFCURVE",
"372 470 CURVE SMOOTH",
"435 425 LINE SMOOTH",
"465 404 OFFCURVE",
"481 398 OFFCURVE",
"505 396 CURVE",
"494 417 LINE",
"471 398 OFFCURVE",
"464 377 OFFCURVE",
"459 345 CURVE SMOOTH",
"370 -213 LINE",
"403 -198 LINE",
"342 -102 OFFCURVE",
"261 -60 OFFCURVE",
"176 -60 CURVE SMOOTH",
"82 -60 OFFCURVE",
"17 -112 OFFCURVE",
"17 -176 CURVE SMOOTH",
"17 -228 OFFCURVE",
"59 -260 OFFCURVE",
"117 -260 CURVE SMOOTH"
);
},
{
closed = 1;
nodes = (
"68 40 OFFCURVE",
"54 54 OFFCURVE",
"54 76 CURVE SMOOTH",
"54 105 OFFCURVE",
"77 128 OFFCURVE",
"102 128 CURVE SMOOTH",
"122 128 OFFCURVE",
"136 114 OFFCURVE",
"136 92 CURVE SMOOTH",
"136 63 OFFCURVE",
"113 40 OFFCURVE",
"88 40 CURVE SMOOTH"
);
},
{
closed = 1;
nodes = (
"140 -8 OFFCURVE",
"185 29 OFFCURVE",
"195 92 CURVE SMOOTH",
"217 235 LINE SMOOTH",
"230 318 OFFCURVE",
"259 357 OFFCURVE",
"327 375 CURVE",
"328 381 LINE",
"314 390 OFFCURVE",
"297 396 OFFCURVE",
"272 396 CURVE SMOOTH",
"208 396 OFFCURVE",
"154 355 OFFCURVE",
"135 235 CURVE SMOOTH",
"129 197 LINE SMOOTH",
"128 187 OFFCURVE",
"127 178 OFFCURVE",
"127 168 CURVE SMOOTH",
"127 159 OFFCURVE",
"128 149 OFFCURVE",
"130 137 CURVE",
"155 137 LINE",
"149 157 OFFCURVE",
"131 172 OFFCURVE",
"99 172 CURVE SMOOTH",
"44 172 OFFCURVE",
"1 127 OFFCURVE",
"1 71 CURVE SMOOTH",
"1 22 OFFCURVE",
"34 -8 OFFCURVE",
"84 -8 CURVE SMOOTH"
);
}
);
width = 610;
}
);
leftMetricsKey = "phoSamphao-thai";
note = uni0E0E;
rightMetricsKey = "koKai-thai";
unicode = 0E0E;
},
{
glyphname = "doChada-thai.short";
layers = (
{
anchors = (
{
name = bottom;
position = "{455, -196}";
},
{
name = top;
position = "{557, 510}";
}
);
layerId = "DFC648BE-1420-4AB7-B0BF-55F282890848";
paths = (
{
closed = 1;
nodes = (
"219 -200 OFFCURVE",
"303 -116 OFFCURVE",
"331 -21 CURVE SMOOTH",
"334 -11 OFFCURVE",
"337 2 OFFCURVE",
"337 11 CURVE SMOOTH",
"337 29 OFFCURVE",
"325 41 OFFCURVE",
"302 48 CURVE",
"250 -88 OFFCURVE",
"204 -148 OFFCURVE",
"144 -148 CURVE SMOOTH",
"117 -148 OFFCURVE",
"98 -136 OFFCURVE",
"98 -111 CURVE SMOOTH",
"98 -78 OFFCURVE",
"129 -54 OFFCURVE",
"181 -54 CURVE SMOOTH",
"250 -54 OFFCURVE",
"336 -95 OFFCURVE",
"389 -196 CURVE",
"431 -196 OFFCURVE",
"459 -169 OFFCURVE",
"466 -124 CURVE SMOOTH",
"541 349 LINE SMOOTH",
"548 390 OFFCURVE",
"554 407 OFFCURVE",
"571 420 CURVE",
"567 436 LINE",
"550 440 OFFCURVE",
"538 445 OFFCURVE",
"513 462 CURVE SMOOTH",
"398 540 LINE SMOOTH",
"375 555 OFFCURVE",
"346 562 OFFCURVE",
"316 562 CURVE SMOOTH",
"224 562 OFFCURVE",
"131 495 OFFCURVE",
"70 404 CURVE",
"69 399 LINE",
"111 386 OFFCURVE",
"153 358 OFFCURVE",
"172 321 CURVE",
"225 352 LINE",
"209 390 OFFCURVE",
"171 418 OFFCURVE",
"124 427 CURVE",
"144 395 LINE",
"178 456 OFFCURVE",
"241 494 OFFCURVE",
"300 494 CURVE SMOOTH",
"327 494 OFFCURVE",
"350 486 OFFCURVE",
"372 470 CURVE SMOOTH",
"435 425 LINE SMOOTH",
"465 404 OFFCURVE",
"481 398 OFFCURVE",
"505 396 CURVE",
"494 417 LINE",
"471 398 OFFCURVE",
"464 377 OFFCURVE",
"459 345 CURVE SMOOTH",
"380 -153 LINE",
"412 -138 LINE",
"351 -42 OFFCURVE",
"271 0 OFFCURVE",
"186 0 CURVE SMOOTH",
"92 0 OFFCURVE",
"27 -52 OFFCURVE",
"27 -117 CURVE SMOOTH",
"27 -168 OFFCURVE",
"68 -200 OFFCURVE",
"126 -200 CURVE SMOOTH"
);
},
{
closed = 1;
nodes = (
"69 60 OFFCURVE",
"54 78 OFFCURVE",
"58 104 CURVE SMOOTH",
"62 129 OFFCURVE",
"82 148 OFFCURVE",
"105 148 CURVE SMOOTH",
"124 148 OFFCURVE",
"139 136 OFFCURVE",
"139 112 CURVE SMOOTH",
"139 84 OFFCURVE",
"118 60 OFFCURVE",
"92 60 CURVE SMOOTH"
);
},
{
closed = 1;
nodes = (
"143 12 OFFCURVE",
"188 49 OFFCURVE",
"198 112 CURVE SMOOTH",
"217 235 LINE SMOOTH",
"231 321 OFFCURVE",
"260 357 OFFCURVE",
"327 375 CURVE",
"328 381 LINE",
"314 390 OFFCURVE",
"297 396 OFFCURVE",
"272 396 CURVE SMOOTH",
"202 396 OFFCURVE",
"154 349 OFFCURVE",
"135 235 CURVE SMOOTH",
"132 217 LINE SMOOTH",
"131 209 OFFCURVE",
"130 197 OFFCURVE",
"130 189 CURVE SMOOTH",
"130 181 OFFCURVE",
"131 170 OFFCURVE",
"133 157 CURVE",
"158 157 LINE",
"152 177 OFFCURVE",
"134 192 OFFCURVE",
"102 192 CURVE SMOOTH",
"47 192 OFFCURVE",
"4 147 OFFCURVE",
"4 91 CURVE SMOOTH",
"4 42 OFFCURVE",
"37 12 OFFCURVE",
"87 12 CURVE SMOOTH"
);
}
);
width = 610;
}
);
leftMetricsKey = "phoSamphao-thai";
note = "doChada-thai.short";
rightMetricsKey = "koKai-thai";
},
{
glyphname = "toPatak-thai";
layers = (
{
anchors = (
{
name = bottom;
position = "{446, -250}";
},
{
name = top;
position = "{557, 510}";
}
);
layerId = "DFC648BE-1420-4AB7-B0BF-55F282890848";
paths = (
{
closed = 1;
nodes = (
"253 -250 LINE",
"254 -185 OFFCURVE",
"273 -156 OFFCURVE",
"305 -156 CURVE SMOOTH",
"338 -156 OFFCURVE",
"370 -186 OFFCURVE",
"380 -250 CURVE",
"422 -250 OFFCURVE",
"451 -223 OFFCURVE",
"458 -178 CURVE SMOOTH",
"541 349 LINE SMOOTH",
"548 390 OFFCURVE",
"554 407 OFFCURVE",
"571 420 CURVE",
"567 436 LINE",
"550 440 OFFCURVE",
"538 445 OFFCURVE",
"513 462 CURVE SMOOTH",
"398 540 LINE SMOOTH",
"375 555 OFFCURVE",
"346 562 OFFCURVE",
"316 562 CURVE SMOOTH",
"224 562 OFFCURVE",
"131 495 OFFCURVE",
"70 404 CURVE",
"69 399 LINE",
"111 386 OFFCURVE",
"153 358 OFFCURVE",
"172 321 CURVE",
"225 352 LINE",
"209 390 OFFCURVE",
"171 418 OFFCURVE",
"124 427 CURVE",
"144 395 LINE",
"178 456 OFFCURVE",
"241 494 OFFCURVE",
"300 494 CURVE SMOOTH",
"327 494 OFFCURVE",
"350 486 OFFCURVE",
"372 470 CURVE SMOOTH",
"435 425 LINE SMOOTH",
"465 404 OFFCURVE",
"481 398 OFFCURVE",
"505 396 CURVE",
"494 417 LINE",
"471 398 OFFCURVE",
"464 377 OFFCURVE",
"459 345 CURVE SMOOTH",
"376 -179 LINE",
"407 -189 LINE",
"377 -108 OFFCURVE",
"329 -100 OFFCURVE",
"303 -100 CURVE SMOOTH",
"263 -100 OFFCURVE",
"227 -126 OFFCURVE",
"222 -184 CURVE SMOOTH",
"221 -194 OFFCURVE",
"223 -206 OFFCURVE",
"226 -219 CURVE",
"250 -214 LINE",
"223 -125 OFFCURVE",
"165 -76 OFFCURVE",
"95 -76 CURVE SMOOTH",
"31 -76 OFFCURVE",
"-14 -113 OFFCURVE",
"-14 -161 CURVE SMOOTH",
"-14 -205 OFFCURVE",
"23 -236 OFFCURVE",
"66 -236 CURVE SMOOTH",
"139 -236 OFFCURVE",
"187 -193 OFFCURVE",
"217 -102 CURVE SMOOTH",
"220 -93 OFFCURVE",
"222 -85 OFFCURVE",
"222 -77 CURVE SMOOTH",
"222 -62 OFFCURVE",
"215 -49 OFFCURVE",
"191 -40 CURVE",
"164 -132 OFFCURVE",
"126 -192 OFFCURVE",
"86 -192 CURVE SMOOTH",
"66 -192 OFFCURVE",
"48 -180 OFFCURVE",
"48 -160 CURVE SMOOTH",
"48 -136 OFFCURVE",
"65 -124 OFFCURVE",
"88 -124 CURVE SMOOTH",
"133 -124 OFFCURVE",
"187 -169 OFFCURVE",
"229 -250 CURVE"
);
},
{
closed = 1;
nodes = (
"68 40 OFFCURVE",
"54 54 OFFCURVE",
"54 76 CURVE SMOOTH",
"54 105 OFFCURVE",
"77 128 OFFCURVE",
"102 128 CURVE SMOOTH",
"122 128 OFFCURVE",
"136 114 OFFCURVE",
"136 92 CURVE SMOOTH",
"136 63 OFFCURVE",
"113 40 OFFCURVE",
"88 40 CURVE SMOOTH"
);
},
{
closed = 1;
nodes = (
"140 -8 OFFCURVE",
"185 29 OFFCURVE",
"195 92 CURVE SMOOTH",
"217 235 LINE SMOOTH",
"230 318 OFFCURVE",
"259 357 OFFCURVE",
"327 375 CURVE",
"328 381 LINE",
"314 390 OFFCURVE",
"297 396 OFFCURVE",
"272 396 CURVE SMOOTH",
"208 396 OFFCURVE",
"154 355 OFFCURVE",
"135 235 CURVE SMOOTH",
"129 197 LINE SMOOTH",
"128 187 OFFCURVE",
"127 178 OFFCURVE",
"127 168 CURVE SMOOTH",
"127 159 OFFCURVE",
"128 149 OFFCURVE",
"130 137 CURVE",
"155 137 LINE",
"149 157 OFFCURVE",
"131 172 OFFCURVE",
"99 172 CURVE SMOOTH",
"44 172 OFFCURVE",
"1 127 OFFCURVE",
"1 71 CURVE SMOOTH",
"1 22 OFFCURVE",
"34 -8 OFFCURVE",
"84 -8 CURVE SMOOTH"
);
}
);
width = 610;
}
);
leftMetricsKey = "phoSamphao-thai";
note = uni0E0F;
rightMetricsKey = "koKai-thai";
unicode = 0E0F;
},
{
glyphname = "toPatak-thai.short";
layers = (
{
anchors = (
{
name = bottom;
position = "{456, -190}";
},
{
name = top;
position = "{557, 510}";
}
);
layerId = "DFC648BE-1420-4AB7-B0BF-55F282890848";
paths = (
{
closed = 1;
nodes = (
"263 -190 LINE",
"263 -123 OFFCURVE",
"284 -96 OFFCURVE",
"315 -96 CURVE SMOOTH",
"349 -96 OFFCURVE",
"380 -129 OFFCURVE",
"390 -190 CURVE",
"432 -190 OFFCURVE",
"460 -163 OFFCURVE",
"467 -118 CURVE SMOOTH",
"541 349 LINE SMOOTH",
"548 390 OFFCURVE",
"554 407 OFFCURVE",
"571 420 CURVE",
"567 436 LINE",
"550 440 OFFCURVE",
"538 445 OFFCURVE",
"513 462 CURVE SMOOTH",
"398 540 LINE SMOOTH",
"375 555 OFFCURVE",
"346 562 OFFCURVE",
"316 562 CURVE SMOOTH",
"224 562 OFFCURVE",
"131 495 OFFCURVE",
"70 404 CURVE",
"69 399 LINE",
"111 386 OFFCURVE",
"153 358 OFFCURVE",
"172 321 CURVE",
"225 352 LINE",
"209 390 OFFCURVE",
"171 418 OFFCURVE",
"124 427 CURVE",
"144 395 LINE",
"178 456 OFFCURVE",
"241 494 OFFCURVE",
"300 494 CURVE SMOOTH",
"327 494 OFFCURVE",
"350 486 OFFCURVE",
"372 470 CURVE SMOOTH",
"435 425 LINE SMOOTH",
"465 404 OFFCURVE",
"481 398 OFFCURVE",
"505 396 CURVE",
"494 417 LINE",
"471 398 OFFCURVE",
"464 377 OFFCURVE",
"459 345 CURVE SMOOTH",
"385 -119 LINE",
"417 -129 LINE",
"388 -52 OFFCURVE",
"342 -40 OFFCURVE",
"313 -40 CURVE SMOOTH",
"262 -40 OFFCURVE",
"235 -79 OFFCURVE",
"232 -123 CURVE SMOOTH",
"231 -135 OFFCURVE",
"233 -146 OFFCURVE",
"236 -159 CURVE",
"260 -154 LINE",
"234 -68 OFFCURVE",
"177 -16 OFFCURVE",
"103 -16 CURVE SMOOTH",
"39 -16 OFFCURVE",
"-4 -55 OFFCURVE",
"-4 -102 CURVE SMOOTH",
"-4 -145 OFFCURVE",
"31 -176 OFFCURVE",
"76 -176 CURVE SMOOTH",
"129 -176 OFFCURVE",
"197 -133 OFFCURVE",
"226 -42 CURVE SMOOTH",
"229 -33 OFFCURVE",
"231 -24 OFFCURVE",
"231 -16 CURVE SMOOTH",
"231 -2 OFFCURVE",
"224 11 OFFCURVE",
"200 20 CURVE",
"176 -71 OFFCURVE",
"131 -132 OFFCURVE",
"92 -132 CURVE SMOOTH",
"74 -132 OFFCURVE",
"59 -118 OFFCURVE",
"58 -100 CURVE SMOOTH",
"57 -84 OFFCURVE",
"70 -64 OFFCURVE",
"100 -64 CURVE SMOOTH",
"145 -64 OFFCURVE",
"197 -109 OFFCURVE",
"239 -190 CURVE"
);
},
{
closed = 1;
nodes = (
"69 60 OFFCURVE",
"54 78 OFFCURVE",
"58 104 CURVE SMOOTH",
"62 129 OFFCURVE",
"82 148 OFFCURVE",
"105 148 CURVE SMOOTH",
"124 148 OFFCURVE",
"139 136 OFFCURVE",
"139 112 CURVE SMOOTH",
"139 84 OFFCURVE",
"118 60 OFFCURVE",
"92 60 CURVE SMOOTH"
);
},
{
closed = 1;
nodes = (
"143 12 OFFCURVE",
"188 49 OFFCURVE",
"198 112 CURVE SMOOTH",
"217 235 LINE SMOOTH",
"231 321 OFFCURVE",
"260 357 OFFCURVE",
"327 375 CURVE",
"328 381 LINE",
"314 390 OFFCURVE",
"297 396 OFFCURVE",
"272 396 CURVE SMOOTH",
"202 396 OFFCURVE",
"154 349 OFFCURVE",
"135 235 CURVE SMOOTH",
"132 217 LINE SMOOTH",
"131 209 OFFCURVE",
"130 197 OFFCURVE",
"130 189 CURVE SMOOTH",
"130 181 OFFCURVE",
"131 170 OFFCURVE",
"133 157 CURVE",
"158 157 LINE",
"152 177 OFFCURVE",
"134 192 OFFCURVE",
"102 192 CURVE SMOOTH",
"47 192 OFFCURVE",
"4 147 OFFCURVE",
"4 91 CURVE SMOOTH",
"4 42 OFFCURVE",
"37 12 OFFCURVE",
"87 12 CURVE SMOOTH"
);
}
);
width = 610;
}
);
leftMetricsKey = "phoSamphao-thai";
note = "toPatak-thai.short";
rightMetricsKey = "koKai-thai";
},
{
glyphname = "ru_lakkhangyao-thai";
layers = (
{
layerId = "DFC648BE-1420-4AB7-B0BF-55F282890848";
paths = (
{
closed = 1;
nodes = (
"402 -256 OFFCURVE",
"425 -231 OFFCURVE",
"431 -195 CURVE SMOOTH",
"517 349 LINE SMOOTH",
"522 379 OFFCURVE",
"532 411 OFFCURVE",
"545 427 CURVE",
"543 436 LINE",
"526 440 OFFCURVE",
"514 445 OFFCURVE",
"489 462 CURVE SMOOTH",
"374 540 LINE SMOOTH",
"351 555 OFFCURVE",
"325 562 OFFCURVE",
"294 562 CURVE SMOOTH",
"196 562 OFFCURVE",
"106 492 OFFCURVE",
"46 404 CURVE",
"45 399 LINE",
"87 386 OFFCURVE",
"125 358 OFFCURVE",
"140 321 CURVE",
"193 352 LINE",
"181 390 OFFCURVE",
"147 418 OFFCURVE",
"100 427 CURVE",
"120 395 LINE",
"151 451 OFFCURVE",
"212 494 OFFCURVE",
"276 494 CURVE SMOOTH",
"303 494 OFFCURVE",
"326 486 OFFCURVE",
"348 470 CURVE SMOOTH",
"411 425 LINE SMOOTH",
"441 404 OFFCURVE",
"457 398 OFFCURVE",
"481 396 CURVE",
"470 417 LINE",
"447 398 OFFCURVE",
"440 377 OFFCURVE",
"435 345 CURVE SMOOTH",
"340 -252 LINE",
"350 -255 OFFCURVE",
"359 -256 OFFCURVE",
"366 -256 CURVE SMOOTH"
);
},
{
closed = 1;
nodes = (
"142 40 OFFCURVE",
"128 54 OFFCURVE",
"128 76 CURVE SMOOTH",
"128 105 OFFCURVE",
"151 128 OFFCURVE",
"176 128 CURVE SMOOTH",
"196 128 OFFCURVE",
"210 114 OFFCURVE",
"210 92 CURVE SMOOTH",
"210 63 OFFCURVE",
"187 40 OFFCURVE",
"162 40 CURVE SMOOTH"
);
},
{
closed = 1;
nodes = (
"213 -8 OFFCURVE",
"265 40 OFFCURVE",
"265 101 CURVE SMOOTH",
"265 145 OFFCURVE",
"237 172 OFFCURVE",
"193 172 CURVE SMOOTH",
"161 172 OFFCURVE",
"139 157 OFFCURVE",
"127 137 CURVE",
"152 137 LINE",
"164 163 OFFCURVE",
"168 176 OFFCURVE",
"171 197 CURVE SMOOTH",
"177 235 LINE SMOOTH",
"191 321 OFFCURVE",
"220 357 OFFCURVE",
"287 375 CURVE",
"288 381 LINE",
"274 390 OFFCURVE",
"257 396 OFFCURVE",
"232 396 CURVE SMOOTH",
"161 396 OFFCURVE",
"112 345 OFFCURVE",
"95 235 CURVE SMOOTH",
"73 92 LINE SMOOTH",
"72 84 OFFCURVE",
"71 78 OFFCURVE",
"71 70 CURVE SMOOTH",
"71 23 OFFCURVE",
"101 -8 OFFCURVE",
"151 -8 CURVE SMOOTH"
);
},
{
closed = 1;
nodes = (
"707 -256 OFFCURVE",
"730 -231 OFFCURVE",
"736 -195 CURVE SMOOTH",
"825 369 LINE SMOOTH",
"832 410 OFFCURVE",
"838 427 OFFCURVE",
"855 440 CURVE",
"851 456 LINE",
"838 459 OFFCURVE",
"826 465 OFFCURVE",
"803 485 CURVE SMOOTH",
"747 534 LINE SMOOTH",
"722 556 OFFCURVE",
"692 562 OFFCURVE",
"670 562 CURVE SMOOTH",
"602 562 OFFCURVE",
"521 507 OFFCURVE",
"475 439 CURVE",
"521 371 LINE",
"534 427 OFFCURVE",
"584 494 OFFCURVE",
"652 494 CURVE SMOOTH",
"668 494 OFFCURVE",
"685 490 OFFCURVE",
"699 478 CURVE SMOOTH",
"740 443 LINE SMOOTH",
"758 428 OFFCURVE",
"772 423 OFFCURVE",
"794 420 CURVE",
"778 437 LINE",
"755 418 OFFCURVE",
"748 397 OFFCURVE",
"743 365 CURVE SMOOTH",
"645 -252 LINE",
"655 -255 OFFCURVE",
"664 -256 OFFCURVE",
"671 -256 CURVE SMOOTH"
);
}
);
width = 891;
}
);
leftMetricsKey = "thoThung-thai";
note = "ru_lakkhangyao-thai";
rightMetricsKey = "koKai-thai";
},
{
glyphname = "lu_lakkhangyao-thai";
layers = (
{
layerId = "DFC648BE-1420-4AB7-B0BF-55F282890848";
paths = (
{
closed = 1;
nodes = (
"426 -256 OFFCURVE",
"449 -231 OFFCURVE",
"455 -195 CURVE SMOOTH",
"541 349 LINE SMOOTH",
"547 384 OFFCURVE",
"557 412 OFFCURVE",
"569 427 CURVE",
"567 436 LINE",
"550 440 OFFCURVE",
"538 445 OFFCURVE",
"513 462 CURVE SMOOTH",
"398 540 LINE SMOOTH",
"375 555 OFFCURVE",
"346 562 OFFCURVE",
"316 562 CURVE SMOOTH",
"224 562 OFFCURVE",
"131 495 OFFCURVE",
"70 404 CURVE",
"69 399 LINE",
"111 386 OFFCURVE",
"153 358 OFFCURVE",
"172 321 CURVE",
"225 352 LINE",
"209 390 OFFCURVE",
"171 418 OFFCURVE",
"124 427 CURVE",
"144 395 LINE",
"178 456 OFFCURVE",
"241 494 OFFCURVE",
"300 494 CURVE SMOOTH",
"327 494 OFFCURVE",
"350 486 OFFCURVE",
"372 470 CURVE SMOOTH",
"435 425 LINE SMOOTH",
"465 404 OFFCURVE",
"481 398 OFFCURVE",
"505 396 CURVE",
"494 417 LINE",
"471 398 OFFCURVE",
"464 377 OFFCURVE",
"459 345 CURVE SMOOTH",
"364 -252 LINE",
"374 -255 OFFCURVE",
"383 -256 OFFCURVE",
"390 -256 CURVE SMOOTH"
);
},
{
closed = 1;
nodes = (
"68 40 OFFCURVE",
"54 54 OFFCURVE",
"54 76 CURVE SMOOTH",
"54 105 OFFCURVE",
"77 128 OFFCURVE",
"102 128 CURVE SMOOTH",
"122 128 OFFCURVE",
"136 114 OFFCURVE",
"136 92 CURVE SMOOTH",
"136 63 OFFCURVE",
"113 40 OFFCURVE",
"88 40 CURVE SMOOTH"
);
},
{
closed = 1;
nodes = (
"140 -8 OFFCURVE",
"185 29 OFFCURVE",
"195 92 CURVE SMOOTH",
"217 235 LINE SMOOTH",
"230 318 OFFCURVE",
"259 357 OFFCURVE",
"327 375 CURVE",
"328 381 LINE",
"314 390 OFFCURVE",
"297 396 OFFCURVE",
"272 396 CURVE SMOOTH",
"208 396 OFFCURVE",
"154 355 OFFCURVE",
"135 235 CURVE SMOOTH",
"129 197 LINE SMOOTH",
"128 187 OFFCURVE",
"127 178 OFFCURVE",
"127 168 CURVE SMOOTH",
"127 159 OFFCURVE",
"128 149 OFFCURVE",
"130 137 CURVE",
"155 137 LINE",
"149 157 OFFCURVE",
"131 172 OFFCURVE",
"99 172 CURVE SMOOTH",
"44 172 OFFCURVE",
"1 127 OFFCURVE",
"1 71 CURVE SMOOTH",
"1 22 OFFCURVE",
"34 -8 OFFCURVE",
"84 -8 CURVE SMOOTH"
);
},
{
closed = 1;
nodes = (
"731 -256 OFFCURVE",
"754 -231 OFFCURVE",
"760 -195 CURVE SMOOTH",
"849 369 LINE SMOOTH",
"856 410 OFFCURVE",
"862 427 OFFCURVE",
"879 440 CURVE",
"875 456 LINE",
"859 459 OFFCURVE",
"844 470 OFFCURVE",
"827 485 CURVE SMOOTH",
"771 534 LINE SMOOTH",
"746 556 OFFCURVE",
"716 562 OFFCURVE",
"694 562 CURVE SMOOTH",
"626 562 OFFCURVE",
"545 507 OFFCURVE",
"499 439 CURVE",
"545 371 LINE",
"558 427 OFFCURVE",
"608 494 OFFCURVE",
"676 494 CURVE SMOOTH",
"692 494 OFFCURVE",
"709 490 OFFCURVE",
"723 478 CURVE SMOOTH",
"764 443 LINE SMOOTH",
"782 428 OFFCURVE",
"796 423 OFFCURVE",
"818 420 CURVE",
"802 437 LINE",
"779 418 OFFCURVE",
"772 397 OFFCURVE",
"767 365 CURVE SMOOTH",
"669 -252 LINE",
"679 -255 OFFCURVE",
"688 -256 OFFCURVE",
"695 -256 CURVE SMOOTH"
);
}
);
width = 915;
}
);
leftMetricsKey = "phoSamphao-thai";
note = "lu_lakkhangyao-thai";
rightMetricsKey = "koKai-thai";
},
{
glyphname = "yoYing-thai";
layers = (
{
anchors = (
{
name = bottom;
position = "{673, -260}";
},
{
name = top;
position = "{805, 510}";
}
);
layerId = "DFC648BE-1420-4AB7-B0BF-55F282890848";
paths = (
{
closed = 1;
nodes = (
"604 -260 OFFCURVE",
"695 -181 OFFCURVE",
"714 -60 CURVE SMOOTH",
"811 550 LINE",
"802 553 OFFCURVE",
"792 554 OFFCURVE",
"785 554 CURVE SMOOTH",
"749 554 OFFCURVE",
"726 529 OFFCURVE",
"720 493 CURVE SMOOTH",
"669 172 LINE SMOOTH",
"658 104 OFFCURVE",
"613 66 OFFCURVE",
"541 66 CURVE SMOOTH",
"501 66 OFFCURVE",
"469 78 OFFCURVE",
"424 78 CURVE",
"425 38 LINE",
"457 80 OFFCURVE",
"468 142 OFFCURVE",
"476 192 CURVE SMOOTH",
"502 355 LINE SMOOTH",
"508 395 OFFCURVE",
"515 411 OFFCURVE",
"532 425 CURVE",
"529 441 LINE",
"515 444 OFFCURVE",
"505 447 OFFCURVE",
"475 467 CURVE SMOOTH",
"366 540 LINE SMOOTH",
"344 555 OFFCURVE",
"316 562 OFFCURVE",
"286 562 CURVE SMOOTH",
"193 562 OFFCURVE",
"109 495 OFFCURVE",
"46 404 CURVE",
"45 399 LINE",
"87 386 OFFCURVE",
"125 358 OFFCURVE",
"140 321 CURVE",
"193 352 LINE",
"181 390 OFFCURVE",
"147 418 OFFCURVE",
"100 427 CURVE",
"120 395 LINE",
"155 455 OFFCURVE",
"209 494 OFFCURVE",
"267 494 CURVE SMOOTH",
"295 494 OFFCURVE",
"319 485 OFFCURVE",
"340 470 CURVE SMOOTH",
"397 430 LINE SMOOTH",
"428 408 OFFCURVE",
"443 403 OFFCURVE",
"467 401 CURVE",
"456 422 LINE",
"433 403 OFFCURVE",
"425 379 OFFCURVE",
"420 350 CURVE SMOOTH",
"394 192 LINE SMOOTH",
"381 113 OFFCURVE",
"373 83 OFFCURVE",
"338 40 CURVE",
"341 22 LINE",
"409 22 OFFCURVE",
"456 0 OFFCURVE",
"530 0 CURVE SMOOTH",
"591 0 OFFCURVE",
"641 15 OFFCURVE",
"679 44 CURVE",
"672 68 LINE",
"652 26 OFFCURVE",
"648 7 OFFCURVE",
"636 -60 CURVE SMOOTH",
"619 -151 OFFCURVE",
"573 -206 OFFCURVE",
"478 -206 CURVE SMOOTH",
"417 -206 OFFCURVE",
"382 -184 OFFCURVE",
"382 -143 CURVE SMOOTH",
"382 -108 OFFCURVE",
"408 -80 OFFCURVE",
"450 -80 CURVE SMOOTH",
"472 -80 OFFCURVE",
"486 -88 OFFCURVE",
"486 -104 CURVE SMOOTH",
"486 -121 OFFCURVE",
"469 -132 OFFCURVE",
"440 -132 CURVE",
"440 -155 OFFCURVE",
"454 -174 OFFCURVE",
"484 -174 CURVE SMOOTH",
"524 -174 OFFCURVE",
"555 -141 OFFCURVE",
"555 -100 CURVE SMOOTH",
"555 -52 OFFCURVE",
"512 -30 OFFCURVE",
"455 -30 CURVE SMOOTH",
"369 -30 OFFCURVE",
"310 -79 OFFCURVE",
"310 -147 CURVE SMOOTH",
"310 -222 OFFCURVE",
"380 -260 OFFCURVE",
"472 -260 CURVE SMOOTH"
);
},
{
closed = 1;
nodes = (
"142 40 OFFCURVE",
"128 54 OFFCURVE",
"128 76 CURVE SMOOTH",
"128 105 OFFCURVE",
"151 128 OFFCURVE",
"176 128 CURVE SMOOTH",
"196 128 OFFCURVE",
"210 114 OFFCURVE",
"210 92 CURVE SMOOTH",
"210 63 OFFCURVE",
"187 40 OFFCURVE",
"162 40 CURVE SMOOTH"
);
},
{
closed = 1;
nodes = (
"213 -8 OFFCURVE",
"265 40 OFFCURVE",
"265 101 CURVE SMOOTH",
"265 145 OFFCURVE",
"237 172 OFFCURVE",
"193 172 CURVE SMOOTH",
"161 172 OFFCURVE",
"139 157 OFFCURVE",
"127 137 CURVE",
"152 137 LINE",
"164 163 OFFCURVE",
"168 176 OFFCURVE",
"171 197 CURVE SMOOTH",
"177 235 LINE SMOOTH",
"191 321 OFFCURVE",
"220 357 OFFCURVE",
"287 375 CURVE",
"288 381 LINE",
"274 390 OFFCURVE",
"257 396 OFFCURVE",
"232 396 CURVE SMOOTH",
"161 396 OFFCURVE",
"112 345 OFFCURVE",
"95 235 CURVE SMOOTH",
"73 92 LINE SMOOTH",
"72 84 OFFCURVE",
"71 78 OFFCURVE",
"71 69 CURVE SMOOTH",
"71 20 OFFCURVE",
"103 -8 OFFCURVE",
"151 -8 CURVE SMOOTH"
);
}
);
width = 842;
}
);
leftMetricsKey = "thoThung-thai";
note = uni0E0D;
rightMetricsKey = "boBaimai-thai";
unicode = 0E0D;
},
{
glyphname = "yoYing-thai.less";
layers = (
{
anchors = (
{
name = bottom;
position = "{714, 0}";
},
{
name = top;
position = "{805, 510}";
}
);
layerId = "DFC648BE-1420-4AB7-B0BF-55F282890848";
paths = (
{
closed = 1;
nodes = (
"647 -12 OFFCURVE",
"731 46 OFFCURVE",
"749 160 CURVE SMOOTH",
"811 550 LINE",
"802 553 OFFCURVE",
"792 554 OFFCURVE",
"785 554 CURVE SMOOTH",
"749 554 OFFCURVE",
"726 529 OFFCURVE",
"720 493 CURVE SMOOTH",
"667 160 LINE SMOOTH",
"656 90 OFFCURVE",
"611 54 OFFCURVE",
"540 54 CURVE SMOOTH",
"500 54 OFFCURVE",
"467 66 OFFCURVE",
"422 66 CURVE",
"423 26 LINE",
"455 67 OFFCURVE",
"468 135 OFFCURVE",
"475 180 CURVE SMOOTH",
"502 354 LINE SMOOTH",
"508 394 OFFCURVE",
"514 411 OFFCURVE",
"531 425 CURVE",
"528 441 LINE",
"514 444 OFFCURVE",
"504 447 OFFCURVE",
"474 467 CURVE SMOOTH",
"366 540 LINE SMOOTH",
"343 555 OFFCURVE",
"316 562 OFFCURVE",
"287 562 CURVE SMOOTH",
"197 562 OFFCURVE",
"108 495 OFFCURVE",
"46 404 CURVE",
"45 399 LINE",
"87 386 OFFCURVE",
"125 358 OFFCURVE",
"140 321 CURVE",
"193 352 LINE",
"181 390 OFFCURVE",
"147 418 OFFCURVE",
"100 427 CURVE",
"120 395 LINE",
"154 455 OFFCURVE",
"214 494 OFFCURVE",
"270 494 CURVE SMOOTH",
"294 494 OFFCURVE",
"317 487 OFFCURVE",
"340 470 CURVE SMOOTH",
"396 430 LINE SMOOTH",
"427 408 OFFCURVE",
"442 403 OFFCURVE",
"466 401 CURVE",
"455 422 LINE",
"434 405 OFFCURVE",
"424 381 OFFCURVE",
"419 350 CURVE SMOOTH",
"393 180 LINE SMOOTH",
"381 102 OFFCURVE",
"365 63 OFFCURVE",
"336 28 CURVE",
"340 10 LINE",
"407 10 OFFCURVE",
"455 -12 OFFCURVE",
"528 -12 CURVE SMOOTH"
);
},
{
closed = 1;
nodes = (
"142 40 OFFCURVE",
"128 54 OFFCURVE",
"128 76 CURVE SMOOTH",
"128 105 OFFCURVE",
"151 128 OFFCURVE",
"176 128 CURVE SMOOTH",
"196 128 OFFCURVE",
"210 114 OFFCURVE",
"210 92 CURVE SMOOTH",
"210 63 OFFCURVE",
"187 40 OFFCURVE",
"162 40 CURVE SMOOTH"
);
},
{
closed = 1;
nodes = (
"213 -8 OFFCURVE",
"265 40 OFFCURVE",
"265 101 CURVE SMOOTH",
"265 145 OFFCURVE",
"237 172 OFFCURVE",
"193 172 CURVE SMOOTH",
"161 172 OFFCURVE",
"139 157 OFFCURVE",
"127 137 CURVE",
"152 137 LINE",
"164 163 OFFCURVE",
"168 176 OFFCURVE",
"171 197 CURVE SMOOTH",
"177 235 LINE SMOOTH",
"191 321 OFFCURVE",
"220 357 OFFCURVE",
"287 375 CURVE",
"288 381 LINE",
"274 390 OFFCURVE",
"257 396 OFFCURVE",
"232 396 CURVE SMOOTH",
"161 396 OFFCURVE",
"112 345 OFFCURVE",
"95 235 CURVE SMOOTH",
"73 92 LINE SMOOTH",
"72 84 OFFCURVE",
"71 78 OFFCURVE",
"71 70 CURVE SMOOTH",
"71 23 OFFCURVE",
"101 -8 OFFCURVE",
"151 -8 CURVE SMOOTH"
);
}
);
width = 842;
}
);
leftMetricsKey = "thoThung-thai";
note = "yoYing-thai.less";
rightMetricsKey = "boBaimai-thai";
},
{
glyphname = "khoKhai-thai";
layers = (
{
anchors = (
{
name = bottom;
position = "{414, 0}";
},
{
name = top;
position = "{505, 510}";
}
);
layerId = "DFC648BE-1420-4AB7-B0BF-55F282890848";
paths = (
{
closed = 1;
nodes = (
"362 -12 OFFCURVE",
"431 46 OFFCURVE",
"449 160 CURVE SMOOTH",
"511 550 LINE",
"502 553 OFFCURVE",
"492 554 OFFCURVE",
"485 554 CURVE SMOOTH",
"449 554 OFFCURVE",
"426 529 OFFCURVE",
"420 493 CURVE SMOOTH",
"367 160 LINE SMOOTH",
"357 94 OFFCURVE",
"329 54 OFFCURVE",
"272 54 CURVE SMOOTH",
"247 54 OFFCURVE",
"200 62 OFFCURVE",
"172 62 CURVE",
"185 26 LINE",
"217 68 OFFCURVE",
"227 121 OFFCURVE",
"237 180 CURVE SMOOTH",
"243 214 OFFCURVE",
"251 238 OFFCURVE",
"288 306 CURVE SMOOTH",
"312 349 OFFCURVE",
"337 395 OFFCURVE",
"337 445 CURVE SMOOTH",
"337 515 OFFCURVE",
"287 558 OFFCURVE",
"206 558 CURVE SMOOTH",
"112 558 OFFCURVE",
"34 501 OFFCURVE",
"34 415 CURVE SMOOTH",
"34 357 OFFCURVE",
"69 323 OFFCURVE",
"124 323 CURVE SMOOTH",
"184 323 OFFCURVE",
"227 364 OFFCURVE",
"227 415 CURVE SMOOTH",
"227 451 OFFCURVE",
"206 472 OFFCURVE",
"177 472 CURVE SMOOTH",
"151 472 OFFCURVE",
"128 454 OFFCURVE",
"132 430 CURVE",
"162 433 OFFCURVE",
"172 423 OFFCURVE",
"172 407 CURVE SMOOTH",
"172 385 OFFCURVE",
"155 371 OFFCURVE",
"131 371 CURVE SMOOTH",
"106 371 OFFCURVE",
"94 385 OFFCURVE",
"94 413 CURVE SMOOTH",
"94 464 OFFCURVE",
"134 504 OFFCURVE",
"194 504 CURVE SMOOTH",
"240 504 OFFCURVE",
"266 481 OFFCURVE",
"266 438 CURVE SMOOTH",
"266 395 OFFCURVE",
"239 348 OFFCURVE",
"216 310 CURVE SMOOTH",
"177 246 OFFCURVE",
"165 226 OFFCURVE",
"157 180 CURVE SMOOTH",
"142 93 OFFCURVE",
"137 72 OFFCURVE",
"100 24 CURVE",
"103 6 LINE",
"156 6 OFFCURVE",
"197 -12 OFFCURVE",
"256 -12 CURVE SMOOTH"
);
}
);
width = 542;
}
);
note = uni0E02;
rightMetricsKey = "boBaimai-thai";
unicode = 0E02;
},
{
glyphname = "khoKhuat-thai";
layers = (
{
anchors = (
{
name = bottom;
position = "{418, 0}";
},
{
name = top;
position = "{509, 510}";
}
);
layerId = "DFC648BE-1420-4AB7-B0BF-55F282890848";
paths = (
{
closed = 1;
nodes = (
"366 -12 OFFCURVE",
"435 46 OFFCURVE",
"453 160 CURVE SMOOTH",
"515 550 LINE",
"506 553 OFFCURVE",
"496 554 OFFCURVE",
"489 554 CURVE SMOOTH",
"453 554 OFFCURVE",
"430 529 OFFCURVE",
"424 493 CURVE SMOOTH",
"371 160 LINE SMOOTH",
"360 89 OFFCURVE",
"331 54 OFFCURVE",
"273 54 CURVE SMOOTH",
"254 54 OFFCURVE",
"199 58 OFFCURVE",
"172 58 CURVE",
"189 26 LINE",
"221 69 OFFCURVE",
"230 120 OFFCURVE",
"241 180 CURVE SMOOTH",
"249 225 OFFCURVE",
"270 259 OFFCURVE",
"293 292 CURVE SMOOTH",
"326 342 OFFCURVE",
"363 389 OFFCURVE",
"363 464 CURVE SMOOTH",
"363 529 OFFCURVE",
"336 558 OFFCURVE",
"286 558 CURVE SMOOTH",
"251 558 OFFCURVE",
"227 544 OFFCURVE",
"207 516 CURVE",
"195 544 OFFCURVE",
"175 558 OFFCURVE",
"145 558 CURVE SMOOTH",
"71 558 OFFCURVE",
"40 478 OFFCURVE",
"40 414 CURVE SMOOTH",
"40 345 OFFCURVE",
"77 313 OFFCURVE",
"136 313 CURVE SMOOTH",
"198 313 OFFCURVE",
"239 348 OFFCURVE",
"239 394 CURVE SMOOTH",
"239 426 OFFCURVE",
"219 444 OFFCURVE",
"192 444 CURVE SMOOTH",
"167 444 OFFCURVE",
"147 427 OFFCURVE",
"150 405 CURVE",
"154 406 OFFCURVE",
"158 406 OFFCURVE",
"162 406 CURVE SMOOTH",
"180 406 OFFCURVE",
"188 396 OFFCURVE",
"188 384 CURVE SMOOTH",
"188 367 OFFCURVE",
"171 358 OFFCURVE",
"150 358 CURVE SMOOTH",
"117 358 OFFCURVE",
"99 380 OFFCURVE",
"99 414 CURVE SMOOTH",
"99 451 OFFCURVE",
"119 504 OFFCURVE",
"156 504 CURVE SMOOTH",
"174 504 OFFCURVE",
"188 491 OFFCURVE",
"190 468 CURVE",
"208 468 LINE",
"218 491 OFFCURVE",
"236 504 OFFCURVE",
"255 504 CURVE SMOOTH",
"280 504 OFFCURVE",
"291 481 OFFCURVE",
"291 450 CURVE SMOOTH",
"291 403 OFFCURVE",
"266 362 OFFCURVE",
"238 322 CURVE SMOOTH",
"206 277 OFFCURVE",
"170 233 OFFCURVE",
"161 180 CURVE SMOOTH",
"146 88 OFFCURVE",
"142 73 OFFCURVE",
"104 24 CURVE",
"107 6 LINE",
"160 6 OFFCURVE",
"201 -12 OFFCURVE",
"260 -12 CURVE SMOOTH"
);
}
);
width = 546;
}
);
note = uni0E03;
rightMetricsKey = "boBaimai-thai";
unicode = 0E03;
},
{
glyphname = "choChang-thai";
layers = (
{
anchors = (
{
name = bottom;
position = "{417, 0}";
},
{
name = top;
position = "{508, 510}";
}
);
layerId = "DFC648BE-1420-4AB7-B0BF-55F282890848";
paths = (
{
closed = 1;
nodes = (
"368 -12 OFFCURVE",
"434 48 OFFCURVE",
"452 160 CURVE SMOOTH",
"481 339 LINE SMOOTH",
"490 396 OFFCURVE",
"429 443 OFFCURVE",
"361 466 CURVE",
"361 441 LINE",
"512 487 OFFCURVE",
"578 523 OFFCURVE",
"585 579 CURVE SMOOTH",
"587 596 OFFCURVE",
"584 608 OFFCURVE",
"575 616 CURVE",
"507 565 OFFCURVE",
"457 534 OFFCURVE",
"290 479 CURVE",
"290 421 LINE",
"343 410 OFFCURVE",
"405 368 OFFCURVE",
"399 331 CURVE SMOOTH",
"372 160 LINE SMOOTH",
"361 89 OFFCURVE",
"329 54 OFFCURVE",
"272 54 CURVE SMOOTH",
"245 54 OFFCURVE",
"197 62 OFFCURVE",
"168 62 CURVE",
"184 26 LINE",
"216 68 OFFCURVE",
"226 121 OFFCURVE",
"236 180 CURVE SMOOTH",
"242 214 OFFCURVE",
"247 233 OFFCURVE",
"287 306 CURVE SMOOTH",
"311 349 OFFCURVE",
"336 395 OFFCURVE",
"336 444 CURVE SMOOTH",
"336 514 OFFCURVE",
"286 558 OFFCURVE",
"206 558 CURVE SMOOTH",
"110 558 OFFCURVE",
"33 496 OFFCURVE",
"33 409 CURVE SMOOTH",
"33 353 OFFCURVE",
"65 323 OFFCURVE",
"118 323 CURVE SMOOTH",
"181 323 OFFCURVE",
"226 364 OFFCURVE",
"226 416 CURVE SMOOTH",
"226 451 OFFCURVE",
"205 472 OFFCURVE",
"176 472 CURVE SMOOTH",
"150 472 OFFCURVE",
"127 454 OFFCURVE",
"131 430 CURVE",
"154 430 OFFCURVE",
"171 430 OFFCURVE",
"171 407 CURVE SMOOTH",
"171 384 OFFCURVE",
"154 371 OFFCURVE",
"130 371 CURVE SMOOTH",
"105 371 OFFCURVE",
"93 385 OFFCURVE",
"93 413 CURVE SMOOTH",
"93 464 OFFCURVE",
"133 504 OFFCURVE",
"193 504 CURVE SMOOTH",
"239 504 OFFCURVE",
"265 481 OFFCURVE",
"265 438 CURVE SMOOTH",
"265 395 OFFCURVE",
"238 348 OFFCURVE",
"215 310 CURVE SMOOTH",
"172 239 OFFCURVE",
"164 224 OFFCURVE",
"156 180 CURVE SMOOTH",
"141 93 OFFCURVE",
"136 72 OFFCURVE",
"99 24 CURVE",
"102 6 LINE",
"155 6 OFFCURVE",
"194 -12 OFFCURVE",
"256 -12 CURVE SMOOTH"
);
}
);
width = 545;
}
);
leftMetricsKey = "khoKhai-thai";
note = uni0E0A;
rightMetricsKey = "choChang-thai";
unicode = 0E0A;
},
{
glyphname = "soSo-thai";
layers = (
{
anchors = (
{
name = bottom;
position = "{426, 0}";
},
{
name = top;
position = "{517, 510}";
}
);
layerId = "DFC648BE-1420-4AB7-B0BF-55F282890848";
paths = (
{
closed = 1;
nodes = (
"371 -12 OFFCURVE",
"442 43 OFFCURVE",
"461 160 CURVE SMOOTH",
"490 339 LINE SMOOTH",
"499 396 OFFCURVE",
"450 443 OFFCURVE",
"390 468 CURVE",
"391 449 LINE",
"536 494 OFFCURVE",
"587 523 OFFCURVE",
"594 579 CURVE SMOOTH",
"596 596 OFFCURVE",
"593 608 OFFCURVE",
"584 616 CURVE",
"521 565 OFFCURVE",
"476 529 OFFCURVE",
"323 474 CURVE",
"321 421 LINE",
"367 409 OFFCURVE",
"414 366 OFFCURVE",
"408 331 CURVE SMOOTH",
"381 160 LINE SMOOTH",
"370 89 OFFCURVE",
"337 54 OFFCURVE",
"279 54 CURVE SMOOTH",
"252 54 OFFCURVE",
"217 62 OFFCURVE",
"189 62 CURVE",
"189 26 LINE",
"222 71 OFFCURVE",
"231 121 OFFCURVE",
"241 180 CURVE SMOOTH",
"247 218 OFFCURVE",
"253 231 OFFCURVE",
"302 306 CURVE SMOOTH",
"339 362 OFFCURVE",
"363 399 OFFCURVE",
"363 463 CURVE SMOOTH",
"363 529 OFFCURVE",
"332 558 OFFCURVE",
"286 558 CURVE SMOOTH",
"251 558 OFFCURVE",
"229 544 OFFCURVE",
"207 516 CURVE",
"195 544 OFFCURVE",
"175 558 OFFCURVE",
"145 558 CURVE SMOOTH",
"77 558 OFFCURVE",
"40 486 OFFCURVE",
"40 416 CURVE SMOOTH",
"40 345 OFFCURVE",
"80 313 OFFCURVE",
"136 313 CURVE SMOOTH",
"198 313 OFFCURVE",
"239 348 OFFCURVE",
"239 394 CURVE SMOOTH",
"239 426 OFFCURVE",
"219 444 OFFCURVE",
"192 444 CURVE SMOOTH",
"167 444 OFFCURVE",
"147 427 OFFCURVE",
"150 405 CURVE",
"177 406 OFFCURVE",
"188 398 OFFCURVE",
"188 384 CURVE SMOOTH",
"188 367 OFFCURVE",
"171 358 OFFCURVE",
"150 358 CURVE SMOOTH",
"117 358 OFFCURVE",
"99 380 OFFCURVE",
"99 414 CURVE SMOOTH",
"99 451 OFFCURVE",
"119 504 OFFCURVE",
"156 504 CURVE SMOOTH",
"174 504 OFFCURVE",
"188 491 OFFCURVE",
"190 468 CURVE",
"208 468 LINE",
"218 491 OFFCURVE",
"236 504 OFFCURVE",
"255 504 CURVE SMOOTH",
"280 504 OFFCURVE",
"291 482 OFFCURVE",
"291 449 CURVE SMOOTH",
"291 396 OFFCURVE",
"262 357 OFFCURVE",
"230 310 CURVE SMOOTH",
"173 227 OFFCURVE",
"166 210 OFFCURVE",
"161 180 CURVE SMOOTH",
"147 92 OFFCURVE",
"142 73 OFFCURVE",
"104 24 CURVE",
"107 6 LINE",
"160 6 OFFCURVE",
"202 -12 OFFCURVE",
"263 -12 CURVE SMOOTH"
);
}
);
width = 554;
}
);
leftMetricsKey = "khoKhuat-thai";
note = uni0E0B;
unicode = 0E0B;
},
{
glyphname = "khoKhwai-thai";
lastChange = "2018-03-12 19:43:52 +0000";
layers = (
{
anchors = (
{
name = bottom;
position = "{460, 0}";
},
{
name = top;
position = "{531, 510}";
}
);
layerId = "DFC648BE-1420-4AB7-B0BF-55F282890848";
paths = (
{
closed = 1;
nodes = (
"120 -6 OFFCURVE",
"142 23 OFFCURVE",
"148 59 CURVE SMOOTH",
"153 87 LINE SMOOTH",
"165 155 OFFCURVE",
"185 269 OFFCURVE",
"232 311 CURVE",
"205 347 LINE",
"204 343 OFFCURVE",
"204 339 OFFCURVE",
"204 334 CURVE SMOOTH",
"204 293 OFFCURVE",
"238 263 OFFCURVE",
"287 263 CURVE SMOOTH",
"345 263 OFFCURVE",
"387 306 OFFCURVE",
"387 359 CURVE SMOOTH",
"387 408 OFFCURVE",
"352 433 OFFCURVE",
"301 433 CURVE SMOOTH",
"173 433 OFFCURVE",
"129 239 OFFCURVE",
"105 87 CURVE",
"137 87 LINE",
"140 108 OFFCURVE",
"141 131 OFFCURVE",
"141 156 CURVE SMOOTH",
"141 190 OFFCURVE",
"139 236 OFFCURVE",
"139 264 CURVE SMOOTH",
"139 396 OFFCURVE",
"185 494 OFFCURVE",
"299 494 CURVE SMOOTH",
"335 494 OFFCURVE",
"350 484 OFFCURVE",
"375 466 CURVE SMOOTH",
"412 439 LINE SMOOTH",
"444 415 OFFCURVE",
"458 411 OFFCURVE",
"481 409 CURVE",
"470 430 LINE",
"447 411 OFFCURVE",
"440 390 OFFCURVE",
"435 358 CURVE SMOOTH",
"378 -2 LINE",
"387 -5 OFFCURVE",
"397 -6 OFFCURVE",
"404 -6 CURVE SMOOTH",
"440 -6 OFFCURVE",
"463 19 OFFCURVE",
"469 55 CURVE SMOOTH",
"517 362 LINE SMOOTH",
"523 400 OFFCURVE",
"530 420 OFFCURVE",
"547 433 CURVE",
"543 449 LINE",
"526 452 OFFCURVE",
"516 455 OFFCURVE",
"489 474 CURVE SMOOTH",
"410 530 LINE SMOOTH",
"376 554 OFFCURVE",
"350 562 OFFCURVE",
"312 562 CURVE SMOOTH",
"165 562 OFFCURVE",
"58 446 OFFCURVE",
"58 288 CURVE SMOOTH",
"58 240 OFFCURVE",
"68 197 OFFCURVE",
"68 136 CURVE SMOOTH",
"68 117 OFFCURVE",
"67 100 OFFCURVE",
"63 76 CURVE SMOOTH",
"51 -2 LINE",
"61 -5 OFFCURVE",
"71 -6 OFFCURVE",
"79 -6 CURVE SMOOTH"
);
},
{
closed = 1;
nodes = (
"266 303 OFFCURVE",
"252 316 OFFCURVE",
"252 339 CURVE SMOOTH",
"252 365 OFFCURVE",
"271 387 OFFCURVE",
"299 387 CURVE SMOOTH",
"320 387 OFFCURVE",
"334 374 OFFCURVE",
"334 351 CURVE SMOOTH",
"334 325 OFFCURVE",
"315 303 OFFCURVE",
"287 303 CURVE SMOOTH"
);
}
);
width = 584;
}
);
note = uni0E04;
rightMetricsKey = "koKai-thai";
unicode = 0E04;
},
{
glyphname = "khoKhon-thai";
lastChange = "2018-03-12 19:43:52 +0000";
layers = (
{
anchors = (
{
name = bottom;
position = "{476, 0}";
},
{
name = top;
position = "{547, 510}";
}
);
layerId = "DFC648BE-1420-4AB7-B0BF-55F282890848";
paths = (
{
closed = 1;
nodes = (
"120 -6 OFFCURVE",
"142 23 OFFCURVE",
"148 59 CURVE SMOOTH",
"153 87 LINE SMOOTH",
"165 155 OFFCURVE",
"190 251 OFFCURVE",
"237 293 CURVE",
"213 321 LINE",
"212 317 OFFCURVE",
"212 313 OFFCURVE",
"212 308 CURVE SMOOTH",
"212 267 OFFCURVE",
"246 237 OFFCURVE",
"294 237 CURVE SMOOTH",
"353 237 OFFCURVE",
"395 282 OFFCURVE",
"395 334 CURVE SMOOTH",
"395 382 OFFCURVE",
"360 407 OFFCURVE",
"309 407 CURVE SMOOTH",
"197 407 OFFCURVE",
"129 237 OFFCURVE",
"105 87 CURVE",
"137 87 LINE",
"141 109 OFFCURVE",
"142 134 OFFCURVE",
"142 158 CURVE SMOOTH",
"142 191 OFFCURVE",
"140 229 OFFCURVE",
"140 257 CURVE SMOOTH",
"140 363 OFFCURVE",
"168 490 OFFCURVE",
"247 490 CURVE SMOOTH",
"287 490 OFFCURVE",
"299 457 OFFCURVE",
"299 417 CURVE",
"323 417 LINE",
"335 457 OFFCURVE",
"357 490 OFFCURVE",
"388 490 CURVE SMOOTH",
"404 490 OFFCURVE",
"416 481 OFFCURVE",
"440 458 CURVE SMOOTH",
"466 433 OFFCURVE",
"476 424 OFFCURVE",
"506 421 CURVE",
"487 438 LINE",
"464 419 OFFCURVE",
"457 398 OFFCURVE",
"452 366 CURVE SMOOTH",
"394 -2 LINE",
"403 -5 OFFCURVE",
"413 -6 OFFCURVE",
"420 -6 CURVE SMOOTH",
"456 -6 OFFCURVE",
"479 19 OFFCURVE",
"485 55 CURVE SMOOTH",
"535 370 LINE SMOOTH",
"541 410 OFFCURVE",
"547 427 OFFCURVE",
"564 441 CURVE",
"560 457 LINE",
"538 461 OFFCURVE",
"521 481 OFFCURVE",
"485 513 CURVE SMOOTH",
"448 546 OFFCURVE",
"427 558 OFFCURVE",
"403 558 CURVE SMOOTH",
"370 558 OFFCURVE",
"340 536 OFFCURVE",
"322 495 CURVE",
"320 533 OFFCURVE",
"299 558 OFFCURVE",
"248 558 CURVE SMOOTH",
"133 558 OFFCURVE",
"60 433 OFFCURVE",
"60 293 CURVE SMOOTH",
"60 246 OFFCURVE",
"68 200 OFFCURVE",
"68 145 CURVE SMOOTH",
"68 125 OFFCURVE",
"67 100 OFFCURVE",
"63 76 CURVE SMOOTH",
"51 -2 LINE",
"61 -5 OFFCURVE",
"71 -6 OFFCURVE",
"79 -6 CURVE SMOOTH"
);
},
{
closed = 1;
nodes = (
"274 277 OFFCURVE",
"260 290 OFFCURVE",
"260 313 CURVE SMOOTH",
"260 339 OFFCURVE",
"279 361 OFFCURVE",
"307 361 CURVE SMOOTH",
"328 361 OFFCURVE",
"342 348 OFFCURVE",
"342 325 CURVE SMOOTH",
"342 299 OFFCURVE",
"323 277 OFFCURVE",
"295 277 CURVE SMOOTH"
);
}
);
width = 600;
}
);
leftMetricsKey = "khoKhwai-thai";
note = uni0E05;
rightMetricsKey = "koKai-thai";
unicode = 0E05;
},
{
glyphname = "soSala-thai";
layers = (
{
anchors = (
{
name = bottom;
position = "{460, 0}";
},
{
name = top;
position = "{541, 510}";
}
);
layerId = "DFC648BE-1420-4AB7-B0BF-55F282890848";
paths = (
{
closed = 1;
nodes = (
"120 -6 OFFCURVE",
"142 23 OFFCURVE",
"148 59 CURVE SMOOTH",
"153 87 LINE SMOOTH",
"165 155 OFFCURVE",
"185 269 OFFCURVE",
"232 311 CURVE",
"205 347 LINE",
"204 343 OFFCURVE",
"204 339 OFFCURVE",
"204 334 CURVE SMOOTH",
"204 293 OFFCURVE",
"238 263 OFFCURVE",
"287 263 CURVE SMOOTH",
"345 263 OFFCURVE",
"387 306 OFFCURVE",
"387 359 CURVE SMOOTH",
"387 408 OFFCURVE",
"352 433 OFFCURVE",
"301 433 CURVE SMOOTH",
"173 433 OFFCURVE",
"129 239 OFFCURVE",
"105 87 CURVE",
"137 87 LINE",
"140 108 OFFCURVE",
"141 131 OFFCURVE",
"141 156 CURVE SMOOTH",
"141 190 OFFCURVE",
"139 236 OFFCURVE",
"139 264 CURVE SMOOTH",
"139 396 OFFCURVE",
"185 494 OFFCURVE",
"299 494 CURVE SMOOTH",
"335 494 OFFCURVE",
"350 484 OFFCURVE",
"375 466 CURVE SMOOTH",
"412 439 LINE SMOOTH",
"444 415 OFFCURVE",
"458 411 OFFCURVE",
"481 409 CURVE",
"470 430 LINE",
"447 411 OFFCURVE",
"440 390 OFFCURVE",
"435 358 CURVE SMOOTH",
"378 -2 LINE",
"387 -5 OFFCURVE",
"397 -6 OFFCURVE",
"404 -6 CURVE SMOOTH",
"440 -6 OFFCURVE",
"463 19 OFFCURVE",
"469 55 CURVE SMOOTH",
"517 362 LINE SMOOTH",
"523 400 OFFCURVE",
"530 420 OFFCURVE",
"547 433 CURVE",
"543 449 LINE",
"526 452 OFFCURVE",
"516 455 OFFCURVE",
"489 474 CURVE SMOOTH",
"410 530 LINE SMOOTH",
"376 554 OFFCURVE",
"350 562 OFFCURVE",
"312 562 CURVE SMOOTH",
"165 562 OFFCURVE",
"58 446 OFFCURVE",
"58 288 CURVE SMOOTH",
"58 240 OFFCURVE",
"68 197 OFFCURVE",
"68 136 CURVE SMOOTH",
"68 117 OFFCURVE",
"67 100 OFFCURVE",
"63 76 CURVE SMOOTH",
"51 -2 LINE",
"61 -5 OFFCURVE",
"71 -6 OFFCURVE",
"79 -6 CURVE SMOOTH"
);
},
{
closed = 1;
nodes = (
"266 303 OFFCURVE",
"252 316 OFFCURVE",
"252 339 CURVE SMOOTH",
"252 365 OFFCURVE",
"271 387 OFFCURVE",
"299 387 CURVE SMOOTH",
"320 387 OFFCURVE",
"334 374 OFFCURVE",
"334 351 CURVE SMOOTH",
"334 325 OFFCURVE",
"315 303 OFFCURVE",
"287 303 CURVE SMOOTH"
);
},
{
closed = 1;
nodes = (
"573 513 OFFCURVE",
"621 539 OFFCURVE",
"627 588 CURVE SMOOTH",
"630 609 OFFCURVE",
"621 619 OFFCURVE",
"614 624 CURVE",
"590 600 OFFCURVE",
"544 570 OFFCURVE",
"391 519 CURVE",
"424 468 LINE"
);
}
);
width = 584;
}
);
leftMetricsKey = "khoKhwai-thai";
note = uni0E28;
unicode = 0E28;
},
{
glyphname = "doDek-thai";
lastChange = "2018-03-12 19:43:52 +0000";
layers = (
{
anchors = (
{
name = bottom;
position = "{460, 0}";
},
{
name = top;
position = "{531, 510}";
}
);
layerId = "DFC648BE-1420-4AB7-B0BF-55F282890848";
paths = (
{
closed = 1;
nodes = (
"234 -8 OFFCURVE",
"384 227 OFFCURVE",
"384 344 CURVE SMOOTH",
"384 401 OFFCURVE",
"351 437 OFFCURVE",
"295 437 CURVE SMOOTH",
"238 437 OFFCURVE",
"197 401 OFFCURVE",
"197 346 CURVE SMOOTH",
"197 299 OFFCURVE",
"228 267 OFFCURVE",
"275 267 CURVE SMOOTH",
"300 267 OFFCURVE",
"328 276 OFFCURVE",
"350 296 CURVE",
"304 290 LINE",
"291 210 OFFCURVE",
"162 46 OFFCURVE",
"85 46 CURVE",
"110 13 LINE",
"126 41 OFFCURVE",
"134 68 OFFCURVE",
"137 87 CURVE SMOOTH",
"140 107 OFFCURVE",
"141 130 OFFCURVE",
"141 152 CURVE SMOOTH",
"141 182 OFFCURVE",
"139 232 OFFCURVE",
"139 260 CURVE SMOOTH",
"139 395 OFFCURVE",
"184 494 OFFCURVE",
"299 494 CURVE SMOOTH",
"335 494 OFFCURVE",
"350 484 OFFCURVE",
"375 466 CURVE SMOOTH",
"412 439 LINE SMOOTH",
"444 415 OFFCURVE",
"458 411 OFFCURVE",
"481 409 CURVE",
"470 430 LINE",
"447 411 OFFCURVE",
"440 390 OFFCURVE",
"435 358 CURVE SMOOTH",
"378 -2 LINE",
"387 -5 OFFCURVE",
"397 -6 OFFCURVE",
"404 -6 CURVE SMOOTH",
"440 -6 OFFCURVE",
"463 19 OFFCURVE",
"469 55 CURVE SMOOTH",
"517 362 LINE SMOOTH",
"523 400 OFFCURVE",
"530 420 OFFCURVE",
"547 433 CURVE",
"543 449 LINE",
"526 452 OFFCURVE",
"516 455 OFFCURVE",
"489 474 CURVE SMOOTH",
"410 530 LINE SMOOTH",
"376 554 OFFCURVE",
"350 562 OFFCURVE",
"312 562 CURVE SMOOTH",
"165 562 OFFCURVE",
"58 446 OFFCURVE",
"58 288 CURVE SMOOTH",
"58 240 OFFCURVE",
"68 198 OFFCURVE",
"68 136 CURVE SMOOTH",
"68 117 OFFCURVE",
"67 100 OFFCURVE",
"63 76 CURVE SMOOTH",
"51 -2 LINE",
"68 -2 OFFCURVE",
"81 -8 OFFCURVE",
"106 -8 CURVE SMOOTH"
);
},
{
closed = 1;
nodes = (
"261 307 OFFCURVE",
"248 321 OFFCURVE",
"248 344 CURVE SMOOTH",
"248 372 OFFCURVE",
"268 391 OFFCURVE",
"294 391 CURVE SMOOTH",
"317 391 OFFCURVE",
"330 377 OFFCURVE",
"330 354 CURVE SMOOTH",
"330 326 OFFCURVE",
"310 307 OFFCURVE",
"284 307 CURVE SMOOTH"
);
}
);
width = 584;
}
);
leftMetricsKey = "khoKhwai-thai";
note = uni0E14;
rightMetricsKey = "koKai-thai";
unicode = 0E14;
},
{
glyphname = "toTao-thai";
lastChange = "2018-03-12 19:43:52 +0000";
layers = (
{
anchors = (
{
name = bottom;
position = "{476, 0}";
},
{
name = top;
position = "{547, 510}";
}
);
layerId = "DFC648BE-1420-4AB7-B0BF-55F282890848";
paths = (
{
closed = 1;
nodes = (
"234 -8 OFFCURVE",
"388 192 OFFCURVE",
"388 317 CURVE SMOOTH",
"388 377 OFFCURVE",
"356 402 OFFCURVE",
"306 402 CURVE SMOOTH",
"242 402 OFFCURVE",
"201 361 OFFCURVE",
"201 306 CURVE SMOOTH",
"201 259 OFFCURVE",
"231 232 OFFCURVE",
"277 232 CURVE SMOOTH",
"304 232 OFFCURVE",
"332 241 OFFCURVE",
"354 261 CURVE",
"308 255 LINE",
"295 175 OFFCURVE",
"178 54 OFFCURVE",
"101 54 CURVE",
"110 13 LINE",
"126 41 OFFCURVE",
"134 68 OFFCURVE",
"137 87 CURVE SMOOTH",
"140 107 OFFCURVE",
"141 140 OFFCURVE",
"141 165 CURVE SMOOTH",
"141 190 OFFCURVE",
"140 235 OFFCURVE",
"140 256 CURVE SMOOTH",
"140 365 OFFCURVE",
"167 490 OFFCURVE",
"246 490 CURVE SMOOTH",
"287 490 OFFCURVE",
"300 456 OFFCURVE",
"300 417 CURVE",
"324 417 LINE",
"336 457 OFFCURVE",
"357 490 OFFCURVE",
"388 490 CURVE SMOOTH",
"404 490 OFFCURVE",
"416 481 OFFCURVE",
"440 458 CURVE SMOOTH",
"466 433 OFFCURVE",
"476 424 OFFCURVE",
"506 421 CURVE",
"487 438 LINE",
"464 419 OFFCURVE",
"457 398 OFFCURVE",
"452 366 CURVE SMOOTH",
"394 -2 LINE",
"403 -5 OFFCURVE",
"413 -6 OFFCURVE",
"420 -6 CURVE SMOOTH",
"456 -6 OFFCURVE",
"479 19 OFFCURVE",
"485 55 CURVE SMOOTH",
"535 370 LINE SMOOTH",
"541 410 OFFCURVE",
"547 427 OFFCURVE",
"564 441 CURVE",
"560 457 LINE",
"537 461 OFFCURVE",
"524 479 OFFCURVE",
"485 513 CURVE SMOOTH",
"448 546 OFFCURVE",
"427 558 OFFCURVE",
"403 558 CURVE SMOOTH",
"370 558 OFFCURVE",
"340 536 OFFCURVE",
"322 495 CURVE",
"320 536 OFFCURVE",
"296 558 OFFCURVE",
"247 558 CURVE SMOOTH",
"130 558 OFFCURVE",
"60 430 OFFCURVE",
"60 290 CURVE SMOOTH",
"60 243 OFFCURVE",
"68 195 OFFCURVE",
"68 141 CURVE SMOOTH",
"68 122 OFFCURVE",
"67 99 OFFCURVE",
"63 76 CURVE SMOOTH",
"51 -2 LINE",
"68 -2 OFFCURVE",
"81 -8 OFFCURVE",
"106 -8 CURVE SMOOTH"
);
},
{
closed = 1;
nodes = (
"266 272 OFFCURVE",
"252 285 OFFCURVE",
"252 308 CURVE SMOOTH",
"252 334 OFFCURVE",
"271 356 OFFCURVE",
"299 356 CURVE SMOOTH",
"320 356 OFFCURVE",
"334 343 OFFCURVE",
"334 320 CURVE SMOOTH",
"334 294 OFFCURVE",
"315 272 OFFCURVE",
"287 272 CURVE SMOOTH"
);
}
);
width = 600;
}
);
leftMetricsKey = "khoKhwai-thai";
note = uni0E15;
rightMetricsKey = "koKai-thai";
unicode = 0E15;
},
{
glyphname = "thoThahan-thai";
layers = (
{
anchors = (
{
name = bottom;
position = "{474, 0}";
},
{
name = top;
position = "{545, 510}";
}
);
layerId = "DFC648BE-1420-4AB7-B0BF-55F282890848";
paths = (
{
closed = 1;
nodes = (
"172 -6 OFFCURVE",
"210 24 OFFCURVE",
"262 162 CURVE SMOOTH",
"353 405 LINE SMOOTH",
"374 462 OFFCURVE",
"399 490 OFFCURVE",
"429 490 CURVE SMOOTH",
"460 490 OFFCURVE",
"465 463 OFFCURVE",
"460 430 CURVE SMOOTH",
"392 -2 LINE",
"401 -5 OFFCURVE",
"411 -6 OFFCURVE",
"418 -6 CURVE SMOOTH",
"454 -6 OFFCURVE",
"477 19 OFFCURVE",
"483 55 CURVE SMOOTH",
"540 414 LINE SMOOTH",
"542 428 OFFCURVE",
"543 440 OFFCURVE",
"543 452 CURVE SMOOTH",
"543 521 OFFCURVE",
"509 558 OFFCURVE",
"445 558 CURVE SMOOTH",
"370 558 OFFCURVE",
"312 508 OFFCURVE",
"277 414 CURVE SMOOTH",
"192 186 LINE SMOOTH",
"164 110 OFFCURVE",
"139 70 OFFCURVE",
"122 55 CURVE",
"116 20 LINE",
"147 60 OFFCURVE",
"160 123 OFFCURVE",
"168 174 CURVE SMOOTH",
"185 283 LINE SMOOTH",
"194 341 OFFCURVE",
"208 366 OFFCURVE",
"222 388 CURVE SMOOTH",
"241 417 OFFCURVE",
"256 437 OFFCURVE",
"256 473 CURVE SMOOTH",
"256 527 OFFCURVE",
"223 556 OFFCURVE",
"173 556 CURVE SMOOTH",
"109 556 OFFCURVE",
"54 508 OFFCURVE",
"54 446 CURVE SMOOTH",
"54 401 OFFCURVE",
"84 372 OFFCURVE",
"133 372 CURVE SMOOTH",
"153 372 OFFCURVE",
"170 377 OFFCURVE",
"184 387 CURVE",
"135 385 LINE",
"118 361 OFFCURVE",
"112 340 OFFCURVE",
"108 315 CURVE SMOOTH",
"85 170 LINE SMOOTH",
"72 90 OFFCURVE",
"60 56 OFFCURVE",
"29 18 CURVE",
"32 0 LINE",
"64 0 OFFCURVE",
"88 -6 OFFCURVE",
"114 -6 CURVE SMOOTH"
);
},
{
closed = 1;
nodes = (
"123 416 OFFCURVE",
"108 431 OFFCURVE",
"108 455 CURVE SMOOTH",
"108 485 OFFCURVE",
"131 508 OFFCURVE",
"160 508 CURVE SMOOTH",
"183 508 OFFCURVE",
"198 493 OFFCURVE",
"198 469 CURVE SMOOTH",
"198 439 OFFCURVE",
"175 416 OFFCURVE",
"146 416 CURVE SMOOTH"
);
}
);
width = 594;
}
);
note = uni0E17;
unicode = 0E17;
},
{
glyphname = "thoNangmontho-thai";
layers = (
{
anchors = (
{
name = bottom;
position = "{556, 0}";
},
{
name = top;
position = "{627, 510}";
}
);
layerId = "DFC648BE-1420-4AB7-B0BF-55F282890848";
paths = (
{
closed = 1;
nodes = (
"254 -6 OFFCURVE",
"285 24 OFFCURVE",
"348 162 CURVE SMOOTH",
"459 405 LINE SMOOTH",
"487 466 OFFCURVE",
"497 490 OFFCURVE",
"523 490 CURVE SMOOTH",
"551 490 OFFCURVE",
"547 461 OFFCURVE",
"542 430 CURVE SMOOTH",
"474 -2 LINE",
"483 -5 OFFCURVE",
"493 -6 OFFCURVE",
"500 -6 CURVE SMOOTH",
"536 -6 OFFCURVE",
"559 19 OFFCURVE",
"565 55 CURVE SMOOTH",
"622 414 LINE SMOOTH",
"624 428 OFFCURVE",
"625 440 OFFCURVE",
"625 453 CURVE SMOOTH",
"625 524 OFFCURVE",
"596 558 OFFCURVE",
"536 558 CURVE SMOOTH",
"462 558 OFFCURVE",
"429 505 OFFCURVE",
"387 414 CURVE SMOOTH",
"282 186 LINE SMOOTH",
"251 119 OFFCURVE",
"223 71 OFFCURVE",
"200 55 CURVE",
"194 20 LINE",
"217 50 OFFCURVE",
"234 97 OFFCURVE",
"240 137 CURVE SMOOTH",
"244 164 LINE SMOOTH",
"250 204 OFFCURVE",
"262 231 OFFCURVE",
"291 294 CURVE SMOOTH",
"324 366 OFFCURVE",
"349 418 OFFCURVE",
"349 472 CURVE SMOOTH",
"349 528 OFFCURVE",
"321 558 OFFCURVE",
"277 558 CURVE SMOOTH",
"245 558 OFFCURVE",
"219 543 OFFCURVE",
"199 516 CURVE",
"187 543 OFFCURVE",
"166 558 OFFCURVE",
"138 558 CURVE SMOOTH",
"76 558 OFFCURVE",
"40 482 OFFCURVE",
"40 418 CURVE SMOOTH",
"40 354 OFFCURVE",
"77 318 OFFCURVE",
"136 318 CURVE SMOOTH",
"198 318 OFFCURVE",
"239 357 OFFCURVE",
"239 399 CURVE SMOOTH",
"239 427 OFFCURVE",
"220 446 OFFCURVE",
"193 446 CURVE SMOOTH",
"168 446 OFFCURVE",
"147 429 OFFCURVE",
"150 407 CURVE",
"179 408 OFFCURVE",
"188 400 OFFCURVE",
"188 389 CURVE SMOOTH",
"188 375 OFFCURVE",
"173 366 OFFCURVE",
"151 366 CURVE SMOOTH",
"119 366 OFFCURVE",
"100 385 OFFCURVE",
"100 421 CURVE SMOOTH",
"100 457 OFFCURVE",
"118 504 OFFCURVE",
"150 504 CURVE SMOOTH",
"168 504 OFFCURVE",
"182 491 OFFCURVE",
"184 468 CURVE",
"202 468 LINE",
"212 491 OFFCURVE",
"225 504 OFFCURVE",
"247 504 CURVE SMOOTH",
"269 504 OFFCURVE",
"282 491 OFFCURVE",
"282 461 CURVE SMOOTH",
"282 425 OFFCURVE",
"264 385 OFFCURVE",
"221 300 CURVE SMOOTH",
"179 218 OFFCURVE",
"170 198 OFFCURVE",
"165 160 CURVE SMOOTH",
"161 131 LINE SMOOTH",
"154 83 OFFCURVE",
"137 50 OFFCURVE",
"111 18 CURVE",
"114 0 LINE",
"146 0 OFFCURVE",
"170 -6 OFFCURVE",
"196 -6 CURVE SMOOTH"
);
}
);
width = 676;
}
);
note = uni0E11;
rightMetricsKey = "thoThahan-thai";
unicode = 0E11;
},
{
glyphname = "noNu-thai";
layers = (
{
anchors = (
{
name = bottom;
position = "{422, 0}";
},
{
name = top;
position = "{503, 510}";
}
);
layerId = "DFC648BE-1420-4AB7-B0BF-55F282890848";
paths = (
{
closed = 1;
nodes = (
"130 -6 OFFCURVE",
"166 17 OFFCURVE",
"271 85 CURVE SMOOTH",
"372 151 OFFCURVE",
"400 168 OFFCURVE",
"433 168 CURVE",
"450 192 OFFCURVE",
"456 215 OFFCURVE",
"460 240 CURVE SMOOTH",
"509 550 LINE",
"500 553 OFFCURVE",
"490 554 OFFCURVE",
"483 554 CURVE SMOOTH",
"447 554 OFFCURVE",
"424 529 OFFCURVE",
"418 493 CURVE SMOOTH",
"369 182 LINE",
"395 198 LINE",
"345 198 OFFCURVE",
"324 185 OFFCURVE",
"241 133 CURVE SMOOTH",
"170 89 OFFCURVE",
"150 73 OFFCURVE",
"107 68 CURVE",
"116 20 LINE",
"147 60 OFFCURVE",
"160 123 OFFCURVE",
"168 174 CURVE SMOOTH",
"185 283 LINE SMOOTH",
"194 337 OFFCURVE",
"202 356 OFFCURVE",
"222 388 CURVE SMOOTH",
"239 415 OFFCURVE",
"256 439 OFFCURVE",
"256 476 CURVE SMOOTH",
"256 528 OFFCURVE",
"222 556 OFFCURVE",
"173 556 CURVE SMOOTH",
"108 556 OFFCURVE",
"54 507 OFFCURVE",
"54 446 CURVE SMOOTH",
"54 401 OFFCURVE",
"84 372 OFFCURVE",
"133 372 CURVE SMOOTH",
"153 372 OFFCURVE",
"170 377 OFFCURVE",
"184 387 CURVE",
"135 387 LINE",
"118 363 OFFCURVE",
"112 340 OFFCURVE",
"108 315 CURVE SMOOTH",
"85 170 LINE SMOOTH",
"72 90 OFFCURVE",
"60 54 OFFCURVE",
"29 16 CURVE",
"32 -2 LINE",
"53 -2 OFFCURVE",
"61 -6 OFFCURVE",
"81 -6 CURVE SMOOTH"
);
},
{
closed = 1;
nodes = (
"446 -8 OFFCURVE",
"498 38 OFFCURVE",
"498 104 CURVE SMOOTH",
"498 158 OFFCURVE",
"463 192 OFFCURVE",
"402 192 CURVE SMOOTH",
"330 192 OFFCURVE",
"279 144 OFFCURVE",
"279 80 CURVE SMOOTH",
"279 24 OFFCURVE",
"317 -8 OFFCURVE",
"376 -8 CURVE SMOOTH"
);
},
{
closed = 1;
nodes = (
"354 40 OFFCURVE",
"338 57 OFFCURVE",
"338 85 CURVE SMOOTH",
"338 119 OFFCURVE",
"362 144 OFFCURVE",
"396 144 CURVE SMOOTH",
"424 144 OFFCURVE",
"440 126 OFFCURVE",
"440 98 CURVE SMOOTH",
"440 64 OFFCURVE",
"415 40 OFFCURVE",
"382 40 CURVE SMOOTH"
);
},
{
closed = 1;
nodes = (
"122 416 OFFCURVE",
"108 432 OFFCURVE",
"108 456 CURVE SMOOTH",
"108 486 OFFCURVE",
"129 508 OFFCURVE",
"159 508 CURVE SMOOTH",
"184 508 OFFCURVE",
"198 492 OFFCURVE",
"198 468 CURVE SMOOTH",
"198 438 OFFCURVE",
"177 416 OFFCURVE",
"147 416 CURVE SMOOTH"
);
}
);
width = 558;
}
);
note = uni0E19;
unicode = 0E19;
},
{
glyphname = "moMa-thai";
lastChange = "2018-03-12 19:43:52 +0000";
layers = (
{
anchors = (
{
name = bottom;
position = "{434, 0}";
},
{
name = top;
position = "{515, 510}";
}
);
layerId = "DFC648BE-1420-4AB7-B0BF-55F282890848";
paths = (
{
closed = 1;
nodes = (
"438 -6 OFFCURVE",
"453 33 OFFCURVE",
"464 104 CURVE SMOOTH",
"535 550 LINE",
"526 553 OFFCURVE",
"516 554 OFFCURVE",
"509 554 CURVE SMOOTH",
"473 554 OFFCURVE",
"450 529 OFFCURVE",
"444 493 CURVE SMOOTH",
"394 174 LINE SMOOTH",
"390 146 OFFCURVE",
"385 115 OFFCURVE",
"385 85 CURVE SMOOTH",
"385 61 OFFCURVE",
"388 39 OFFCURVE",
"396 20 CURVE",
"423 39 LINE",
"395 74 OFFCURVE",
"374 93 OFFCURVE",
"305 135 CURVE SMOOTH",
"232 179 OFFCURVE",
"210 198 OFFCURVE",
"177 198 CURVE",
"199 182 LINE",
"215 283 LINE SMOOTH",
"224 341 OFFCURVE",
"237 364 OFFCURVE",
"252 388 CURVE SMOOTH",
"270 417 OFFCURVE",
"286 435 OFFCURVE",
"286 473 CURVE SMOOTH",
"286 529 OFFCURVE",
"252 556 OFFCURVE",
"203 556 CURVE SMOOTH",
"138 556 OFFCURVE",
"84 508 OFFCURVE",
"84 447 CURVE SMOOTH",
"84 401 OFFCURVE",
"114 372 OFFCURVE",
"163 372 CURVE SMOOTH",
"183 372 OFFCURVE",
"200 377 OFFCURVE",
"214 387 CURVE",
"165 387 LINE",
"148 363 OFFCURVE",
"142 340 OFFCURVE",
"138 315 CURVE SMOOTH",
"126 240 LINE SMOOTH",
"124 228 OFFCURVE",
"123 217 OFFCURVE",
"123 207 CURVE SMOOTH",
"123 194 OFFCURVE",
"125 181 OFFCURVE",
"131 168 CURVE",
"140 165 OFFCURVE",
"161 146 OFFCURVE",
"247 93 CURVE SMOOTH",
"337 37 OFFCURVE",
"357 20 OFFCURVE",
"381 -6 CURVE"
);
},
{
closed = 1;
nodes = (
"178 -8 OFFCURVE",
"228 41 OFFCURVE",
"228 105 CURVE SMOOTH",
"228 161 OFFCURVE",
"190 192 OFFCURVE",
"132 192 CURVE SMOOTH",
"59 192 OFFCURVE",
"9 142 OFFCURVE",
"9 78 CURVE SMOOTH",
"9 22 OFFCURVE",
"47 -8 OFFCURVE",
"105 -8 CURVE SMOOTH"
);
},
{
closed = 1;
nodes = (
"85 40 OFFCURVE",
"68 55 OFFCURVE",
"68 84 CURVE SMOOTH",
"68 118 OFFCURVE",
"92 144 OFFCURVE",
"126 144 CURVE SMOOTH",
"153 144 OFFCURVE",
"170 128 OFFCURVE",
"170 100 CURVE SMOOTH",
"170 65 OFFCURVE",
"145 40 OFFCURVE",
"111 40 CURVE SMOOTH"
);
},
{
closed = 1;
nodes = (
"153 416 OFFCURVE",
"138 431 OFFCURVE",
"138 455 CURVE SMOOTH",
"138 485 OFFCURVE",
"161 508 OFFCURVE",
"190 508 CURVE SMOOTH",
"213 508 OFFCURVE",
"228 493 OFFCURVE",
"228 469 CURVE SMOOTH",
"228 439 OFFCURVE",
"205 416 OFFCURVE",
"176 416 CURVE SMOOTH"
);
}
);
width = 572;
}
);
note = uni0E21;
unicode = 0E21;
},
{
glyphname = "choChoe-thai";
layers = (
{
anchors = (
{
name = bottom;
position = "{702, 0}";
},
{
name = top;
position = "{783, 510}";
}
);
layerId = "DFC648BE-1420-4AB7-B0BF-55F282890848";
paths = (
{
closed = 1;
nodes = (
"692 -6 OFFCURVE",
"707 33 OFFCURVE",
"718 104 CURVE SMOOTH",
"789 550 LINE",
"780 553 OFFCURVE",
"770 554 OFFCURVE",
"763 554 CURVE SMOOTH",
"727 554 OFFCURVE",
"704 529 OFFCURVE",
"698 493 CURVE SMOOTH",
"648 174 LINE SMOOTH",
"644 146 OFFCURVE",
"639 115 OFFCURVE",
"639 85 CURVE SMOOTH",
"639 61 OFFCURVE",
"642 39 OFFCURVE",
"650 20 CURVE",
"677 39 LINE",
"650 73 OFFCURVE",
"640 85 OFFCURVE",
"573 135 CURVE SMOOTH",
"506 185 OFFCURVE",
"482 198 OFFCURVE",
"453 198 CURVE",
"475 182 LINE",
"502 354 LINE SMOOTH",
"508 394 OFFCURVE",
"514 411 OFFCURVE",
"531 425 CURVE",
"528 441 LINE",
"514 444 OFFCURVE",
"504 447 OFFCURVE",
"474 467 CURVE SMOOTH",
"366 540 LINE SMOOTH",
"343 555 OFFCURVE",
"316 562 OFFCURVE",
"287 562 CURVE SMOOTH",
"197 562 OFFCURVE",
"108 495 OFFCURVE",
"46 404 CURVE",
"45 399 LINE",
"87 386 OFFCURVE",
"125 358 OFFCURVE",
"140 321 CURVE",
"193 352 LINE",
"181 390 OFFCURVE",
"147 418 OFFCURVE",
"100 427 CURVE",
"120 395 LINE",
"154 455 OFFCURVE",
"214 494 OFFCURVE",
"270 494 CURVE SMOOTH",
"294 494 OFFCURVE",
"317 487 OFFCURVE",
"340 470 CURVE SMOOTH",
"396 430 LINE SMOOTH",
"427 408 OFFCURVE",
"442 403 OFFCURVE",
"466 401 CURVE",
"455 422 LINE",
"435 406 OFFCURVE",
"424 382 OFFCURVE",
"419 350 CURVE SMOOTH",
"402 240 LINE SMOOTH",
"400 228 OFFCURVE",
"399 217 OFFCURVE",
"399 207 CURVE SMOOTH",
"399 194 OFFCURVE",
"401 181 OFFCURVE",
"407 168 CURVE",
"428 160 OFFCURVE",
"453 143 OFFCURVE",
"519 93 CURVE SMOOTH",
"592 38 OFFCURVE",
"612 20 OFFCURVE",
"635 -6 CURVE"
);
},
{
closed = 1;
nodes = (
"142 40 OFFCURVE",
"128 54 OFFCURVE",
"128 76 CURVE SMOOTH",
"128 105 OFFCURVE",
"151 128 OFFCURVE",
"176 128 CURVE SMOOTH",
"196 128 OFFCURVE",
"210 114 OFFCURVE",
"210 92 CURVE SMOOTH",
"210 63 OFFCURVE",
"187 40 OFFCURVE",
"162 40 CURVE SMOOTH"
);
},
{
closed = 1;
nodes = (
"213 -8 OFFCURVE",
"265 40 OFFCURVE",
"265 101 CURVE SMOOTH",
"265 145 OFFCURVE",
"237 172 OFFCURVE",
"193 172 CURVE SMOOTH",
"161 172 OFFCURVE",
"139 157 OFFCURVE",
"127 137 CURVE",
"152 137 LINE",
"165 165 OFFCURVE",
"168 177 OFFCURVE",
"171 197 CURVE SMOOTH",
"177 235 LINE SMOOTH",
"191 321 OFFCURVE",
"220 357 OFFCURVE",
"287 375 CURVE",
"288 381 LINE",
"274 390 OFFCURVE",
"257 396 OFFCURVE",
"232 396 CURVE SMOOTH",
"161 396 OFFCURVE",
"112 345 OFFCURVE",
"95 235 CURVE SMOOTH",
"73 92 LINE SMOOTH",
"72 84 OFFCURVE",
"71 78 OFFCURVE",
"71 69 CURVE SMOOTH",
"71 20 OFFCURVE",
"103 -8 OFFCURVE",
"151 -8 CURVE SMOOTH"
);
},
{
closed = 1;
nodes = (
"456 -8 OFFCURVE",
"503 38 OFFCURVE",
"503 99 CURVE SMOOTH",
"503 151 OFFCURVE",
"468 180 OFFCURVE",
"414 180 CURVE SMOOTH",
"345 180 OFFCURVE",
"299 134 OFFCURVE",
"299 73 CURVE SMOOTH",
"299 21 OFFCURVE",
"333 -8 OFFCURVE",
"387 -8 CURVE SMOOTH"
);
},
{
closed = 1;
nodes = (
"371 40 OFFCURVE",
"357 53 OFFCURVE",
"357 78 CURVE SMOOTH",
"357 108 OFFCURVE",
"377 132 OFFCURVE",
"407 132 CURVE SMOOTH",
"430 132 OFFCURVE",
"445 118 OFFCURVE",
"445 93 CURVE SMOOTH",
"445 63 OFFCURVE",
"424 40 OFFCURVE",
"394 40 CURVE SMOOTH"
);
}
);
width = 830;
}
);
leftMetricsKey = "thoThung-thai";
note = uni0E0C;
unicode = 0E0C;
},
{
glyphname = "noNen-thai";
layers = (
{
anchors = (
{
name = bottom;
position = "{712, 0}";
},
{
name = top;
position = "{793, 510}";
}
);
layerId = "DFC648BE-1420-4AB7-B0BF-55F282890848";
paths = (
{
closed = 1;
nodes = (
"432 -6 OFFCURVE",
"463 14 OFFCURVE",
"568 85 CURVE SMOOTH",
"664 150 OFFCURVE",
"691 168 OFFCURVE",
"723 168 CURVE",
"740 192 OFFCURVE",
"746 215 OFFCURVE",
"750 240 CURVE SMOOTH",
"799 550 LINE",
"790 553 OFFCURVE",
"780 554 OFFCURVE",
"773 554 CURVE SMOOTH",
"737 554 OFFCURVE",
"714 529 OFFCURVE",
"708 493 CURVE SMOOTH",
"659 182 LINE",
"685 198 LINE",
"640 198 OFFCURVE",
"621 185 OFFCURVE",
"546 133 CURVE SMOOTH",
"481 88 OFFCURVE",
"458 73 OFFCURVE",
"420 68 CURVE",
"422 20 LINE",
"454 61 OFFCURVE",
"467 129 OFFCURVE",
"474 174 CURVE SMOOTH",
"502 354 LINE SMOOTH",
"508 394 OFFCURVE",
"514 411 OFFCURVE",
"531 425 CURVE",
"528 441 LINE",
"514 444 OFFCURVE",
"504 447 OFFCURVE",
"474 467 CURVE SMOOTH",
"366 540 LINE SMOOTH",
"343 555 OFFCURVE",
"316 562 OFFCURVE",
"287 562 CURVE SMOOTH",
"197 562 OFFCURVE",
"108 495 OFFCURVE",
"46 404 CURVE",
"45 399 LINE",
"87 386 OFFCURVE",
"125 358 OFFCURVE",
"140 321 CURVE",
"193 352 LINE",
"181 390 OFFCURVE",
"147 418 OFFCURVE",
"100 427 CURVE",
"120 395 LINE",
"154 455 OFFCURVE",
"214 494 OFFCURVE",
"270 494 CURVE SMOOTH",
"294 494 OFFCURVE",
"317 487 OFFCURVE",
"340 470 CURVE SMOOTH",
"396 430 LINE SMOOTH",
"427 408 OFFCURVE",
"442 403 OFFCURVE",
"466 401 CURVE",
"455 422 LINE",
"432 403 OFFCURVE",
"424 379 OFFCURVE",
"419 350 CURVE SMOOTH",
"391 170 LINE SMOOTH",
"379 95 OFFCURVE",
"367 55 OFFCURVE",
"335 16 CURVE",
"338 -2 LINE",
"359 -2 OFFCURVE",
"368 -6 OFFCURVE",
"388 -6 CURVE SMOOTH"
);
},
{
closed = 1;
nodes = (
"142 40 OFFCURVE",
"128 54 OFFCURVE",
"128 76 CURVE SMOOTH",
"128 105 OFFCURVE",
"151 128 OFFCURVE",
"176 128 CURVE SMOOTH",
"196 128 OFFCURVE",
"210 114 OFFCURVE",
"210 92 CURVE SMOOTH",
"210 63 OFFCURVE",
"187 40 OFFCURVE",
"162 40 CURVE SMOOTH"
);
},
{
closed = 1;
nodes = (
"213 -8 OFFCURVE",
"265 40 OFFCURVE",
"265 101 CURVE SMOOTH",
"265 145 OFFCURVE",
"237 172 OFFCURVE",
"193 172 CURVE SMOOTH",
"161 172 OFFCURVE",
"139 157 OFFCURVE",
"127 137 CURVE",
"152 137 LINE",
"164 163 OFFCURVE",
"168 177 OFFCURVE",
"171 197 CURVE SMOOTH",
"177 235 LINE SMOOTH",
"191 321 OFFCURVE",
"220 357 OFFCURVE",
"287 375 CURVE",
"288 381 LINE",
"274 390 OFFCURVE",
"257 396 OFFCURVE",
"232 396 CURVE SMOOTH",
"161 396 OFFCURVE",
"112 345 OFFCURVE",
"95 235 CURVE SMOOTH",
"73 92 LINE SMOOTH",
"72 84 OFFCURVE",
"71 78 OFFCURVE",
"71 70 CURVE SMOOTH",
"71 23 OFFCURVE",
"101 -8 OFFCURVE",
"151 -8 CURVE SMOOTH"
);
},
{
closed = 1;
nodes = (
"738 -8 OFFCURVE",
"787 40 OFFCURVE",
"787 103 CURVE SMOOTH",
"787 157 OFFCURVE",
"751 188 OFFCURVE",
"694 188 CURVE SMOOTH",
"622 188 OFFCURVE",
"573 139 OFFCURVE",
"573 77 CURVE SMOOTH",
"573 23 OFFCURVE",
"610 -8 OFFCURVE",
"667 -8 CURVE SMOOTH"
);
},
{
closed = 1;
nodes = (
"647 40 OFFCURVE",
"631 55 OFFCURVE",
"631 82 CURVE SMOOTH",
"631 115 OFFCURVE",
"654 140 OFFCURVE",
"687 140 CURVE SMOOTH",
"713 140 OFFCURVE",
"729 125 OFFCURVE",
"729 98 CURVE SMOOTH",
"729 65 OFFCURVE",
"706 40 OFFCURVE",
"673 40 CURVE SMOOTH"
);
}
);
width = 848;
}
);
leftMetricsKey = "thoThung-thai";
note = uni0E13;
rightMetricsKey = "noNu-thai";
unicode = 0E13;
},
{
glyphname = "thoPhuthao-thai";
lastChange = "2018-03-12 19:43:52 +0000";
layers = (
{
anchors = (
{
name = bottom;
position = "{720, 0}";
},
{
name = top;
position = "{801, 510}";
}
);
layerId = "DFC648BE-1420-4AB7-B0BF-55F282890848";
paths = (
{
closed = 1;
nodes = (
"234 -8 OFFCURVE",
"389 193 OFFCURVE",
"389 318 CURVE SMOOTH",
"389 378 OFFCURVE",
"355 405 OFFCURVE",
"305 405 CURVE SMOOTH",
"242 405 OFFCURVE",
"202 364 OFFCURVE",
"202 308 CURVE SMOOTH",
"202 261 OFFCURVE",
"232 235 OFFCURVE",
"279 235 CURVE SMOOTH",
"304 235 OFFCURVE",
"315 242 OFFCURVE",
"337 262 CURVE",
"309 262 LINE",
"297 182 OFFCURVE",
"178 54 OFFCURVE",
"101 54 CURVE",
"110 13 LINE",
"138 62 OFFCURVE",
"141 101 OFFCURVE",
"141 160 CURVE SMOOTH",
"141 194 OFFCURVE",
"140 234 OFFCURVE",
"140 255 CURVE SMOOTH",
"140 365 OFFCURVE",
"167 490 OFFCURVE",
"246 490 CURVE SMOOTH",
"287 490 OFFCURVE",
"299 456 OFFCURVE",
"299 417 CURVE",
"323 417 LINE",
"335 457 OFFCURVE",
"357 490 OFFCURVE",
"388 490 CURVE SMOOTH",
"404 490 OFFCURVE",
"416 481 OFFCURVE",
"440 458 CURVE SMOOTH",
"466 433 OFFCURVE",
"476 424 OFFCURVE",
"506 421 CURVE",
"499 443 LINE",
"476 424 OFFCURVE",
"457 398 OFFCURVE",
"452 366 CURVE SMOOTH",
"436 263 LINE SMOOTH",
"432 239 OFFCURVE",
"431 226 OFFCURVE",
"431 214 CURVE SMOOTH",
"431 181 OFFCURVE",
"438 168 OFFCURVE",
"445 152 CURVE",
"471 142 OFFCURVE",
"512 117 OFFCURVE",
"547 89 CURVE SMOOTH",
"582 61 OFFCURVE",
"614 28 OFFCURVE",
"632 0 CURVE",
"704 0 OFFCURVE",
"733 83 OFFCURVE",
"745 160 CURVE SMOOTH",
"807 550 LINE",
"798 553 OFFCURVE",
"788 554 OFFCURVE",
"781 554 CURVE SMOOTH",
"745 554 OFFCURVE",
"722 529 OFFCURVE",
"716 493 CURVE SMOOTH",
"663 160 LINE SMOOTH",
"659 132 OFFCURVE",
"657 114 OFFCURVE",
"657 99 CURVE SMOOTH",
"657 88 OFFCURVE",
"658 79 OFFCURVE",
"660 70 CURVE",
"685 70 LINE",
"649 105 OFFCURVE",
"626 125 OFFCURVE",
"599 144 CURVE SMOOTH",
"572 163 OFFCURVE",
"545 179 OFFCURVE",
"508 200 CURVE",
"535 370 LINE SMOOTH",
"541 410 OFFCURVE",
"547 427 OFFCURVE",
"564 441 CURVE",
"560 457 LINE",
"543 460 OFFCURVE",
"541 461 OFFCURVE",
"485 513 CURVE SMOOTH",
"449 546 OFFCURVE",
"429 558 OFFCURVE",
"404 558 CURVE SMOOTH",
"370 558 OFFCURVE",
"340 536 OFFCURVE",
"322 495 CURVE",
"320 536 OFFCURVE",
"296 558 OFFCURVE",
"247 558 CURVE SMOOTH",
"130 558 OFFCURVE",
"60 430 OFFCURVE",
"60 290 CURVE SMOOTH",
"60 243 OFFCURVE",
"68 194 OFFCURVE",
"68 144 CURVE SMOOTH",
"68 109 OFFCURVE",
"64 81 OFFCURVE",
"51 -2 CURVE",
"68 -2 OFFCURVE",
"81 -8 OFFCURVE",
"106 -8 CURVE SMOOTH"
);
},
{
closed = 1;
nodes = (
"485 -8 OFFCURVE",
"528 41 OFFCURVE",
"528 103 CURVE SMOOTH",
"528 155 OFFCURVE",
"497 181 OFFCURVE",
"450 181 CURVE SMOOTH",
"387 181 OFFCURVE",
"344 134 OFFCURVE",
"344 72 CURVE SMOOTH",
"344 20 OFFCURVE",
"375 -8 OFFCURVE",
"422 -8 CURVE SMOOTH"
);
},
{
closed = 1;
nodes = (
"408 42 OFFCURVE",
"394 55 OFFCURVE",
"394 78 CURVE SMOOTH",
"394 105 OFFCURVE",
"413 126 OFFCURVE",
"441 126 CURVE SMOOTH",
"462 126 OFFCURVE",
"476 115 OFFCURVE",
"476 91 CURVE SMOOTH",
"476 64 OFFCURVE",
"457 42 OFFCURVE",
"429 42 CURVE SMOOTH"
);
},
{
closed = 1;
nodes = (
"266 275 OFFCURVE",
"253 289 OFFCURVE",
"253 311 CURVE SMOOTH",
"253 339 OFFCURVE",
"273 359 OFFCURVE",
"300 359 CURVE SMOOTH",
"322 359 OFFCURVE",
"335 345 OFFCURVE",
"335 323 CURVE SMOOTH",
"335 295 OFFCURVE",
"315 275 OFFCURVE",
"288 275 CURVE SMOOTH"
);
}
);
width = 844;
}
);
leftMetricsKey = "khoKhwai-thai";
note = uni0E12;
rightMetricsKey = "moMa-thai";
unicode = 0E12;
},
{
glyphname = "khoRakhang-thai";
layers = (
{
anchors = (
{
name = bottom;
position = "{450, 0}";
},
{
name = top;
position = "{531, 510}";
}
);
layerId = "DFC648BE-1420-4AB7-B0BF-55F282890848";
paths = (
{
closed = 1;
nodes = (
"440 -6 OFFCURVE",
"455 33 OFFCURVE",
"466 104 CURVE SMOOTH",
"537 550 LINE",
"528 553 OFFCURVE",
"518 554 OFFCURVE",
"511 554 CURVE SMOOTH",
"475 554 OFFCURVE",
"452 529 OFFCURVE",
"446 493 CURVE SMOOTH",
"396 174 LINE SMOOTH",
"392 146 OFFCURVE",
"387 113 OFFCURVE",
"387 89 CURVE SMOOTH",
"387 63 OFFCURVE",
"393 42 OFFCURVE",
"414 16 CURVE",
"414 47 LINE",
"383 86 OFFCURVE",
"369 98 OFFCURVE",
"317 135 CURVE SMOOTH",
"242 189 OFFCURVE",
"221 198 OFFCURVE",
"193 198 CURVE",
"217 158 LINE",
"227 204 OFFCURVE",
"228 206 OFFCURVE",
"305 297 CURVE SMOOTH",
"341 340 OFFCURVE",
"371 393 OFFCURVE",
"371 462 CURVE SMOOTH",
"371 533 OFFCURVE",
"338 558 OFFCURVE",
"291 558 CURVE SMOOTH",
"255 558 OFFCURVE",
"231 544 OFFCURVE",
"211 516 CURVE",
"199 544 OFFCURVE",
"179 558 OFFCURVE",
"149 558 CURVE SMOOTH",
"81 558 OFFCURVE",
"44 485 OFFCURVE",
"44 420 CURVE SMOOTH",
"44 350 OFFCURVE",
"87 313 OFFCURVE",
"148 313 CURVE SMOOTH",
"207 313 OFFCURVE",
"243 347 OFFCURVE",
"243 394 CURVE SMOOTH",
"243 427 OFFCURVE",
"224 444 OFFCURVE",
"196 444 CURVE SMOOTH",
"168 444 OFFCURVE",
"151 428 OFFCURVE",
"154 405 CURVE",
"178 406 OFFCURVE",
"192 398 OFFCURVE",
"192 384 CURVE SMOOTH",
"192 369 OFFCURVE",
"176 358 OFFCURVE",
"153 358 CURVE SMOOTH",
"123 358 OFFCURVE",
"103 377 OFFCURVE",
"103 419 CURVE SMOOTH",
"103 465 OFFCURVE",
"126 504 OFFCURVE",
"159 504 CURVE SMOOTH",
"178 504 OFFCURVE",
"193 491 OFFCURVE",
"195 468 CURVE",
"213 468 LINE",
"223 491 OFFCURVE",
"240 504 OFFCURVE",
"259 504 CURVE SMOOTH",
"284 504 OFFCURVE",
"299 484 OFFCURVE",
"299 444 CURVE SMOOTH",
"299 380 OFFCURVE",
"260 336 OFFCURVE",
"225 300 CURVE SMOOTH",
"155 229 OFFCURVE",
"141 213 OFFCURVE",
"133 168 CURVE",
"165 161 OFFCURVE",
"189 147 OFFCURVE",
"263 93 CURVE SMOOTH",
"337 39 OFFCURVE",
"364 15 OFFCURVE",
"383 -6 CURVE"
);
},
{
closed = 1;
nodes = (
"193 -8 OFFCURVE",
"244 40 OFFCURVE",
"244 103 CURVE SMOOTH",
"244 159 OFFCURVE",
"205 192 OFFCURVE",
"146 192 CURVE SMOOTH",
"75 192 OFFCURVE",
"25 143 OFFCURVE",
"25 80 CURVE SMOOTH",
"25 24 OFFCURVE",
"64 -8 OFFCURVE",
"122 -8 CURVE SMOOTH"
);
},
{
closed = 1;
nodes = (
"100 40 OFFCURVE",
"84 55 OFFCURVE",
"84 83 CURVE SMOOTH",
"84 117 OFFCURVE",
"109 144 OFFCURVE",
"143 144 CURVE SMOOTH",
"169 144 OFFCURVE",
"186 128 OFFCURVE",
"186 100 CURVE SMOOTH",
"186 65 OFFCURVE",
"159 40 OFFCURVE",
"126 40 CURVE SMOOTH"
);
}
);
width = 574;
}
);
note = uni0E06;
rightMetricsKey = "moMa-thai";
unicode = 0E06;
},
{
glyphname = "thoThong-thai";
lastChange = "2018-03-12 19:43:52 +0000";
layers = (
{
anchors = (
{
name = bottom;
position = "{364, 0}";
},
{
name = top;
position = "{517, 510}";
}
);
layerId = "DFC648BE-1420-4AB7-B0BF-55F282890848";
paths = (
{
closed = 1;
nodes = (
"306 -12 OFFCURVE",
"369 36 OFFCURVE",
"388 150 CURVE SMOOTH",
"412 296 LINE SMOOTH",
"419 336 OFFCURVE",
"426 353 OFFCURVE",
"443 367 CURVE",
"439 383 LINE",
"349 421 OFFCURVE",
"266 445 OFFCURVE",
"135 445 CURVE",
"149 421 LINE",
"171 476 OFFCURVE",
"198 502 OFFCURVE",
"258 502 CURVE SMOOTH",
"319 502 OFFCURVE",
"363 464 OFFCURVE",
"426 464 CURVE SMOOTH",
"461 464 OFFCURVE",
"486 476 OFFCURVE",
"491 509 CURVE SMOOTH",
"492 516 OFFCURVE",
"492 523 OFFCURVE",
"488 530 CURVE",
"472 525 OFFCURVE",
"455 522 OFFCURVE",
"437 522 CURVE SMOOTH",
"371 522 OFFCURVE",
"333 562 OFFCURVE",
"258 562 CURVE SMOOTH",
"171 562 OFFCURVE",
"103 528 OFFCURVE",
"71 406 CURVE",
"75 390 LINE",
"209 390 OFFCURVE",
"284 375 OFFCURVE",
"383 346 CURVE",
"371 370 LINE",
"342 345 OFFCURVE",
"336 324 OFFCURVE",
"331 292 CURVE SMOOTH",
"308 150 LINE SMOOTH",
"297 82 OFFCURVE",
"271 52 OFFCURVE",
"211 52 CURVE SMOOTH",
"176 52 OFFCURVE",
"133 62 OFFCURVE",
"100 62 CURVE",
"113 26 LINE",
"145 68 OFFCURVE",
"155 120 OFFCURVE",
"163 170 CURVE SMOOTH",
"201 402 LINE",
"125 402 LINE",
"86 166 LINE SMOOTH",
"73 86 OFFCURVE",
"66 64 OFFCURVE",
"31 22 CURVE",
"35 4 LINE",
"103 4 OFFCURVE",
"140 -12 OFFCURVE",
"201 -12 CURVE SMOOTH"
);
}
);
width = 492;
}
);
note = uni0E18;
unicode = 0E18;
},
{
glyphname = "roRua-thai";
lastChange = "2018-03-12 19:43:52 +0000";
layers = (
{
anchors = (
{
name = bottom;
position = "{282, 0}";
},
{
name = top;
position = "{413, 510}";
}
);
layerId = "DFC648BE-1420-4AB7-B0BF-55F282890848";
paths = (
{
closed = 1;
nodes = (
"241 -8 OFFCURVE",
"287 32 OFFCURVE",
"297 92 CURVE SMOOTH",
"333 309 LINE SMOOTH",
"340 349 OFFCURVE",
"348 369 OFFCURVE",
"365 383 CURVE",
"361 399 LINE",
"301 437 OFFCURVE",
"208 458 OFFCURVE",
"107 458 CURVE",
"125 424 LINE",
"146 487 OFFCURVE",
"176 502 OFFCURVE",
"221 502 CURVE SMOOTH",
"269 502 OFFCURVE",
"299 464 OFFCURVE",
"362 464 CURVE SMOOTH",
"397 464 OFFCURVE",
"422 476 OFFCURVE",
"427 509 CURVE SMOOTH",
"428 516 OFFCURVE",
"428 523 OFFCURVE",
"424 530 CURVE",
"408 525 OFFCURVE",
"391 522 OFFCURVE",
"373 522 CURVE SMOOTH",
"307 522 OFFCURVE",
"284 562 OFFCURVE",
"223 562 CURVE SMOOTH",
"152 562 OFFCURVE",
"79 533 OFFCURVE",
"52 421 CURVE",
"56 405 LINE",
"157 405 OFFCURVE",
"236 391 OFFCURVE",
"305 362 CURVE",
"293 386 LINE",
"264 361 OFFCURVE",
"257 340 OFFCURVE",
"251 308 CURVE SMOOTH",
"231 197 LINE SMOOTH",
"229 186 OFFCURVE",
"229 177 OFFCURVE",
"229 168 CURVE SMOOTH",
"229 159 OFFCURVE",
"230 149 OFFCURVE",
"232 137 CURVE",
"257 137 LINE",
"251 157 OFFCURVE",
"237 176 OFFCURVE",
"197 176 CURVE SMOOTH",
"136 176 OFFCURVE",
"94 133 OFFCURVE",
"94 76 CURVE SMOOTH",
"94 24 OFFCURVE",
"129 -8 OFFCURVE",
"182 -8 CURVE SMOOTH"
);
},
{
closed = 1;
nodes = (
"163 40 OFFCURVE",
"149 52 OFFCURVE",
"149 77 CURVE SMOOTH",
"149 108 OFFCURVE",
"172 132 OFFCURVE",
"201 132 CURVE SMOOTH",
"224 132 OFFCURVE",
"239 118 OFFCURVE",
"239 93 CURVE SMOOTH",
"239 62 OFFCURVE",
"215 40 OFFCURVE",
"185 40 CURVE SMOOTH"
);
}
);
width = 416;
}
);
note = uni0E23;
unicode = 0E23;
},
{
glyphname = "choChan-thai";
lastChange = "2018-03-12 19:43:52 +0000";
layers = (
{
anchors = (
{
name = bottom;
position = "{408, 0}";
},
{
name = top;
position = "{489, 510}";
}
);
layerId = "DFC648BE-1420-4AB7-B0BF-55F282890848";
paths = (
{
closed = 1;
nodes = (
"369 -8 OFFCURVE",
"437 117 OFFCURVE",
"461 272 CURVE SMOOTH",
"473 349 LINE SMOOTH",
"479 387 OFFCURVE",
"486 407 OFFCURVE",
"503 420 CURVE",
"499 436 LINE",
"478 441 OFFCURVE",
"466 448 OFFCURVE",
"445 462 CURVE SMOOTH",
"342 531 LINE SMOOTH",
"307 555 OFFCURVE",
"288 562 OFFCURVE",
"264 562 CURVE SMOOTH",
"183 562 OFFCURVE",
"47 477 OFFCURVE",
"47 418 CURVE SMOOTH",
"47 407 OFFCURVE",
"52 396 OFFCURVE",
"66 388 CURVE",
"121 439 OFFCURVE",
"190 494 OFFCURVE",
"248 494 CURVE SMOOTH",
"271 494 OFFCURVE",
"285 485 OFFCURVE",
"311 467 CURVE SMOOTH",
"368 428 LINE SMOOTH",
"398 408 OFFCURVE",
"413 398 OFFCURVE",
"437 396 CURVE",
"426 417 LINE",
"402 397 OFFCURVE",
"396 376 OFFCURVE",
"391 345 CURVE SMOOTH",
"379 272 LINE SMOOTH",
"353 111 OFFCURVE",
"330 84 OFFCURVE",
"274 50 CURVE",
"312 50 LINE",
"319 93 OFFCURVE",
"322 133 OFFCURVE",
"322 165 CURVE SMOOTH",
"322 286 OFFCURVE",
"318 417 OFFCURVE",
"208 417 CURVE SMOOTH",
"148 417 OFFCURVE",
"100 376 OFFCURVE",
"100 317 CURVE SMOOTH",
"100 268 OFFCURVE",
"138 237 OFFCURVE",
"187 237 CURVE SMOOTH",
"230 237 OFFCURVE",
"265 257 OFFCURVE",
"281 292 CURVE",
"244 278 LINE",
"254 259 OFFCURVE",
"258 236 OFFCURVE",
"252 137 CURVE SMOOTH",
"250 103 OFFCURVE",
"248 59 OFFCURVE",
"238 -2 CURVE",
"257 -2 OFFCURVE",
"270 -8 OFFCURVE",
"288 -8 CURVE SMOOTH"
);
},
{
closed = 1;
nodes = (
"169 281 OFFCURVE",
"154 294 OFFCURVE",
"154 318 CURVE SMOOTH",
"154 347 OFFCURVE",
"175 369 OFFCURVE",
"206 369 CURVE SMOOTH",
"229 369 OFFCURVE",
"244 356 OFFCURVE",
"244 332 CURVE SMOOTH",
"244 303 OFFCURVE",
"223 281 OFFCURVE",
"192 281 CURVE SMOOTH"
);
}
);
width = 534;
}
);
note = uni0E08;
unicode = 0E08;
},
{
glyphname = "woWaen-thai";
layers = (
{
anchors = (
{
name = bottom;
position = "{341, 0}";
},
{
name = top;
position = "{432, 510}";
}
);
layerId = "DFC648BE-1420-4AB7-B0BF-55F282890848";
paths = (
{
closed = 1;
nodes = (
"304 -8 OFFCURVE",
"346 32 OFFCURVE",
"356 92 CURVE SMOOTH",
"399 369 LINE SMOOTH",
"405 407 OFFCURVE",
"413 427 OFFCURVE",
"430 440 CURVE",
"426 456 LINE",
"410 459 OFFCURVE",
"392 468 OFFCURVE",
"374 480 CURVE SMOOTH",
"295 533 LINE SMOOTH",
"264 554 OFFCURVE",
"249 562 OFFCURVE",
"228 562 CURVE SMOOTH",
"167 562 OFFCURVE",
"50 493 OFFCURVE",
"50 439 CURVE SMOOTH",
"50 425 OFFCURVE",
"57 414 OFFCURVE",
"70 408 CURVE",
"139 475 OFFCURVE",
"172 494 OFFCURVE",
"211 494 CURVE SMOOTH",
"224 494 OFFCURVE",
"241 492 OFFCURVE",
"263 477 CURVE SMOOTH",
"320 438 LINE SMOOTH",
"335 428 OFFCURVE",
"353 422 OFFCURVE",
"371 421 CURVE",
"353 437 LINE",
"330 418 OFFCURVE",
"322 397 OFFCURVE",
"317 365 CURVE SMOOTH",
"290 197 LINE SMOOTH",
"289 186 OFFCURVE",
"288 177 OFFCURVE",
"288 168 CURVE SMOOTH",
"288 159 OFFCURVE",
"289 149 OFFCURVE",
"291 137 CURVE",
"316 137 LINE",
"309 159 OFFCURVE",
"294 176 OFFCURVE",
"256 176 CURVE SMOOTH",
"195 176 OFFCURVE",
"153 133 OFFCURVE",
"153 77 CURVE SMOOTH",
"153 23 OFFCURVE",
"191 -8 OFFCURVE",
"244 -8 CURVE SMOOTH"
);
},
{
closed = 1;
nodes = (
"223 40 OFFCURVE",
"208 52 OFFCURVE",
"208 78 CURVE SMOOTH",
"208 109 OFFCURVE",
"229 132 OFFCURVE",
"259 132 CURVE SMOOTH",
"283 132 OFFCURVE",
"298 118 OFFCURVE",
"298 93 CURVE SMOOTH",
"298 63 OFFCURVE",
"277 40 OFFCURVE",
"246 40 CURVE SMOOTH"
);
}
);
width = 466;
}
);
note = uni0E27;
rightMetricsKey = "koKai-thai";
unicode = 0E27;
},
{
glyphname = "ngoNgu-thai";
layers = (
{
anchors = (
{
name = bottom;
position = "{348, 0}";
},
{
name = top;
position = "{429, 510}";
}
);
layerId = "DFC648BE-1420-4AB7-B0BF-55F282890848";
paths = (
{
closed = 1;
nodes = (
"338 -8 OFFCURVE",
"359 68 OFFCURVE",
"374 162 CURVE SMOOTH",
"421 458 LINE SMOOTH",
"430 515 OFFCURVE",
"395 558 OFFCURVE",
"330 558 CURVE SMOOTH",
"263 558 OFFCURVE",
"221 513 OFFCURVE",
"221 455 CURVE SMOOTH",
"221 396 OFFCURVE",
"264 374 OFFCURVE",
"299 374 CURVE SMOOTH",
"329 374 OFFCURVE",
"352 390 OFFCURVE",
"366 413 CURVE",
"341 413 LINE",
"329 386 OFFCURVE",
"326 379 OFFCURVE",
"322 353 CURVE SMOOTH",
"295 180 LINE SMOOTH",
"287 130 OFFCURVE",
"276 74 OFFCURVE",
"244 26 CURVE",
"266 26 LINE",
"190 256 OFFCURVE",
"108 466 OFFCURVE",
"69 523 CURVE SMOOTH",
"55 543 OFFCURVE",
"43 552 OFFCURVE",
"27 552 CURVE SMOOTH",
"10 552 OFFCURVE",
"-9 541 OFFCURVE",
"-15 520 CURVE",
"60 407 OFFCURVE",
"159 133 OFFCURVE",
"202 1 CURVE",
"223 1 OFFCURVE",
"233 -8 OFFCURVE",
"260 -8 CURVE SMOOTH"
);
},
{
closed = 1;
nodes = (
"289 418 OFFCURVE",
"274 432 OFFCURVE",
"274 457 CURVE SMOOTH",
"274 487 OFFCURVE",
"295 510 OFFCURVE",
"326 510 CURVE SMOOTH",
"349 510 OFFCURVE",
"364 498 OFFCURVE",
"364 472 CURVE SMOOTH",
"364 441 OFFCURVE",
"343 418 OFFCURVE",
"313 418 CURVE SMOOTH"
);
}
);
width = 470;
}
);
note = uni0E07;
rightMetricsKey = "ngoNgu-thai";
unicode = 0E07;
},
{
glyphname = "thoThan-thai";
lastChange = "2018-03-12 19:43:52 +0000";
layers = (
{
anchors = (
{
name = bottom;
position = "{391, -257}";
},
{
name = top;
position = "{489, 510}";
}
);
layerId = "DFC648BE-1420-4AB7-B0BF-55F282890848";
paths = (
{
closed = 1;
nodes = (
"369 -8 OFFCURVE",
"437 117 OFFCURVE",
"461 272 CURVE SMOOTH",
"473 349 LINE SMOOTH",
"479 387 OFFCURVE",
"486 407 OFFCURVE",
"503 420 CURVE",
"499 436 LINE",
"478 441 OFFCURVE",
"466 448 OFFCURVE",
"445 462 CURVE SMOOTH",
"342 531 LINE SMOOTH",
"307 555 OFFCURVE",
"288 562 OFFCURVE",
"264 562 CURVE SMOOTH",
"183 562 OFFCURVE",
"47 477 OFFCURVE",
"47 418 CURVE SMOOTH",
"47 407 OFFCURVE",
"52 396 OFFCURVE",
"66 388 CURVE",
"121 439 OFFCURVE",
"190 494 OFFCURVE",
"248 494 CURVE SMOOTH",
"271 494 OFFCURVE",
"285 485 OFFCURVE",
"311 467 CURVE SMOOTH",
"368 428 LINE SMOOTH",
"398 408 OFFCURVE",
"413 398 OFFCURVE",
"437 396 CURVE",
"426 417 LINE",
"402 397 OFFCURVE",
"396 376 OFFCURVE",
"391 345 CURVE SMOOTH",
"379 272 LINE SMOOTH",
"353 111 OFFCURVE",
"330 84 OFFCURVE",
"274 50 CURVE",
"312 50 LINE",
"319 93 OFFCURVE",
"322 133 OFFCURVE",
"322 165 CURVE SMOOTH",
"322 286 OFFCURVE",
"318 417 OFFCURVE",
"208 417 CURVE SMOOTH",
"148 417 OFFCURVE",
"100 376 OFFCURVE",
"100 317 CURVE SMOOTH",
"100 268 OFFCURVE",
"138 237 OFFCURVE",
"187 237 CURVE SMOOTH",
"230 237 OFFCURVE",
"265 257 OFFCURVE",
"281 292 CURVE",
"244 278 LINE",
"254 259 OFFCURVE",
"258 236 OFFCURVE",
"252 137 CURVE SMOOTH",
"250 103 OFFCURVE",
"248 59 OFFCURVE",
"238 -2 CURVE",
"257 -2 OFFCURVE",
"270 -8 OFFCURVE",
"288 -8 CURVE SMOOTH"
);
},
{
closed = 1;
nodes = (
"216 -250 LINE",
"218 -185 OFFCURVE",
"239 -156 OFFCURVE",
"268 -156 CURVE SMOOTH",
"296 -156 OFFCURVE",
"326 -184 OFFCURVE",
"334 -250 CURVE",
"376 -250 OFFCURVE",
"401 -224 OFFCURVE",
"408 -178 CURVE SMOOTH",
"428 -48 LINE",
"420 -46 OFFCURVE",
"411 -45 OFFCURVE",
"405 -45 CURVE SMOOTH",
"374 -45 OFFCURVE",
"353 -67 OFFCURVE",
"348 -98 CURVE SMOOTH",
"334 -189 LINE",
"353 -189 LINE",
"338 -108 OFFCURVE",
"292 -100 OFFCURVE",
"271 -100 CURVE SMOOTH",
"224 -100 OFFCURVE",
"196 -139 OFFCURVE",
"191 -179 CURVE SMOOTH",
"189 -193 OFFCURVE",
"193 -205 OFFCURVE",
"196 -219 CURVE",
"211 -219 LINE",
"189 -139 OFFCURVE",
"145 -76 OFFCURVE",
"75 -76 CURVE SMOOTH",
"18 -76 OFFCURVE",
"-22 -118 OFFCURVE",
"-22 -166 CURVE SMOOTH",
"-22 -213 OFFCURVE",
"15 -236 OFFCURVE",
"56 -236 CURVE SMOOTH",
"135 -236 OFFCURVE",
"192 -148 OFFCURVE",
"192 -80 CURVE SMOOTH",
"192 -56 OFFCURVE",
"185 -42 OFFCURVE",
"160 -40 CURVE",
"138 -152 OFFCURVE",
"101 -192 OFFCURVE",
"67 -192 CURVE SMOOTH",
"49 -192 OFFCURVE",
"39 -181 OFFCURVE",
"39 -163 CURVE SMOOTH",
"39 -140 OFFCURVE",
"55 -124 OFFCURVE",
"79 -124 CURVE SMOOTH",
"112 -124 OFFCURVE",
"153 -154 OFFCURVE",
"192 -250 CURVE"
);
},
{
closed = 1;
nodes = (
"169 281 OFFCURVE",
"154 294 OFFCURVE",
"154 318 CURVE SMOOTH",
"154 347 OFFCURVE",
"175 369 OFFCURVE",
"206 369 CURVE SMOOTH",
"229 369 OFFCURVE",
"244 356 OFFCURVE",
"244 332 CURVE SMOOTH",
"244 303 OFFCURVE",
"223 281 OFFCURVE",
"192 281 CURVE SMOOTH"
);
},
{
closed = 1;
nodes = (
"531 513 OFFCURVE",
"579 539 OFFCURVE",
"585 588 CURVE SMOOTH",
"588 609 OFFCURVE",
"579 619 OFFCURVE",
"572 624 CURVE",
"548 600 OFFCURVE",
"502 570 OFFCURVE",
"349 519 CURVE",
"382 468 LINE"
);
}
);
width = 540;
}
);
note = uni0E10;
unicode = 0E10;
},
{
glyphname = "thoThan-thai.less";
layers = (
{
anchors = (
{
name = bottom;
position = "{398, 0}";
},
{
name = top;
position = "{489, 510}";
}
);
layerId = "DFC648BE-1420-4AB7-B0BF-55F282890848";
paths = (
{
closed = 1;
nodes = (
"369 -8 OFFCURVE",
"437 117 OFFCURVE",
"461 272 CURVE SMOOTH",
"473 349 LINE SMOOTH",
"479 387 OFFCURVE",
"486 407 OFFCURVE",
"503 420 CURVE",
"499 436 LINE",
"478 441 OFFCURVE",
"466 448 OFFCURVE",
"445 462 CURVE SMOOTH",
"342 531 LINE SMOOTH",
"307 555 OFFCURVE",
"288 562 OFFCURVE",
"264 562 CURVE SMOOTH",
"183 562 OFFCURVE",
"47 477 OFFCURVE",
"47 418 CURVE SMOOTH",
"47 407 OFFCURVE",
"52 396 OFFCURVE",
"66 388 CURVE",
"121 439 OFFCURVE",
"190 494 OFFCURVE",
"248 494 CURVE SMOOTH",
"271 494 OFFCURVE",
"285 485 OFFCURVE",
"311 467 CURVE SMOOTH",
"368 428 LINE SMOOTH",
"398 408 OFFCURVE",
"413 398 OFFCURVE",
"437 396 CURVE",
"426 417 LINE",
"402 397 OFFCURVE",
"396 376 OFFCURVE",
"391 345 CURVE SMOOTH",
"379 272 LINE SMOOTH",
"353 111 OFFCURVE",
"330 84 OFFCURVE",
"274 50 CURVE",
"312 50 LINE",
"319 93 OFFCURVE",
"322 133 OFFCURVE",
"322 165 CURVE SMOOTH",
"322 286 OFFCURVE",
"318 417 OFFCURVE",
"208 417 CURVE SMOOTH",
"148 417 OFFCURVE",
"100 376 OFFCURVE",
"100 317 CURVE SMOOTH",
"100 268 OFFCURVE",
"138 237 OFFCURVE",
"187 237 CURVE SMOOTH",
"230 237 OFFCURVE",
"265 257 OFFCURVE",
"281 292 CURVE",
"244 278 LINE",
"254 259 OFFCURVE",
"258 236 OFFCURVE",
"252 137 CURVE SMOOTH",
"250 103 OFFCURVE",
"248 59 OFFCURVE",
"238 -2 CURVE",
"257 -2 OFFCURVE",
"270 -8 OFFCURVE",
"288 -8 CURVE SMOOTH"
);
},
{
closed = 1;
nodes = (
"169 281 OFFCURVE",
"154 294 OFFCURVE",
"154 318 CURVE SMOOTH",
"154 347 OFFCURVE",
"175 369 OFFCURVE",
"206 369 CURVE SMOOTH",
"229 369 OFFCURVE",
"244 356 OFFCURVE",
"244 332 CURVE SMOOTH",
"244 303 OFFCURVE",
"223 281 OFFCURVE",
"192 281 CURVE SMOOTH"
);
},
{
closed = 1;
nodes = (
"531 513 OFFCURVE",
"579 539 OFFCURVE",
"585 588 CURVE SMOOTH",
"588 609 OFFCURVE",
"579 619 OFFCURVE",
"572 624 CURVE",
"548 600 OFFCURVE",
"502 570 OFFCURVE",
"349 519 CURVE",
"382 468 LINE"
);
}
);
width = 540;
}
);
note = "thoThan-thai.less";
},
{
glyphname = "choChing-thai";
layers = (
{
anchors = (
{
name = bottom;
position = "{434, 0}";
},
{
name = top;
position = "{505, 510}";
}
);
layerId = "DFC648BE-1420-4AB7-B0BF-55F282890848";
paths = (
{
closed = 1;
nodes = (
"160 -6 OFFCURVE",
"191 15 OFFCURVE",
"293 85 CURVE SMOOTH",
"388 150 OFFCURVE",
"418 168 OFFCURVE",
"445 168 CURVE",
"462 192 OFFCURVE",
"468 215 OFFCURVE",
"472 240 CURVE SMOOTH",
"489 349 LINE SMOOTH",
"495 387 OFFCURVE",
"502 407 OFFCURVE",
"519 420 CURVE",
"515 436 LINE",
"494 441 OFFCURVE",
"482 448 OFFCURVE",
"461 462 CURVE SMOOTH",
"358 531 LINE SMOOTH",
"325 553 OFFCURVE",
"307 562 OFFCURVE",
"280 562 CURVE SMOOTH",
"199 562 OFFCURVE",
"63 477 OFFCURVE",
"63 418 CURVE SMOOTH",
"63 407 OFFCURVE",
"68 396 OFFCURVE",
"82 388 CURVE",
"137 439 OFFCURVE",
"206 494 OFFCURVE",
"264 494 CURVE SMOOTH",
"287 494 OFFCURVE",
"301 485 OFFCURVE",
"327 467 CURVE SMOOTH",
"384 428 LINE SMOOTH",
"414 408 OFFCURVE",
"429 398 OFFCURVE",
"453 396 CURVE",
"442 417 LINE",
"419 398 OFFCURVE",
"412 377 OFFCURVE",
"407 345 CURVE SMOOTH",
"381 182 LINE",
"407 198 LINE",
"363 198 OFFCURVE",
"342 185 OFFCURVE",
"265 133 CURVE SMOOTH",
"190 83 OFFCURVE",
"167 52 OFFCURVE",
"131 42 CURVE",
"176 43 LINE",
"185 63 OFFCURVE",
"184 66 OFFCURVE",
"188 91 CURVE SMOOTH",
"194 128 OFFCURVE",
"203 195 OFFCURVE",
"223 227 CURVE SMOOTH",
"243 259 OFFCURVE",
"257 279 OFFCURVE",
"257 311 CURVE SMOOTH",
"257 363 OFFCURVE",
"221 395 OFFCURVE",
"165 395 CURVE SMOOTH",
"99 395 OFFCURVE",
"54 350 OFFCURVE",
"54 291 CURVE SMOOTH",
"54 240 OFFCURVE",
"88 211 OFFCURVE",
"138 211 CURVE SMOOTH",
"158 211 OFFCURVE",
"170 216 OFFCURVE",
"185 226 CURVE",
"136 226 LINE",
"119 201 OFFCURVE",
"117 149 OFFCURVE",
"108 102 CURVE SMOOTH",
"101 67 OFFCURVE",
"96 49 OFFCURVE",
"63 16 CURVE",
"66 -2 LINE",
"87 -2 OFFCURVE",
"96 -6 OFFCURVE",
"115 -6 CURVE SMOOTH"
);
},
{
closed = 1;
nodes = (
"124 255 OFFCURVE",
"109 268 OFFCURVE",
"109 294 CURVE SMOOTH",
"109 324 OFFCURVE",
"130 347 OFFCURVE",
"160 347 CURVE SMOOTH",
"184 347 OFFCURVE",
"199 332 OFFCURVE",
"199 307 CURVE SMOOTH",
"199 276 OFFCURVE",
"177 255 OFFCURVE",
"147 255 CURVE SMOOTH"
);
},
{
closed = 1;
nodes = (
"462 -8 OFFCURVE",
"510 37 OFFCURVE",
"510 100 CURVE SMOOTH",
"510 157 OFFCURVE",
"470 192 OFFCURVE",
"409 192 CURVE SMOOTH",
"340 192 OFFCURVE",
"291 147 OFFCURVE",
"291 84 CURVE SMOOTH",
"291 27 OFFCURVE",
"330 -8 OFFCURVE",
"392 -8 CURVE SMOOTH"
);
},
{
closed = 1;
nodes = (
"367 40 OFFCURVE",
"350 57 OFFCURVE",
"350 86 CURVE SMOOTH",
"350 119 OFFCURVE",
"373 144 OFFCURVE",
"406 144 CURVE SMOOTH",
"434 144 OFFCURVE",
"452 127 OFFCURVE",
"452 98 CURVE SMOOTH",
"452 65 OFFCURVE",
"428 40 OFFCURVE",
"395 40 CURVE SMOOTH"
);
}
);
width = 570;
}
);
note = uni0E09;
unicode = 0E09;
},
{
glyphname = "loLing-thai";
layers = (
{
anchors = (
{
name = bottom;
position = "{434, 0}";
},
{
name = top;
position = "{505, 510}";
}
);
layerId = "DFC648BE-1420-4AB7-B0BF-55F282890848";
paths = (
{
closed = 1;
nodes = (
"199 -8 OFFCURVE",
"243 39 OFFCURVE",
"243 98 CURVE SMOOTH",
"243 147 OFFCURVE",
"213 176 OFFCURVE",
"168 176 CURVE SMOOTH",
"143 176 OFFCURVE",
"117 167 OFFCURVE",
"99 146 CURVE",
"128 146 LINE",
"142 229 OFFCURVE",
"211 371 OFFCURVE",
"242 371 CURVE SMOOTH",
"283 371 OFFCURVE",
"320 150 OFFCURVE",
"350 -8 CURVE",
"409 -8 OFFCURVE",
"437 19 OFFCURVE",
"444 64 CURVE SMOOTH",
"489 349 LINE SMOOTH",
"496 390 OFFCURVE",
"502 407 OFFCURVE",
"519 420 CURVE",
"515 436 LINE",
"494 441 OFFCURVE",
"482 448 OFFCURVE",
"461 462 CURVE SMOOTH",
"358 531 LINE SMOOTH",
"328 551 OFFCURVE",
"309 562 OFFCURVE",
"280 562 CURVE SMOOTH",
"200 562 OFFCURVE",
"63 477 OFFCURVE",
"63 418 CURVE SMOOTH",
"63 407 OFFCURVE",
"68 396 OFFCURVE",
"82 388 CURVE",
"137 439 OFFCURVE",
"206 494 OFFCURVE",
"264 494 CURVE SMOOTH",
"287 494 OFFCURVE",
"301 485 OFFCURVE",
"327 467 CURVE SMOOTH",
"384 428 LINE SMOOTH",
"416 406 OFFCURVE",
"431 398 OFFCURVE",
"453 396 CURVE",
"442 417 LINE",
"420 398 OFFCURVE",
"412 382 OFFCURVE",
"407 345 CURVE SMOOTH",
"368 64 LINE",
"389 75 LINE",
"369 229 OFFCURVE",
"321 443 OFFCURVE",
"252 443 CURVE SMOOTH",
"162 443 OFFCURVE",
"42 173 OFFCURVE",
"42 81 CURVE SMOOTH",
"42 28 OFFCURVE",
"77 -8 OFFCURVE",
"134 -8 CURVE SMOOTH"
);
},
{
closed = 1;
nodes = (
"112 40 OFFCURVE",
"99 55 OFFCURVE",
"99 79 CURVE SMOOTH",
"99 109 OFFCURVE",
"120 132 OFFCURVE",
"150 132 CURVE SMOOTH",
"175 132 OFFCURVE",
"189 116 OFFCURVE",
"189 92 CURVE SMOOTH",
"189 61 OFFCURVE",
"166 40 OFFCURVE",
"137 40 CURVE SMOOTH"
);
}
);
width = 558;
}
);
note = uni0E25;
rightMetricsKey = "koKai-thai";
unicode = 0E25;
},
{
glyphname = "soSua-thai";
lastChange = "2018-03-12 19:43:52 +0000";
layers = (
{
anchors = (
{
name = bottom;
position = "{434, 0}";
},
{
name = top;
position = "{505, 510}";
}
);
layerId = "DFC648BE-1420-4AB7-B0BF-55F282890848";
paths = (
{
closed = 1;
nodes = (
"199 -8 OFFCURVE",
"243 39 OFFCURVE",
"243 98 CURVE SMOOTH",
"243 147 OFFCURVE",
"213 176 OFFCURVE",
"168 176 CURVE SMOOTH",
"143 176 OFFCURVE",
"117 167 OFFCURVE",
"99 146 CURVE",
"128 146 LINE",
"142 229 OFFCURVE",
"211 371 OFFCURVE",
"242 371 CURVE SMOOTH",
"283 371 OFFCURVE",
"320 150 OFFCURVE",
"350 -8 CURVE",
"409 -8 OFFCURVE",
"437 19 OFFCURVE",
"444 64 CURVE SMOOTH",
"489 349 LINE SMOOTH",
"496 390 OFFCURVE",
"502 407 OFFCURVE",
"519 420 CURVE",
"515 436 LINE",
"494 441 OFFCURVE",
"482 448 OFFCURVE",
"461 462 CURVE SMOOTH",
"358 531 LINE SMOOTH",
"328 551 OFFCURVE",
"309 562 OFFCURVE",
"280 562 CURVE SMOOTH",
"200 562 OFFCURVE",
"63 477 OFFCURVE",
"63 418 CURVE SMOOTH",
"63 407 OFFCURVE",
"68 396 OFFCURVE",
"82 388 CURVE",
"137 439 OFFCURVE",
"206 494 OFFCURVE",
"264 494 CURVE SMOOTH",
"287 494 OFFCURVE",
"301 485 OFFCURVE",
"327 467 CURVE SMOOTH",
"384 428 LINE SMOOTH",
"416 406 OFFCURVE",
"431 398 OFFCURVE",
"453 396 CURVE",
"442 417 LINE",
"420 398 OFFCURVE",
"412 382 OFFCURVE",
"407 345 CURVE SMOOTH",
"368 64 LINE",
"389 75 LINE",
"369 229 OFFCURVE",
"321 443 OFFCURVE",
"252 443 CURVE SMOOTH",
"162 443 OFFCURVE",
"42 173 OFFCURVE",
"42 81 CURVE SMOOTH",
"42 28 OFFCURVE",
"77 -8 OFFCURVE",
"134 -8 CURVE SMOOTH"
);
},
{
closed = 1;
nodes = (
"112 40 OFFCURVE",
"99 55 OFFCURVE",
"99 79 CURVE SMOOTH",
"99 109 OFFCURVE",
"120 132 OFFCURVE",
"150 132 CURVE SMOOTH",
"175 132 OFFCURVE",
"189 116 OFFCURVE",
"189 92 CURVE SMOOTH",
"189 61 OFFCURVE",
"166 40 OFFCURVE",
"137 40 CURVE SMOOTH"
);
},
{
closed = 1;
nodes = (
"554 516 OFFCURVE",
"606 550 OFFCURVE",
"606 590 CURVE SMOOTH",
"606 609 OFFCURVE",
"594 621 OFFCURVE",
"588 624 CURVE",
"564 600 OFFCURVE",
"505 561 OFFCURVE",
"345 516 CURVE",
"396 470 LINE"
);
}
);
width = 564;
}
);
leftMetricsKey = "loLing-thai";
note = uni0E2A;
unicode = 0E2A;
},
{
glyphname = "boBaimai-thai";
layers = (
{
anchors = (
{
name = bottom;
position = "{426, 0}";
},
{
name = top;
position = "{517, 510}";
}
);
layerId = "DFC648BE-1420-4AB7-B0BF-55F282890848";
paths = (
{
closed = 1;
nodes = (
"358 -12 OFFCURVE",
"443 46 OFFCURVE",
"461 160 CURVE SMOOTH",
"523 550 LINE",
"514 553 OFFCURVE",
"504 554 OFFCURVE",
"497 554 CURVE SMOOTH",
"461 554 OFFCURVE",
"438 529 OFFCURVE",
"432 493 CURVE SMOOTH",
"379 160 LINE SMOOTH",
"369 97 OFFCURVE",
"329 54 OFFCURVE",
"242 54 CURVE SMOOTH",
"194 54 OFFCURVE",
"148 67 OFFCURVE",
"102 63 CURVE",
"119 26 LINE",
"151 67 OFFCURVE",
"164 135 OFFCURVE",
"171 180 CURVE SMOOTH",
"187 283 LINE SMOOTH",
"194 329 OFFCURVE",
"211 364 OFFCURVE",
"224 388 CURVE SMOOTH",
"240 417 OFFCURVE",
"258 446 OFFCURVE",
"258 478 CURVE SMOOTH",
"258 524 OFFCURVE",
"221 556 OFFCURVE",
"166 556 CURVE SMOOTH",
"101 556 OFFCURVE",
"56 511 OFFCURVE",
"56 452 CURVE SMOOTH",
"56 401 OFFCURVE",
"89 372 OFFCURVE",
"134 372 CURVE SMOOTH",
"154 372 OFFCURVE",
"173 378 OFFCURVE",
"186 387 CURVE",
"137 387 LINE",
"125 370 OFFCURVE",
"114 341 OFFCURVE",
"110 315 CURVE SMOOTH",
"89 180 LINE SMOOTH",
"76 97 OFFCURVE",
"60 62 OFFCURVE",
"32 28 CURVE",
"36 10 LINE",
"104 10 OFFCURVE",
"149 -12 OFFCURVE",
"229 -12 CURVE SMOOTH"
);
},
{
closed = 1;
nodes = (
"125 416 OFFCURVE",
"110 430 OFFCURVE",
"110 455 CURVE SMOOTH",
"110 485 OFFCURVE",
"131 508 OFFCURVE",
"161 508 CURVE SMOOTH",
"185 508 OFFCURVE",
"200 494 OFFCURVE",
"200 469 CURVE SMOOTH",
"200 439 OFFCURVE",
"179 416 OFFCURVE",
"149 416 CURVE SMOOTH"
);
}
);
width = 554;
}
);
note = uni0E1A;
unicode = 0E1A;
},
{
glyphname = "poPla-thai";
layers = (
{
anchors = (
{
name = bottom;
position = "{426, 0}";
},
{
name = top;
position = "{387, 510}";
}
);
layerId = "DFC648BE-1420-4AB7-B0BF-55F282890848";
paths = (
{
closed = 1;
nodes = (
"358 -12 OFFCURVE",
"443 46 OFFCURVE",
"461 160 CURVE SMOOTH",
"555 752 LINE",
"546 755 OFFCURVE",
"536 756 OFFCURVE",
"529 756 CURVE SMOOTH",
"493 756 OFFCURVE",
"470 731 OFFCURVE",
"464 695 CURVE SMOOTH",
"379 160 LINE SMOOTH",
"369 95 OFFCURVE",
"327 54 OFFCURVE",
"241 54 CURVE SMOOTH",
"195 54 OFFCURVE",
"148 67 OFFCURVE",
"102 63 CURVE",
"119 26 LINE",
"151 67 OFFCURVE",
"164 135 OFFCURVE",
"171 180 CURVE SMOOTH",
"187 283 LINE SMOOTH",
"192 318 OFFCURVE",
"206 356 OFFCURVE",
"224 388 CURVE SMOOTH",
"239 414 OFFCURVE",
"258 447 OFFCURVE",
"258 479 CURVE SMOOTH",
"258 524 OFFCURVE",
"221 556 OFFCURVE",
"166 556 CURVE SMOOTH",
"101 556 OFFCURVE",
"56 511 OFFCURVE",
"56 452 CURVE SMOOTH",
"56 401 OFFCURVE",
"89 372 OFFCURVE",
"134 372 CURVE SMOOTH",
"154 372 OFFCURVE",
"173 378 OFFCURVE",
"186 387 CURVE",
"137 387 LINE",
"125 370 OFFCURVE",
"114 341 OFFCURVE",
"110 315 CURVE SMOOTH",
"89 180 LINE SMOOTH",
"76 97 OFFCURVE",
"60 62 OFFCURVE",
"32 28 CURVE",
"36 10 LINE",
"104 10 OFFCURVE",
"149 -12 OFFCURVE",
"229 -12 CURVE SMOOTH"
);
},
{
closed = 1;
nodes = (
"125 416 OFFCURVE",
"110 430 OFFCURVE",
"110 455 CURVE SMOOTH",
"110 485 OFFCURVE",
"131 508 OFFCURVE",
"161 508 CURVE SMOOTH",
"185 508 OFFCURVE",
"200 494 OFFCURVE",
"200 469 CURVE SMOOTH",
"200 439 OFFCURVE",
"179 416 OFFCURVE",
"149 416 CURVE SMOOTH"
);
}
);
width = 554;
}
);
leftMetricsKey = "boBaimai-thai";
note = uni0E1B;
rightMetricsKey = "boBaimai-thai";
unicode = 0E1B;
},
{
glyphname = "soRusi-thai";
layers = (
{
anchors = (
{
name = bottom;
position = "{446, 0}";
},
{
name = top;
position = "{527, 510}";
}
);
layerId = "DFC648BE-1420-4AB7-B0BF-55F282890848";
paths = (
{
closed = 1;
nodes = (
"368 -12 OFFCURVE",
"453 46 OFFCURVE",
"471 160 CURVE SMOOTH",
"533 550 LINE",
"524 553 OFFCURVE",
"514 554 OFFCURVE",
"507 554 CURVE SMOOTH",
"471 554 OFFCURVE",
"448 529 OFFCURVE",
"442 493 CURVE SMOOTH",
"389 160 LINE SMOOTH",
"379 97 OFFCURVE",
"339 54 OFFCURVE",
"252 54 CURVE SMOOTH",
"242 54 OFFCURVE",
"111 67 OFFCURVE",
"102 63 CURVE",
"119 26 LINE",
"151 67 OFFCURVE",
"164 135 OFFCURVE",
"171 180 CURVE SMOOTH",
"187 283 LINE SMOOTH",
"193 323 OFFCURVE",
"207 357 OFFCURVE",
"224 388 CURVE SMOOTH",
"240 417 OFFCURVE",
"258 446 OFFCURVE",
"258 478 CURVE SMOOTH",
"258 524 OFFCURVE",
"221 556 OFFCURVE",
"166 556 CURVE SMOOTH",
"101 556 OFFCURVE",
"56 511 OFFCURVE",
"56 452 CURVE SMOOTH",
"56 401 OFFCURVE",
"89 372 OFFCURVE",
"134 372 CURVE SMOOTH",
"154 372 OFFCURVE",
"173 378 OFFCURVE",
"186 387 CURVE",
"137 387 LINE",
"125 370 OFFCURVE",
"114 341 OFFCURVE",
"110 315 CURVE SMOOTH",
"89 180 LINE SMOOTH",
"76 97 OFFCURVE",
"60 62 OFFCURVE",
"32 28 CURVE",
"36 10 LINE",
"104 10 OFFCURVE",
"159 -12 OFFCURVE",
"239 -12 CURVE SMOOTH"
);
},
{
closed = 1;
nodes = (
"277 248 OFFCURVE",
"266 258 OFFCURVE",
"266 277 CURVE SMOOTH",
"266 299 OFFCURVE",
"282 316 OFFCURVE",
"305 316 CURVE SMOOTH",
"322 316 OFFCURVE",
"333 306 OFFCURVE",
"333 287 CURVE SMOOTH",
"333 265 OFFCURVE",
"317 248 OFFCURVE",
"294 248 CURVE SMOOTH"
);
},
{
closed = 1;
nodes = (
"125 416 OFFCURVE",
"110 430 OFFCURVE",
"110 455 CURVE SMOOTH",
"110 485 OFFCURVE",
"131 508 OFFCURVE",
"161 508 CURVE SMOOTH",
"185 508 OFFCURVE",
"200 494 OFFCURVE",
"200 469 CURVE SMOOTH",
"200 439 OFFCURVE",
"179 416 OFFCURVE",
"149 416 CURVE SMOOTH"
);
},
{
closed = 1;
nodes = (
"453 198 OFFCURVE",
"607 288 OFFCURVE",
"607 404 CURVE SMOOTH",
"607 434 OFFCURVE",
"597 446 OFFCURVE",
"574 446 CURVE SMOOTH",
"565 446 OFFCURVE",
"556 444 OFFCURVE",
"548 441 CURVE",
"530 331 OFFCURVE",
"472 270 OFFCURVE",
"352 258 CURVE",
"349 242 LINE",
"373 254 OFFCURVE",
"385 275 OFFCURVE",
"385 300 CURVE SMOOTH",
"385 340 OFFCURVE",
"353 364 OFFCURVE",
"308 364 CURVE SMOOTH",
"250 364 OFFCURVE",
"212 326 OFFCURVE",
"212 278 CURVE SMOOTH",
"212 225 OFFCURVE",
"257 198 OFFCURVE",
"326 198 CURVE SMOOTH"
);
}
);
width = 588;
}
);
leftMetricsKey = "boBaimai-thai";
note = uni0E29;
unicode = 0E29;
},
{
glyphname = "yoYak-thai";
layers = (
{
anchors = (
{
name = bottom;
position = "{428, 0}";
},
{
name = top;
position = "{509, 510}";
}
);
layerId = "DFC648BE-1420-4AB7-B0BF-55F282890848";
paths = (
{
closed = 1;
nodes = (
"267 -12 OFFCURVE",
"388 10 OFFCURVE",
"456 10 CURVE",
"464 28 LINE",
"453 49 OFFCURVE",
"448 69 OFFCURVE",
"448 98 CURVE SMOOTH",
"448 121 OFFCURVE",
"451 143 OFFCURVE",
"457 180 CURVE SMOOTH",
"515 550 LINE",
"506 553 OFFCURVE",
"496 554 OFFCURVE",
"489 554 CURVE SMOOTH",
"453 554 OFFCURVE",
"430 529 OFFCURVE",
"424 493 CURVE SMOOTH",
"375 180 LINE SMOOTH",
"371 153 OFFCURVE",
"366 123 OFFCURVE",
"366 94 CURVE SMOOTH",
"366 69 OFFCURVE",
"370 46 OFFCURVE",
"379 26 CURVE",
"403 59 LINE",
"345 65 OFFCURVE",
"260 54 OFFCURVE",
"213 54 CURVE SMOOTH",
"145 54 OFFCURVE",
"117 83 OFFCURVE",
"117 132 CURVE SMOOTH",
"117 186 OFFCURVE",
"156 226 OFFCURVE",
"229 247 CURVE SMOOTH",
"282 262 OFFCURVE",
"317 273 OFFCURVE",
"317 310 CURVE SMOOTH",
"317 324 OFFCURVE",
"312 331 OFFCURVE",
"305 338 CURVE",
"285 324 OFFCURVE",
"258 312 OFFCURVE",
"225 312 CURVE SMOOTH",
"167 312 OFFCURVE",
"150 348 OFFCURVE",
"150 388 CURVE SMOOTH",
"150 394 OFFCURVE",
"150 399 OFFCURVE",
"151 405 CURVE",
"153 407 LINE",
"166 383 OFFCURVE",
"188 372 OFFCURVE",
"216 372 CURVE SMOOTH",
"274 372 OFFCURVE",
"319 420 OFFCURVE",
"319 475 CURVE SMOOTH",
"319 526 OFFCURVE",
"281 556 OFFCURVE",
"226 556 CURVE SMOOTH",
"133 556 OFFCURVE",
"69 471 OFFCURVE",
"69 383 CURVE SMOOTH",
"69 328 OFFCURVE",
"94 294 OFFCURVE",
"143 273 CURVE",
"143 269 LINE",
"70 239 OFFCURVE",
"31 190 OFFCURVE",
"31 122 CURVE SMOOTH",
"31 55 OFFCURVE",
"69 -12 OFFCURVE",
"188 -12 CURVE SMOOTH"
);
},
{
closed = 1;
nodes = (
"187 416 OFFCURVE",
"171 431 OFFCURVE",
"171 455 CURVE SMOOTH",
"171 485 OFFCURVE",
"195 508 OFFCURVE",
"225 508 CURVE SMOOTH",
"249 508 OFFCURVE",
"265 493 OFFCURVE",
"265 469 CURVE SMOOTH",
"265 439 OFFCURVE",
"241 416 OFFCURVE",
"211 416 CURVE SMOOTH"
);
}
);
width = 548;
}
);
note = uni0E22;
unicode = 0E22;
},
{
glyphname = "phoPhung-thai";
layers = (
{
anchors = (
{
name = bottom;
position = "{522, 0}";
},
{
name = top;
position = "{603, 510}";
}
);
layerId = "DFC648BE-1420-4AB7-B0BF-55F282890848";
paths = (
{
closed = 1;
nodes = (
"504 -8 OFFCURVE",
"525 19 OFFCURVE",
"532 64 CURVE SMOOTH",
"609 550 LINE",
"600 553 OFFCURVE",
"590 554 OFFCURVE",
"583 554 CURVE SMOOTH",
"547 554 OFFCURVE",
"524 529 OFFCURVE",
"518 493 CURVE SMOOTH",
"446 38 LINE",
"477 44 LINE",
"336 324 LINE",
"316 324 LINE",
"98 63 LINE",
"140 53 LINE",
"136 72 OFFCURVE",
"135 94 OFFCURVE",
"135 113 CURVE SMOOTH",
"135 197 OFFCURVE",
"154 322 OFFCURVE",
"184 405 CURVE",
"188 407 LINE",
"206 383 OFFCURVE",
"228 372 OFFCURVE",
"257 372 CURVE SMOOTH",
"314 372 OFFCURVE",
"364 416 OFFCURVE",
"364 475 CURVE SMOOTH",
"364 528 OFFCURVE",
"325 556 OFFCURVE",
"272 556 CURVE SMOOTH",
"112 556 OFFCURVE",
"52 307 OFFCURVE",
"52 134 CURVE SMOOTH",
"52 37 OFFCURVE",
"71 -6 OFFCURVE",
"115 -6 CURVE SMOOTH",
"137 -6 LINE",
"332 233 LINE",
"302 233 LINE",
"418 -3 LINE",
"426 -6 OFFCURVE",
"436 -8 OFFCURVE",
"450 -8 CURVE SMOOTH"
);
},
{
closed = 1;
nodes = (
"235 416 OFFCURVE",
"220 431 OFFCURVE",
"220 455 CURVE SMOOTH",
"220 485 OFFCURVE",
"243 508 OFFCURVE",
"272 508 CURVE SMOOTH",
"295 508 OFFCURVE",
"310 493 OFFCURVE",
"310 469 CURVE SMOOTH",
"310 439 OFFCURVE",
"287 416 OFFCURVE",
"258 416 CURVE SMOOTH"
);
}
);
width = 646;
}
);
note = uni0E1C;
rightMetricsKey = "moMa-thai";
unicode = 0E1C;
},
{
glyphname = "foFa-thai";
layers = (
{
anchors = (
{
name = bottom;
position = "{522, 0}";
},
{
name = top;
position = "{473, 510}";
}
);
layerId = "DFC648BE-1420-4AB7-B0BF-55F282890848";
paths = (
{
closed = 1;
nodes = (
"504 -8 OFFCURVE",
"525 19 OFFCURVE",
"532 64 CURVE SMOOTH",
"641 752 LINE",
"632 755 OFFCURVE",
"622 756 OFFCURVE",
"615 756 CURVE SMOOTH",
"579 756 OFFCURVE",
"556 731 OFFCURVE",
"550 695 CURVE SMOOTH",
"446 38 LINE",
"477 44 LINE",
"336 324 LINE",
"316 324 LINE",
"98 63 LINE",
"140 53 LINE",
"136 72 OFFCURVE",
"135 94 OFFCURVE",
"135 113 CURVE SMOOTH",
"135 197 OFFCURVE",
"154 322 OFFCURVE",
"184 405 CURVE",
"188 407 LINE",
"206 383 OFFCURVE",
"228 372 OFFCURVE",
"257 372 CURVE SMOOTH",
"314 372 OFFCURVE",
"364 416 OFFCURVE",
"364 475 CURVE SMOOTH",
"364 528 OFFCURVE",
"325 556 OFFCURVE",
"272 556 CURVE SMOOTH",
"112 556 OFFCURVE",
"52 307 OFFCURVE",
"52 134 CURVE SMOOTH",
"52 37 OFFCURVE",
"71 -6 OFFCURVE",
"115 -6 CURVE SMOOTH",
"137 -6 LINE",
"332 233 LINE",
"302 233 LINE",
"418 -3 LINE",
"426 -6 OFFCURVE",
"436 -8 OFFCURVE",
"450 -8 CURVE SMOOTH"
);
},
{
closed = 1;
nodes = (
"235 416 OFFCURVE",
"220 431 OFFCURVE",
"220 455 CURVE SMOOTH",
"220 485 OFFCURVE",
"243 508 OFFCURVE",
"272 508 CURVE SMOOTH",
"295 508 OFFCURVE",
"310 493 OFFCURVE",
"310 469 CURVE SMOOTH",
"310 439 OFFCURVE",
"287 416 OFFCURVE",
"258 416 CURVE SMOOTH"
);
}
);
width = 646;
}
);
leftMetricsKey = "phoPhung-thai";
note = uni0E1D;
rightMetricsKey = "moMa-thai";
unicode = 0E1D;
},
{
glyphname = "foFan-thai";
layers = (
{
anchors = (
{
name = bottom;
position = "{516, 0}";
},
{
name = top;
position = "{467, 510}";
}
);
layerId = "DFC648BE-1420-4AB7-B0BF-55F282890848";
paths = (
{
closed = 1;
nodes = (
"146 -6 OFFCURVE",
"184 24 OFFCURVE",
"251 162 CURVE SMOOTH",
"371 410 LINE",
"337 410 LINE",
"415 -3 LINE",
"423 -6 OFFCURVE",
"432 -8 OFFCURVE",
"447 -8 CURVE SMOOTH",
"503 -8 OFFCURVE",
"520 19 OFFCURVE",
"527 64 CURVE SMOOTH",
"635 752 LINE",
"626 755 OFFCURVE",
"616 756 OFFCURVE",
"609 756 CURVE SMOOTH",
"573 756 OFFCURVE",
"550 731 OFFCURVE",
"544 695 CURVE SMOOTH",
"441 38 LINE",
"474 50 LINE",
"387 526 LINE",
"355 526 LINE",
"186 186 LINE SMOOTH",
"157 127 OFFCURVE",
"150 120 OFFCURVE",
"131 105 CURVE",
"125 70 LINE",
"157 113 OFFCURVE",
"164 149 OFFCURVE",
"173 204 CURVE SMOOTH",
"186 283 LINE SMOOTH",
"195 340 OFFCURVE",
"203 354 OFFCURVE",
"223 388 CURVE SMOOTH",
"246 427 OFFCURVE",
"257 454 OFFCURVE",
"257 479 CURVE SMOOTH",
"257 518 OFFCURVE",
"230 556 OFFCURVE",
"170 556 CURVE SMOOTH",
"103 556 OFFCURVE",
"55 509 OFFCURVE",
"55 448 CURVE SMOOTH",
"55 394 OFFCURVE",
"93 372 OFFCURVE",
"132 372 CURVE SMOOTH",
"153 372 OFFCURVE",
"172 378 OFFCURVE",
"185 387 CURVE",
"136 387 LINE",
"119 363 OFFCURVE",
"113 340 OFFCURVE",
"109 315 CURVE SMOOTH",
"86 170 LINE SMOOTH",
"73 90 OFFCURVE",
"61 56 OFFCURVE",
"30 18 CURVE",
"33 0 LINE",
"55 0 OFFCURVE",
"82 -6 OFFCURVE",
"102 -6 CURVE SMOOTH"
);
},
{
closed = 1;
nodes = (
"125 416 OFFCURVE",
"109 431 OFFCURVE",
"109 457 CURVE SMOOTH",
"109 486 OFFCURVE",
"129 508 OFFCURVE",
"159 508 CURVE SMOOTH",
"183 508 OFFCURVE",
"199 493 OFFCURVE",
"199 467 CURVE SMOOTH",
"199 438 OFFCURVE",
"179 416 OFFCURVE",
"149 416 CURVE SMOOTH"
);
}
);
width = 641;
}
);
leftMetricsKey = "boBaimai-thai";
note = uni0E1F;
rightMetricsKey = "moMa-thai";
unicode = 0E1F;
},
{
glyphname = "phoPhan-thai";
layers = (
{
anchors = (
{
name = bottom;
position = "{517, 0}";
},
{
name = top;
position = "{598, 510}";
}
);
layerId = "DFC648BE-1420-4AB7-B0BF-55F282890848";
paths = (
{
closed = 1;
nodes = (
"146 -6 OFFCURVE",
"184 24 OFFCURVE",
"251 162 CURVE SMOOTH",
"371 410 LINE",
"337 410 LINE",
"415 -3 LINE",
"423 -6 OFFCURVE",
"432 -8 OFFCURVE",
"447 -8 CURVE SMOOTH",
"503 -8 OFFCURVE",
"520 19 OFFCURVE",
"527 64 CURVE SMOOTH",
"604 550 LINE",
"595 553 OFFCURVE",
"585 554 OFFCURVE",
"578 554 CURVE SMOOTH",
"542 554 OFFCURVE",
"519 529 OFFCURVE",
"513 493 CURVE SMOOTH",
"441 38 LINE",
"474 50 LINE",
"387 526 LINE",
"355 526 LINE",
"186 186 LINE SMOOTH",
"157 127 OFFCURVE",
"150 120 OFFCURVE",
"131 105 CURVE",
"125 70 LINE",
"157 113 OFFCURVE",
"164 149 OFFCURVE",
"173 204 CURVE SMOOTH",
"186 283 LINE SMOOTH",
"195 341 OFFCURVE",
"205 358 OFFCURVE",
"223 388 CURVE SMOOTH",
"246 426 OFFCURVE",
"257 455 OFFCURVE",
"257 480 CURVE SMOOTH",
"257 518 OFFCURVE",
"230 556 OFFCURVE",
"170 556 CURVE SMOOTH",
"103 556 OFFCURVE",
"55 509 OFFCURVE",
"55 448 CURVE SMOOTH",
"55 394 OFFCURVE",
"93 372 OFFCURVE",
"132 372 CURVE SMOOTH",
"153 372 OFFCURVE",
"172 378 OFFCURVE",
"185 387 CURVE",
"136 387 LINE",
"119 363 OFFCURVE",
"113 340 OFFCURVE",
"109 315 CURVE SMOOTH",
"86 170 LINE SMOOTH",
"73 90 OFFCURVE",
"61 56 OFFCURVE",
"30 18 CURVE",
"33 0 LINE",
"55 0 OFFCURVE",
"82 -6 OFFCURVE",
"102 -6 CURVE SMOOTH"
);
},
{
closed = 1;
nodes = (
"125 416 OFFCURVE",
"109 431 OFFCURVE",
"109 457 CURVE SMOOTH",
"109 486 OFFCURVE",
"129 508 OFFCURVE",
"159 508 CURVE SMOOTH",
"183 508 OFFCURVE",
"199 493 OFFCURVE",
"199 467 CURVE SMOOTH",
"199 438 OFFCURVE",
"179 416 OFFCURVE",
"149 416 CURVE SMOOTH"
);
}
);
width = 641;
}
);
leftMetricsKey = "boBaimai-thai";
note = uni0E1E;
rightMetricsKey = "moMa-thai";
unicode = 0E1E;
},
